<svg xmlns="http://www.w3.org/2000/svg" width="920" height="420">
<rect width="920" height="420" fill="#ffffff"/>
<text x="55" y="28" font-size="20" font-family="Consolas, monospace">Age: inicial (solida) vs optimizada (punteada)</text>
<line x1="55" y1="365" x2="865" y2="365" stroke="#333" stroke-width="1.5"/>
<line x1="55" y1="55" x2="55" y2="365" stroke="#333" stroke-width="1.5"/>
<line x1="55" y1="365.00" x2="865" y2="365.00" stroke="#e0e0e0" stroke-width="1"/>
<text x="10" y="369.00" font-size="12" font-family="Consolas, monospace">0.0</text>
<line x1="55" y1="303.00" x2="865" y2="303.00" stroke="#e0e0e0" stroke-width="1"/>
<text x="10" y="307.00" font-size="12" font-family="Consolas, monospace">0.2</text>
<line x1="55" y1="241.00" x2="865" y2="241.00" stroke="#e0e0e0" stroke-width="1"/>
<text x="10" y="245.00" font-size="12" font-family="Consolas, monospace">0.4</text>
<line x1="55" y1="179.00" x2="865" y2="179.00" stroke="#e0e0e0" stroke-width="1"/>
<text x="10" y="183.00" font-size="12" font-family="Consolas, monospace">0.6</text>
<line x1="55" y1="117.00" x2="865" y2="117.00" stroke="#e0e0e0" stroke-width="1"/>
<text x="10" y="121.00" font-size="12" font-family="Consolas, monospace">0.8</text>
<line x1="55" y1="55.00" x2="865" y2="55.00" stroke="#e0e0e0" stroke-width="1"/>
<text x="10" y="59.00" font-size="12" font-family="Consolas, monospace">1.0</text>
<polyline points="55.00,55.00 57.71,55.00 60.42,55.00 63.13,55.00 65.84,55.00 68.55,55.00 71.25,55.00 73.96,55.00 76.67,55.00 79.38,55.00 82.09,55.00 84.80,55.00 87.51,55.00 90.22,55.00 92.93,55.00 95.64,55.00 98.34,55.00 101.05,55.00 103.76,55.00 106.47,55.00 109.18,55.00 111.89,55.00 114.60,55.00 117.31,55.00 120.02,55.00 122.73,55.00 125.43,55.00 128.14,55.00 130.85,55.00 133.56,55.00 136.27,55.00 138.98,55.00 141.69,55.00 144.40,72.97 147.11,95.43 149.82,117.90 152.53,140.36 155.23,162.83 157.94,185.29 160.65,207.75 163.36,230.22 166.07,252.68 168.78,275.14 171.49,297.61 174.20,320.07 176.91,342.54 179.62,365.00 182.32,365.00 185.03,365.00 187.74,365.00 190.45,365.00 193.16,365.00 195.87,365.00 198.58,365.00 201.29,365.00 204.00,365.00 206.71,365.00 209.41,365.00 212.12,365.00 214.83,365.00 217.54,365.00 220.25,365.00 222.96,365.00 225.67,365.00 228.38,365.00 231.09,365.00 233.80,365.00 236.51,365.00 239.21,365.00 241.92,365.00 244.63,365.00 247.34,365.00 250.05,365.00 252.76,365.00 255.47,365.00 258.18,365.00 260.89,365.00 263.60,365.00 266.30,365.00 269.01,365.00 271.72,365.00 274.43,365.00 277.14,365.00 279.85,365.00 282.56,365.00 285.27,365.00 287.98,365.00 290.69,365.00 293.39,365.00 296.10,365.00 298.81,365.00 301.52,365.00 304.23,365.00 306.94,365.00 309.65,365.00 312.36,365.00 315.07,365.00 317.78,365.00 320.48,365.00 323.19,365.00 325.90,365.00 328.61,365.00 331.32,365.00 334.03,365.00 336.74,365.00 339.45,365.00 342.16,365.00 344.87,365.00 347.58,365.00 350.28,365.00 352.99,365.00 355.70,365.00 358.41,365.00 361.12,365.00 363.83,365.00 366.54,365.00 369.25,365.00 371.96,365.00 374.67,365.00 377.37,365.00 380.08,365.00 382.79,365.00 385.50,365.00 388.21,365.00 390.92,365.00 393.63,365.00 396.34,365.00 399.05,365.00 401.76,365.00 404.46,365.00 407.17,365.00 409.88,365.00 412.59,365.00 415.30,365.00 418.01,365.00 420.72,365.00 423.43,365.00 426.14,365.00 428.85,365.00 431.56,365.00 434.26,365.00 436.97,365.00 439.68,365.00 442.39,365.00 445.10,365.00 447.81,365.00 450.52,365.00 453.23,365.00 455.94,365.00 458.65,365.00 461.35,365.00 464.06,365.00 466.77,365.00 469.48,365.00 472.19,365.00 474.90,365.00 477.61,365.00 480.32,365.00 483.03,365.00 485.74,365.00 488.44,365.00 491.15,365.00 493.86,365.00 496.57,365.00 499.28,365.00 501.99,365.00 504.70,365.00 507.41,365.00 510.12,365.00 512.83,365.00 515.54,365.00 518.24,365.00 520.95,365.00 523.66,365.00 526.37,365.00 529.08,365.00 531.79,365.00 534.50,365.00 537.21,365.00 539.92,365.00 542.63,365.00 545.33,365.00 548.04,365.00 550.75,365.00 553.46,365.00 556.17,365.00 558.88,365.00 561.59,365.00 564.30,365.00 567.01,365.00 569.72,365.00 572.42,365.00 575.13,365.00 577.84,365.00 580.55,365.00 583.26,365.00 585.97,365.00 588.68,365.00 591.39,365.00 594.10,365.00 596.81,365.00 599.52,365.00 602.22,365.00 604.93,365.00 607.64,365.00 610.35,365.00 613.06,365.00 615.77,365.00 618.48,365.00 621.19,365.00 623.90,365.00 626.61,365.00 629.31,365.00 632.02,365.00 634.73,365.00 637.44,365.00 640.15,365.00 642.86,365.00 645.57,365.00 648.28,365.00 650.99,365.00 653.70,365.00 656.40,365.00 659.11,365.00 661.82,365.00 664.53,365.00 667.24,365.00 669.95,365.00 672.66,365.00 675.37,365.00 678.08,365.00 680.79,365.00 683.49,365.00 686.20,365.00 688.91,365.00 691.62,365.00 694.33,365.00 697.04,365.00 699.75,365.00 702.46,365.00 705.17,365.00 707.88,365.00 710.59,365.00 713.29,365.00 716.00,365.00 718.71,365.00 721.42,365.00 724.13,365.00 726.84,365.00 729.55,365.00 732.26,365.00 734.97,365.00 737.68,365.00 740.38,365.00 743.09,365.00 745.80,365.00 748.51,365.00 751.22,365.00 753.93,365.00 756.64,365.00 759.35,365.00 762.06,365.00 764.77,365.00 767.47,365.00 770.18,365.00 772.89,365.00 775.60,365.00 778.31,365.00 781.02,365.00 783.73,365.00 786.44,365.00 789.15,365.00 791.86,365.00 794.57,365.00 797.27,365.00 799.98,365.00 802.69,365.00 805.40,365.00 808.11,365.00 810.82,365.00 813.53,365.00 816.24,365.00 818.95,365.00 821.66,365.00 824.36,365.00 827.07,365.00 829.78,365.00 832.49,365.00 835.20,365.00 837.91,365.00 840.62,365.00 843.33,365.00 846.04,365.00 848.75,365.00 851.45,365.00 854.16,365.00 856.87,365.00 859.58,365.00 862.29,365.00 865.00,365.00" fill="none" stroke="#0b5fff" stroke-width="2.2"/>
<polyline points="55.00,365.00 57.71,55.00 60.42,55.00 63.13,55.00 65.84,55.00 68.55,55.00 71.25,55.00 73.96,55.00 76.67,55.00 79.38,55.00 82.09,55.00 84.80,55.00 87.51,55.00 90.22,55.00 92.93,55.00 95.64,55.00 98.34,55.00 101.05,55.00 103.76,83.40 106.47,127.25 109.18,171.10 111.89,214.96 114.60,258.81 117.31,302.66 120.02,346.51 122.73,365.00 125.43,365.00 128.14,365.00 130.85,365.00 133.56,365.00 136.27,365.00 138.98,365.00 141.69,365.00 144.40,365.00 147.11,365.00 149.82,365.00 152.53,365.00 155.23,365.00 157.94,365.00 160.65,365.00 163.36,365.00 166.07,365.00 168.78,365.00 171.49,365.00 174.20,365.00 176.91,365.00 179.62,365.00 182.32,365.00 185.03,365.00 187.74,365.00 190.45,365.00 193.16,365.00 195.87,365.00 198.58,365.00 201.29,365.00 204.00,365.00 206.71,365.00 209.41,365.00 212.12,365.00 214.83,365.00 217.54,365.00 220.25,365.00 222.96,365.00 225.67,365.00 228.38,365.00 231.09,365.00 233.80,365.00 236.51,365.00 239.21,365.00 241.92,365.00 244.63,365.00 247.34,365.00 250.05,365.00 252.76,365.00 255.47,365.00 258.18,365.00 260.89,365.00 263.60,365.00 266.30,365.00 269.01,365.00 271.72,365.00 274.43,365.00 277.14,365.00 279.85,365.00 282.56,365.00 285.27,365.00 287.98,365.00 290.69,365.00 293.39,365.00 296.10,365.00 298.81,365.00 301.52,365.00 304.23,365.00 306.94,365.00 309.65,365.00 312.36,365.00 315.07,365.00 317.78,365.00 320.48,365.00 323.19,365.00 325.90,365.00 328.61,365.00 331.32,365.00 334.03,365.00 336.74,365.00 339.45,365.00 342.16,365.00 344.87,365.00 347.58,365.00 350.28,365.00 352.99,365.00 355.70,365.00 358.41,365.00 361.12,365.00 363.83,365.00 366.54,365.00 369.25,365.00 371.96,365.00 374.67,365.00 377.37,365.00 380.08,365.00 382.79,365.00 385.50,365.00 388.21,365.00 390.92,365.00 393.63,365.00 396.34,365.00 399.05,365.00 401.76,365.00 404.46,365.00 407.17,365.00 409.88,365.00 412.59,365.00 415.30,365.00 418.01,365.00 420.72,365.00 423.43,365.00 426.14,365.00 428.85,365.00 431.56,365.00 434.26,365.00 436.97,365.00 439.68,365.00 442.39,365.00 445.10,365.00 447.81,365.00 450.52,365.00 453.23,365.00 455.94,365.00 458.65,365.00 461.35,365.00 464.06,365.00 466.77,365.00 469.48,365.00 472.19,365.00 474.90,365.00 477.61,365.00 480.32,365.00 483.03,365.00 485.74,365.00 488.44,365.00 491.15,365.00 493.86,365.00 496.57,365.00 499.28,365.00 501.99,365.00 504.70,365.00 507.41,365.00 510.12,365.00 512.83,365.00 515.54,365.00 518.24,365.00 520.95,365.00 523.66,365.00 526.37,365.00 529.08,365.00 531.79,365.00 534.50,365.00 537.21,365.00 539.92,365.00 542.63,365.00 545.33,365.00 548.04,365.00 550.75,365.00 553.46,365.00 556.17,365.00 558.88,365.00 561.59,365.00 564.30,365.00 567.01,365.00 569.72,365.00 572.42,365.00 575.13,365.00 577.84,365.00 580.55,365.00 583.26,365.00 585.97,365.00 588.68,365.00 591.39,365.00 594.10,365.00 596.81,365.00 599.52,365.00 602.22,365.00 604.93,365.00 607.64,365.00 610.35,365.00 613.06,365.00 615.77,365.00 618.48,365.00 621.19,365.00 623.90,365.00 626.61,365.00 629.31,365.00 632.02,365.00 634.73,365.00 637.44,365.00 640.15,365.00 642.86,365.00 645.57,365.00 648.28,365.00 650.99,365.00 653.70,365.00 656.40,365.00 659.11,365.00 661.82,365.00 664.53,365.00 667.24,365.00 669.95,365.00 672.66,365.00 675.37,365.00 678.08,365.00 680.79,365.00 683.49,365.00 686.20,365.00 688.91,365.00 691.62,365.00 694.33,365.00 697.04,365.00 699.75,365.00 702.46,365.00 705.17,365.00 707.88,365.00 710.59,365.00 713.29,365.00 716.00,365.00 718.71,365.00 721.42,365.00 724.13,365.00 726.84,365.00 729.55,365.00 732.26,365.00 734.97,365.00 737.68,365.00 740.38,365.00 743.09,365.00 745.80,365.00 748.51,365.00 751.22,365.00 753.93,365.00 756.64,365.00 759.35,365.00 762.06,365.00 764.77,365.00 767.47,365.00 770.18,365.00 772.89,365.00 775.60,365.00 778.31,365.00 781.02,365.00 783.73,365.00 786.44,365.00 789.15,365.00 791.86,365.00 794.57,365.00 797.27,365.00 799.98,365.00 802.69,365.00 805.40,365.00 808.11,365.00 810.82,365.00 813.53,365.00 816.24,365.00 818.95,365.00 821.66,365.00 824.36,365.00 827.07,365.00 829.78,365.00 832.49,365.00 835.20,365.00 837.91,365.00 840.62,365.00 843.33,365.00 846.04,365.00 848.75,365.00 851.45,365.00 854.16,365.00 856.87,365.00 859.58,365.00 862.29,365.00 865.00,365.00" fill="none" stroke="#0b5fff" stroke-width="2.2" stroke-dasharray="6,4"/>
<text x="620" y="55" font-size="12" font-family="Consolas, monospace" fill="#0b5fff">adolescente</text>
<polyline points="55.00,365.00 57.71,365.00 60.42,365.00 63.13,365.00 65.84,365.00 68.55,365.00 71.25,365.00 73.96,365.00 76.67,365.00 79.38,365.00 82.09,365.00 84.80,365.00 87.51,365.00 90.22,365.00 92.93,365.00 95.64,365.00 98.34,365.00 101.05,365.00 103.76,365.00 106.47,365.00 109.18,365.00 111.89,365.00 114.60,365.00 117.31,365.00 120.02,365.00 122.73,365.00 125.43,365.00 128.14,365.00 130.85,365.00 133.56,365.00 136.27,365.00 138.98,365.00 141.69,365.00 144.40,365.00 147.11,365.00 149.82,365.00 152.53,365.00 155.23,361.63 157.94,344.78 160.65,327.93 163.36,311.09 166.07,294.24 168.78,277.39 171.49,260.54 174.20,243.70 176.91,226.85 179.62,210.00 182.32,193.15 185.03,176.30 187.74,159.46 190.45,142.61 193.16,125.76 195.87,108.91 198.58,92.07 201.29,75.22 204.00,58.37 206.71,55.00 209.41,55.00 212.12,55.00 214.83,55.00 217.54,55.00 220.25,55.00 222.96,55.00 225.67,55.00 228.38,55.00 231.09,55.00 233.80,55.00 236.51,55.00 239.21,55.00 241.92,55.00 244.63,55.00 247.34,55.00 250.05,55.00 252.76,55.00 255.47,55.00 258.18,55.00 260.89,55.00 263.60,55.00 266.30,55.00 269.01,55.00 271.72,55.00 274.43,55.00 277.14,55.00 279.85,55.00 282.56,55.00 285.27,55.00 287.98,55.00 290.69,55.00 293.39,55.00 296.10,55.00 298.81,55.00 301.52,55.00 304.23,55.00 306.94,55.00 309.65,55.00 312.36,55.00 315.07,55.00 317.78,55.00 320.48,55.00 323.19,55.00 325.90,55.00 328.61,55.00 331.32,55.00 334.03,55.00 336.74,55.00 339.45,55.00 342.16,55.00 344.87,55.00 347.58,55.00 350.28,55.00 352.99,55.00 355.70,61.74 358.41,72.97 361.12,84.20 363.83,95.43 366.54,106.67 369.25,117.90 371.96,129.13 374.67,140.36 377.37,151.59 380.08,162.83 382.79,174.06 385.50,185.29 388.21,196.52 390.92,207.75 393.63,218.99 396.34,230.22 399.05,241.45 401.76,252.68 404.46,263.91 407.17,275.14 409.88,286.38 412.59,297.61 415.30,308.84 418.01,320.07 420.72,331.30 423.43,342.54 426.14,353.77 428.85,365.00 431.56,365.00 434.26,365.00 436.97,365.00 439.68,365.00 442.39,365.00 445.10,365.00 447.81,365.00 450.52,365.00 453.23,365.00 455.94,365.00 458.65,365.00 461.35,365.00 464.06,365.00 466.77,365.00 469.48,365.00 472.19,365.00 474.90,365.00 477.61,365.00 480.32,365.00 483.03,365.00 485.74,365.00 488.44,365.00 491.15,365.00 493.86,365.00 496.57,365.00 499.28,365.00 501.99,365.00 504.70,365.00 507.41,365.00 510.12,365.00 512.83,365.00 515.54,365.00 518.24,365.00 520.95,365.00 523.66,365.00 526.37,365.00 529.08,365.00 531.79,365.00 534.50,365.00 537.21,365.00 539.92,365.00 542.63,365.00 545.33,365.00 548.04,365.00 550.75,365.00 553.46,365.00 556.17,365.00 558.88,365.00 561.59,365.00 564.30,365.00 567.01,365.00 569.72,365.00 572.42,365.00 575.13,365.00 577.84,365.00 580.55,365.00 583.26,365.00 585.97,365.00 588.68,365.00 591.39,365.00 594.10,365.00 596.81,365.00 599.52,365.00 602.22,365.00 604.93,365.00 607.64,365.00 610.35,365.00 613.06,365.00 615.77,365.00 618.48,365.00 621.19,365.00 623.90,365.00 626.61,365.00 629.31,365.00 632.02,365.00 634.73,365.00 637.44,365.00 640.15,365.00 642.86,365.00 645.57,365.00 648.28,365.00 650.99,365.00 653.70,365.00 656.40,365.00 659.11,365.00 661.82,365.00 664.53,365.00 667.24,365.00 669.95,365.00 672.66,365.00 675.37,365.00 678.08,365.00 680.79,365.00 683.49,365.00 686.20,365.00 688.91,365.00 691.62,365.00 694.33,365.00 697.04,365.00 699.75,365.00 702.46,365.00 705.17,365.00 707.88,365.00 710.59,365.00 713.29,365.00 716.00,365.00 718.71,365.00 721.42,365.00 724.13,365.00 726.84,365.00 729.55,365.00 732.26,365.00 734.97,365.00 737.68,365.00 740.38,365.00 743.09,365.00 745.80,365.00 748.51,365.00 751.22,365.00 753.93,365.00 756.64,365.00 759.35,365.00 762.06,365.00 764.77,365.00 767.47,365.00 770.18,365.00 772.89,365.00 775.60,365.00 778.31,365.00 781.02,365.00 783.73,365.00 786.44,365.00 789.15,365.00 791.86,365.00 794.57,365.00 797.27,365.00 799.98,365.00 802.69,365.00 805.40,365.00 808.11,365.00 810.82,365.00 813.53,365.00 816.24,365.00 818.95,365.00 821.66,365.00 824.36,365.00 827.07,365.00 829.78,365.00 832.49,365.00 835.20,365.00 837.91,365.00 840.62,365.00 843.33,365.00 846.04,365.00 848.75,365.00 851.45,365.00 854.16,365.00 856.87,365.00 859.58,365.00 862.29,365.00 865.00,365.00" fill="none" stroke="#009688" stroke-width="2.2"/>
<polyline points="55.00,365.00 57.71,365.00 60.42,365.00 63.13,365.00 65.84,365.00 68.55,365.00 71.25,365.00 73.96,365.00 76.67,365.00 79.38,365.00 82.09,365.00 84.80,365.00 87.51,365.00 90.22,365.00 92.93,365.00 95.64,365.00 98.34,365.00 101.05,365.00 103.76,365.00 106.47,358.44 109.18,350.75 111.89,343.06 114.60,335.37 117.31,327.68 120.02,319.99 122.73,312.31 125.43,304.62 128.14,296.93 130.85,289.24 133.56,281.55 136.27,273.86 138.98,266.18 141.69,258.49 144.40,250.80 147.11,243.11 149.82,235.42 152.53,227.73 155.23,220.05 157.94,212.36 160.65,204.67 163.36,196.98 166.07,189.29 168.78,181.60 171.49,173.92 174.20,166.23 176.91,158.54 179.62,150.85 182.32,143.16 185.03,135.47 187.74,127.79 190.45,120.10 193.16,112.41 195.87,104.72 198.58,97.03 201.29,89.34 204.00,81.66 206.71,73.97 209.41,66.28 212.12,58.59 214.83,55.00 217.54,55.00 220.25,55.00 222.96,55.00 225.67,55.00 228.38,55.00 231.09,55.00 233.80,55.00 236.51,55.00 239.21,55.00 241.92,55.00 244.63,55.00 247.34,55.00 250.05,55.00 252.76,55.00 255.47,55.00 258.18,55.00 260.89,55.00 263.60,55.00 266.30,55.00 269.01,55.00 271.72,55.00 274.43,55.00 277.14,55.00 279.85,55.00 282.56,55.00 285.27,55.00 287.98,55.00 290.69,55.00 293.39,55.00 296.10,55.00 298.81,55.00 301.52,55.00 304.23,55.00 306.94,55.00 309.65,55.00 312.36,55.00 315.07,55.00 317.78,55.00 320.48,55.00 323.19,55.00 325.90,55.00 328.61,55.00 331.32,55.00 334.03,55.00 336.74,55.00 339.45,55.00 342.16,55.00 344.87,55.00 347.58,55.00 350.28,55.00 352.99,62.61 355.70,75.06 358.41,87.50 361.12,99.95 363.83,112.39 366.54,124.84 369.25,137.28 371.96,149.73 374.67,162.18 377.37,174.62 380.08,187.07 382.79,199.51 385.50,211.96 388.21,224.40 390.92,236.85 393.63,249.29 396.34,261.74 399.05,274.18 401.76,286.63 404.46,299.07 407.17,311.52 409.88,323.96 412.59,336.41 415.30,348.85 418.01,361.30 420.72,365.00 423.43,365.00 426.14,365.00 428.85,365.00 431.56,365.00 434.26,365.00 436.97,365.00 439.68,365.00 442.39,365.00 445.10,365.00 447.81,365.00 450.52,365.00 453.23,365.00 455.94,365.00 458.65,365.00 461.35,365.00 464.06,365.00 466.77,365.00 469.48,365.00 472.19,365.00 474.90,365.00 477.61,365.00 480.32,365.00 483.03,365.00 485.74,365.00 488.44,365.00 491.15,365.00 493.86,365.00 496.57,365.00 499.28,365.00 501.99,365.00 504.70,365.00 507.41,365.00 510.12,365.00 512.83,365.00 515.54,365.00 518.24,365.00 520.95,365.00 523.66,365.00 526.37,365.00 529.08,365.00 531.79,365.00 534.50,365.00 537.21,365.00 539.92,365.00 542.63,365.00 545.33,365.00 548.04,365.00 550.75,365.00 553.46,365.00 556.17,365.00 558.88,365.00 561.59,365.00 564.30,365.00 567.01,365.00 569.72,365.00 572.42,365.00 575.13,365.00 577.84,365.00 580.55,365.00 583.26,365.00 585.97,365.00 588.68,365.00 591.39,365.00 594.10,365.00 596.81,365.00 599.52,365.00 602.22,365.00 604.93,365.00 607.64,365.00 610.35,365.00 613.06,365.00 615.77,365.00 618.48,365.00 621.19,365.00 623.90,365.00 626.61,365.00 629.31,365.00 632.02,365.00 634.73,365.00 637.44,365.00 640.15,365.00 642.86,365.00 645.57,365.00 648.28,365.00 650.99,365.00 653.70,365.00 656.40,365.00 659.11,365.00 661.82,365.00 664.53,365.00 667.24,365.00 669.95,365.00 672.66,365.00 675.37,365.00 678.08,365.00 680.79,365.00 683.49,365.00 686.20,365.00 688.91,365.00 691.62,365.00 694.33,365.00 697.04,365.00 699.75,365.00 702.46,365.00 705.17,365.00 707.88,365.00 710.59,365.00 713.29,365.00 716.00,365.00 718.71,365.00 721.42,365.00 724.13,365.00 726.84,365.00 729.55,365.00 732.26,365.00 734.97,365.00 737.68,365.00 740.38,365.00 743.09,365.00 745.80,365.00 748.51,365.00 751.22,365.00 753.93,365.00 756.64,365.00 759.35,365.00 762.06,365.00 764.77,365.00 767.47,365.00 770.18,365.00 772.89,365.00 775.60,365.00 778.31,365.00 781.02,365.00 783.73,365.00 786.44,365.00 789.15,365.00 791.86,365.00 794.57,365.00 797.27,365.00 799.98,365.00 802.69,365.00 805.40,365.00 808.11,365.00 810.82,365.00 813.53,365.00 816.24,365.00 818.95,365.00 821.66,365.00 824.36,365.00 827.07,365.00 829.78,365.00 832.49,365.00 835.20,365.00 837.91,365.00 840.62,365.00 843.33,365.00 846.04,365.00 848.75,365.00 851.45,365.00 854.16,365.00 856.87,365.00 859.58,365.00 862.29,365.00 865.00,365.00" fill="none" stroke="#009688" stroke-width="2.2" stroke-dasharray="6,4"/>
<text x="620" y="73" font-size="12" font-family="Consolas, monospace" fill="#009688">adulta</text>
<polyline points="55.00,365.00 57.71,365.00 60.42,365.00 63.13,365.00 65.84,365.00 68.55,365.00 71.25,365.00 73.96,365.00 76.67,365.00 79.38,365.00 82.09,365.00 84.80,365.00 87.51,365.00 90.22,365.00 92.93,365.00 95.64,365.00 98.34,365.00 101.05,365.00 103.76,365.00 106.47,365.00 109.18,365.00 111.89,365.00 114.60,365.00 117.31,365.00 120.02,365.00 122.73,365.00 125.43,365.00 128.14,365.00 130.85,365.00 133.56,365.00 136.27,365.00 138.98,365.00 141.69,365.00 144.40,365.00 147.11,365.00 149.82,365.00 152.53,365.00 155.23,365.00 157.94,365.00 160.65,365.00 163.36,365.00 166.07,365.00 168.78,365.00 171.49,365.00 174.20,365.00 176.91,365.00 179.62,365.00 182.32,365.00 185.03,365.00 187.74,365.00 190.45,365.00 193.16,365.00 195.87,365.00 198.58,365.00 201.29,365.00 204.00,365.00 206.71,365.00 209.41,365.00 212.12,365.00 214.83,365.00 217.54,365.00 220.25,365.00 222.96,365.00 225.67,365.00 228.38,365.00 231.09,365.00 233.80,365.00 236.51,365.00 239.21,365.00 241.92,365.00 244.63,365.00 247.34,365.00 250.05,365.00 252.76,365.00 255.47,365.00 258.18,365.00 260.89,365.00 263.60,365.00 266.30,365.00 269.01,365.00 271.72,365.00 274.43,365.00 277.14,365.00 279.85,365.00 282.56,365.00 285.27,365.00 287.98,365.00 290.69,365.00 293.39,365.00 296.10,365.00 298.81,365.00 301.52,365.00 304.23,365.00 306.94,365.00 309.65,365.00 312.36,365.00 315.07,365.00 317.78,365.00 320.48,365.00 323.19,365.00 325.90,365.00 328.61,365.00 331.32,365.00 334.03,365.00 336.74,365.00 339.45,365.00 342.16,365.00 344.87,365.00 347.58,365.00 350.28,365.00 352.99,365.00 355.70,365.00 358.41,365.00 361.12,365.00 363.83,365.00 366.54,365.00 369.25,351.52 371.96,338.04 374.67,324.57 377.37,311.09 380.08,297.61 382.79,284.13 385.50,270.65 388.21,257.17 390.92,243.70 393.63,230.22 396.34,216.74 399.05,203.26 401.76,189.78 404.46,176.30 407.17,162.83 409.88,149.35 412.59,135.87 415.30,122.39 418.01,108.91 420.72,95.43 423.43,81.96 426.14,68.48 428.85,55.00 431.56,55.00 434.26,55.00 436.97,55.00 439.68,55.00 442.39,55.00 445.10,55.00 447.81,55.00 450.52,55.00 453.23,55.00 455.94,55.00 458.65,55.00 461.35,55.00 464.06,55.00 466.77,55.00 469.48,55.00 472.19,55.00 474.90,55.00 477.61,55.00 480.32,55.00 483.03,55.00 485.74,55.00 488.44,55.00 491.15,55.00 493.86,55.00 496.57,55.00 499.28,55.00 501.99,55.00 504.70,55.00 507.41,55.00 510.12,55.00 512.83,55.00 515.54,55.00 518.24,55.00 520.95,55.00 523.66,55.00 526.37,55.00 529.08,55.00 531.79,55.00 534.50,55.00 537.21,55.00 539.92,55.00 542.63,55.00 545.33,55.00 548.04,55.00 550.75,55.00 553.46,55.00 556.17,55.00 558.88,55.00 561.59,55.00 564.30,55.00 567.01,55.00 569.72,55.00 572.42,55.00 575.13,55.00 577.84,55.00 580.55,55.00 583.26,55.00 585.97,55.00 588.68,55.00 591.39,55.00 594.10,55.00 596.81,55.00 599.52,55.00 602.22,55.00 604.93,55.00 607.64,55.00 610.35,55.00 613.06,55.00 615.77,55.00 618.48,55.00 621.19,55.00 623.90,55.00 626.61,55.00 629.31,55.00 632.02,55.00 634.73,55.00 637.44,55.00 640.15,55.00 642.86,55.00 645.57,55.00 648.28,55.00 650.99,55.00 653.70,55.00 656.40,55.00 659.11,55.00 661.82,55.00 664.53,55.00 667.24,55.00 669.95,55.00 672.66,55.00 675.37,55.00 678.08,55.00 680.79,55.00 683.49,55.00 686.20,55.00 688.91,55.00 691.62,55.00 694.33,55.00 697.04,55.00 699.75,55.00 702.46,55.00 705.17,55.00 707.88,55.00 710.59,55.00 713.29,55.00 716.00,55.00 718.71,55.00 721.42,55.00 724.13,55.00 726.84,55.00 729.55,55.00 732.26,55.00 734.97,55.00 737.68,55.00 740.38,55.00 743.09,55.00 745.80,55.00 748.51,55.00 751.22,55.00 753.93,55.00 756.64,55.00 759.35,55.00 762.06,55.00 764.77,55.00 767.47,55.00 770.18,55.00 772.89,55.00 775.60,55.00 778.31,55.00 781.02,55.00 783.73,55.00 786.44,55.00 789.15,55.00 791.86,55.00 794.57,55.00 797.27,55.00 799.98,55.00 802.69,55.00 805.40,55.00 808.11,55.00 810.82,55.00 813.53,55.00 816.24,55.00 818.95,55.00 821.66,55.00 824.36,55.00 827.07,55.00 829.78,55.00 832.49,55.00 835.20,55.00 837.91,55.00 840.62,55.00 843.33,55.00 846.04,55.00 848.75,55.00 851.45,55.00 854.16,55.00 856.87,55.00 859.58,55.00 862.29,55.00 865.00,55.00" fill="none" stroke="#ef6c00" stroke-width="2.2"/>
<polyline points="55.00,365.00 57.71,365.00 60.42,365.00 63.13,365.00 65.84,365.00 68.55,365.00 71.25,365.00 73.96,365.00 76.67,365.00 79.38,365.00 82.09,365.00 84.80,365.00 87.51,365.00 90.22,365.00 92.93,365.00 95.64,365.00 98.34,365.00 101.05,365.00 103.76,365.00 106.47,365.00 109.18,365.00 111.89,365.00 114.60,365.00 117.31,365.00 120.02,365.00 122.73,365.00 125.43,365.00 128.14,365.00 130.85,365.00 133.56,365.00 136.27,365.00 138.98,365.00 141.69,365.00 144.40,365.00 147.11,365.00 149.82,365.00 152.53,365.00 155.23,365.00 157.94,365.00 160.65,365.00 163.36,365.00 166.07,365.00 168.78,365.00 171.49,365.00 174.20,365.00 176.91,365.00 179.62,365.00 182.32,365.00 185.03,365.00 187.74,365.00 190.45,365.00 193.16,365.00 195.87,365.00 198.58,365.00 201.29,365.00 204.00,365.00 206.71,365.00 209.41,365.00 212.12,365.00 214.83,365.00 217.54,365.00 220.25,365.00 222.96,365.00 225.67,365.00 228.38,365.00 231.09,365.00 233.80,365.00 236.51,365.00 239.21,365.00 241.92,365.00 244.63,365.00 247.34,365.00 250.05,365.00 252.76,365.00 255.47,365.00 258.18,365.00 260.89,365.00 263.60,365.00 266.30,365.00 269.01,365.00 271.72,365.00 274.43,365.00 277.14,365.00 279.85,365.00 282.56,365.00 285.27,365.00 287.98,365.00 290.69,365.00 293.39,365.00 296.10,365.00 298.81,365.00 301.52,365.00 304.23,365.00 306.94,365.00 309.65,365.00 312.36,365.00 315.07,365.00 317.78,365.00 320.48,365.00 323.19,365.00 325.90,365.00 328.61,365.00 331.32,365.00 334.03,365.00 336.74,365.00 339.45,365.00 342.16,365.00 344.87,365.00 347.58,365.00 350.28,365.00 352.99,365.00 355.70,365.00 358.41,365.00 361.12,365.00 363.83,365.00 366.54,359.88 369.25,346.87 371.96,333.87 374.67,320.86 377.37,307.85 380.08,294.84 382.79,281.83 385.50,268.82 388.21,255.81 390.92,242.81 393.63,229.80 396.34,216.79 399.05,203.78 401.76,190.77 404.46,177.76 407.17,164.75 409.88,151.75 412.59,138.74 415.30,125.73 418.01,112.72 420.72,99.71 423.43,86.70 426.14,73.69 428.85,60.68 431.56,55.00 434.26,55.00 436.97,55.00 439.68,55.00 442.39,55.00 445.10,55.00 447.81,55.00 450.52,55.00 453.23,55.00 455.94,55.00 458.65,55.00 461.35,55.00 464.06,55.00 466.77,55.00 469.48,55.00 472.19,55.00 474.90,55.00 477.61,55.00 480.32,55.00 483.03,55.00 485.74,55.00 488.44,55.00 491.15,55.00 493.86,55.00 496.57,55.00 499.28,55.00 501.99,55.00 504.70,55.00 507.41,55.00 510.12,55.00 512.83,55.00 515.54,55.00 518.24,55.00 520.95,55.00 523.66,55.00 526.37,55.00 529.08,55.00 531.79,55.00 534.50,55.00 537.21,55.00 539.92,55.00 542.63,55.00 545.33,55.00 548.04,55.00 550.75,55.00 553.46,55.00 556.17,55.00 558.88,55.00 561.59,55.00 564.30,55.00 567.01,55.00 569.72,55.00 572.42,55.00 575.13,55.00 577.84,55.00 580.55,55.00 583.26,55.00 585.97,55.00 588.68,55.00 591.39,55.00 594.10,55.00 596.81,55.00 599.52,55.00 602.22,55.00 604.93,55.00 607.64,55.00 610.35,55.00 613.06,55.00 615.77,55.00 618.48,55.00 621.19,55.00 623.90,55.00 626.61,55.00 629.31,55.00 632.02,55.00 634.73,55.00 637.44,55.00 640.15,55.00 642.86,55.00 645.57,55.00 648.28,55.00 650.99,55.00 653.70,55.00 656.40,55.00 659.11,55.00 661.82,55.00 664.53,55.00 667.24,55.00 669.95,55.00 672.66,55.00 675.37,55.00 678.08,55.00 680.79,55.00 683.49,55.00 686.20,55.00 688.91,55.00 691.62,55.00 694.33,55.00 697.04,55.00 699.75,55.00 702.46,55.00 705.17,55.00 707.88,55.00 710.59,55.00 713.29,55.00 716.00,55.00 718.71,55.00 721.42,55.00 724.13,55.00 726.84,55.00 729.55,55.00 732.26,55.00 734.97,55.00 737.68,55.00 740.38,55.00 743.09,55.00 745.80,55.00 748.51,55.00 751.22,55.00 753.93,55.00 756.64,55.00 759.35,55.00 762.06,55.00 764.77,55.00 767.47,55.00 770.18,55.00 772.89,55.00 775.60,55.00 778.31,55.00 781.02,55.00 783.73,55.00 786.44,55.00 789.15,55.00 791.86,55.00 794.57,55.00 797.27,55.00 799.98,55.00 802.69,55.00 805.40,55.00 808.11,55.00 810.82,55.00 813.53,55.00 816.24,55.00 818.95,55.00 821.66,55.00 824.36,55.00 827.07,55.00 829.78,55.00 832.49,55.00 835.20,55.00 837.91,55.00 840.62,55.00 843.33,55.00 846.04,55.00 848.75,55.00 851.45,55.00 854.16,55.00 856.87,55.00 859.58,55.00 862.29,55.00 865.00,365.00" fill="none" stroke="#ef6c00" stroke-width="2.2" stroke-dasharray="6,4"/>
<text x="620" y="91" font-size="12" font-family="Consolas, monospace" fill="#ef6c00">avanzada</text>
<line x1="55.00" y1="365" x2="55.00" y2="371" stroke="#333" stroke-width="1"/>
<text x="43.00" y="387" font-size="12" font-family="Consolas, monospace">10.0</text>
<line x1="170.71" y1="365" x2="170.71" y2="371" stroke="#333" stroke-width="1"/>
<text x="158.71" y="387" font-size="12" font-family="Consolas, monospace">19.3</text>
<line x1="286.43" y1="365" x2="286.43" y2="371" stroke="#333" stroke-width="1"/>
<text x="274.43" y="387" font-size="12" font-family="Consolas, monospace">28.6</text>
<line x1="402.14" y1="365" x2="402.14" y2="371" stroke="#333" stroke-width="1"/>
<text x="390.14" y="387" font-size="12" font-family="Consolas, monospace">37.9</text>
<line x1="517.86" y1="365" x2="517.86" y2="371" stroke="#333" stroke-width="1"/>
<text x="505.86" y="387" font-size="12" font-family="Consolas, monospace">47.1</text>
<line x1="633.57" y1="365" x2="633.57" y2="371" stroke="#333" stroke-width="1"/>
<text x="621.57" y="387" font-size="12" font-family="Consolas, monospace">56.4</text>
<line x1="749.29" y1="365" x2="749.29" y2="371" stroke="#333" stroke-width="1"/>
<text x="737.29" y="387" font-size="12" font-family="Consolas, monospace">65.7</text>
<line x1="865.00" y1="365" x2="865.00" y2="371" stroke="#333" stroke-width="1"/>
<text x="853.00" y="387" font-size="12" font-family="Consolas, monospace">75.0</text>
</svg>