<svg xmlns="http://www.w3.org/2000/svg" width="920" height="420">
<rect width="920" height="420" fill="#ffffff"/>
<text x="55" y="28" font-size="20" font-family="Consolas, monospace">BodyTemp: inicial (solida) vs optimizada (punteada)</text>
<line x1="55" y1="365" x2="865" y2="365" stroke="#333" stroke-width="1.5"/>
<line x1="55" y1="55" x2="55" y2="365" stroke="#333" stroke-width="1.5"/>
<line x1="55" y1="365.00" x2="865" y2="365.00" stroke="#e0e0e0" stroke-width="1"/>
<text x="10" y="369.00" font-size="12" font-family="Consolas, monospace">0.0</text>
<line x1="55" y1="303.00" x2="865" y2="303.00" stroke="#e0e0e0" stroke-width="1"/>
<text x="10" y="307.00" font-size="12" font-family="Consolas, monospace">0.2</text>
<line x1="55" y1="241.00" x2="865" y2="241.00" stroke="#e0e0e0" stroke-width="1"/>
<text x="10" y="245.00" font-size="12" font-family="Consolas, monospace">0.4</text>
<line x1="55" y1="179.00" x2="865" y2="179.00" stroke="#e0e0e0" stroke-width="1"/>
<text x="10" y="183.00" font-size="12" font-family="Consolas, monospace">0.6</text>
<line x1="55" y1="117.00" x2="865" y2="117.00" stroke="#e0e0e0" stroke-width="1"/>
<text x="10" y="121.00" font-size="12" font-family="Consolas, monospace">0.8</text>
<line x1="55" y1="55.00" x2="865" y2="55.00" stroke="#e0e0e0" stroke-width="1"/>
<text x="10" y="59.00" font-size="12" font-family="Consolas, monospace">1.0</text>
<polyline points="55.00,365.00 57.71,350.48 60.42,335.97 63.13,321.45 65.84,306.94 68.55,292.42 71.25,277.91 73.96,263.39 76.67,248.88 79.38,234.36 82.09,219.85 84.80,205.33 87.51,190.82 90.22,176.30 92.93,161.79 95.64,147.27 98.34,132.76 101.05,118.24 103.76,103.73 106.47,89.21 109.18,74.70 111.89,60.18 114.60,55.00 117.31,55.00 120.02,55.00 122.73,55.00 125.43,55.00 128.14,55.00 130.85,55.00 133.56,55.00 136.27,55.00 138.98,55.00 141.69,55.00 144.40,55.00 147.11,55.00 149.82,55.00 152.53,55.00 155.23,55.00 157.94,55.00 160.65,55.00 163.36,55.00 166.07,55.00 168.78,55.00 171.49,55.00 174.20,55.00 176.91,55.00 179.62,55.00 182.32,55.00 185.03,55.00 187.74,55.00 190.45,55.00 193.16,55.00 195.87,55.00 198.58,55.00 201.29,55.00 204.00,55.00 206.71,55.00 209.41,55.00 212.12,55.00 214.83,55.00 217.54,55.00 220.25,55.00 222.96,55.00 225.67,55.00 228.38,55.00 231.09,55.00 233.80,55.00 236.51,55.00 239.21,55.00 241.92,55.00 244.63,55.00 247.34,55.00 250.05,55.00 252.76,55.00 255.47,55.00 258.18,55.00 260.89,55.00 263.60,55.00 266.30,55.00 269.01,55.00 271.72,55.00 274.43,55.00 277.14,55.00 279.85,55.00 282.56,55.00 285.27,55.00 287.98,55.00 290.69,55.00 293.39,55.00 296.10,55.00 298.81,59.35 301.52,73.87 304.23,88.38 306.94,102.90 309.65,117.41 312.36,131.93 315.07,146.44 317.78,160.96 320.48,175.47 323.19,189.99 325.90,204.51 328.61,219.02 331.32,233.54 334.03,248.05 336.74,262.57 339.45,277.08 342.16,291.60 344.87,306.11 347.58,320.63 350.28,335.14 352.99,349.66 355.70,364.17 358.41,365.00 361.12,365.00 363.83,365.00 366.54,365.00 369.25,365.00 371.96,365.00 374.67,365.00 377.37,365.00 380.08,365.00 382.79,365.00 385.50,365.00 388.21,365.00 390.92,365.00 393.63,365.00 396.34,365.00 399.05,365.00 401.76,365.00 404.46,365.00 407.17,365.00 409.88,365.00 412.59,365.00 415.30,365.00 418.01,365.00 420.72,365.00 423.43,365.00 426.14,365.00 428.85,365.00 431.56,365.00 434.26,365.00 436.97,365.00 439.68,365.00 442.39,365.00 445.10,365.00 447.81,365.00 450.52,365.00 453.23,365.00 455.94,365.00 458.65,365.00 461.35,365.00 464.06,365.00 466.77,365.00 469.48,365.00 472.19,365.00 474.90,365.00 477.61,365.00 480.32,365.00 483.03,365.00 485.74,365.00 488.44,365.00 491.15,365.00 493.86,365.00 496.57,365.00 499.28,365.00 501.99,365.00 504.70,365.00 507.41,365.00 510.12,365.00 512.83,365.00 515.54,365.00 518.24,365.00 520.95,365.00 523.66,365.00 526.37,365.00 529.08,365.00 531.79,365.00 534.50,365.00 537.21,365.00 539.92,365.00 542.63,365.00 545.33,365.00 548.04,365.00 550.75,365.00 553.46,365.00 556.17,365.00 558.88,365.00 561.59,365.00 564.30,365.00 567.01,365.00 569.72,365.00 572.42,365.00 575.13,365.00 577.84,365.00 580.55,365.00 583.26,365.00 585.97,365.00 588.68,365.00 591.39,365.00 594.10,365.00 596.81,365.00 599.52,365.00 602.22,365.00 604.93,365.00 607.64,365.00 610.35,365.00 613.06,365.00 615.77,365.00 618.48,365.00 621.19,365.00 623.90,365.00 626.61,365.00 629.31,365.00 632.02,365.00 634.73,365.00 637.44,365.00 640.15,365.00 642.86,365.00 645.57,365.00 648.28,365.00 650.99,365.00 653.70,365.00 656.40,365.00 659.11,365.00 661.82,365.00 664.53,365.00 667.24,365.00 669.95,365.00 672.66,365.00 675.37,365.00 678.08,365.00 680.79,365.00 683.49,365.00 686.20,365.00 688.91,365.00 691.62,365.00 694.33,365.00 697.04,365.00 699.75,365.00 702.46,365.00 705.17,365.00 707.88,365.00 710.59,365.00 713.29,365.00 716.00,365.00 718.71,365.00 721.42,365.00 724.13,365.00 726.84,365.00 729.55,365.00 732.26,365.00 734.97,365.00 737.68,365.00 740.38,365.00 743.09,365.00 745.80,365.00 748.51,365.00 751.22,365.00 753.93,365.00 756.64,365.00 759.35,365.00 762.06,365.00 764.77,365.00 767.47,365.00 770.18,365.00 772.89,365.00 775.60,365.00 778.31,365.00 781.02,365.00 783.73,365.00 786.44,365.00 789.15,365.00 791.86,365.00 794.57,365.00 797.27,365.00 799.98,365.00 802.69,365.00 805.40,365.00 808.11,365.00 810.82,365.00 813.53,365.00 816.24,365.00 818.95,365.00 821.66,365.00 824.36,365.00 827.07,365.00 829.78,365.00 832.49,365.00 835.20,365.00 837.91,365.00 840.62,365.00 843.33,365.00 846.04,365.00 848.75,365.00 851.45,365.00 854.16,365.00 856.87,365.00 859.58,365.00 862.29,365.00 865.00,365.00" fill="none" stroke="#0b5fff" stroke-width="2.2"/>
<polyline points="55.00,365.00 57.71,355.97 60.42,341.39 63.13,326.81 65.84,312.24 68.55,297.66 71.25,283.09 73.96,268.51 76.67,253.93 79.38,239.36 82.09,224.78 84.80,210.20 87.51,195.63 90.22,181.05 92.93,166.47 95.64,151.90 98.34,137.32 101.05,122.74 103.76,108.17 106.47,93.59 109.18,79.02 111.89,64.44 114.60,55.00 117.31,55.00 120.02,55.00 122.73,55.00 125.43,55.00 128.14,55.00 130.85,55.00 133.56,55.00 136.27,55.00 138.98,55.00 141.69,55.00 144.40,55.00 147.11,55.00 149.82,55.00 152.53,55.00 155.23,55.00 157.94,55.00 160.65,55.00 163.36,55.00 166.07,55.00 168.78,55.00 171.49,55.00 174.20,55.00 176.91,55.00 179.62,55.00 182.32,55.00 185.03,55.00 187.74,55.00 190.45,55.00 193.16,55.00 195.87,55.00 198.58,55.00 201.29,55.00 204.00,55.00 206.71,55.00 209.41,55.00 212.12,55.00 214.83,55.00 217.54,55.00 220.25,55.00 222.96,55.00 225.67,55.00 228.38,55.00 231.09,55.00 233.80,55.00 236.51,55.00 239.21,55.00 241.92,55.00 244.63,55.00 247.34,55.00 250.05,55.00 252.76,55.00 255.47,55.00 258.18,55.00 260.89,55.00 263.60,55.00 266.30,55.00 269.01,55.00 271.72,55.00 274.43,55.00 277.14,55.00 279.85,55.00 282.56,55.00 285.27,55.00 287.98,55.00 290.69,55.00 293.39,55.00 296.10,60.48 298.81,74.87 301.52,89.25 304.23,103.64 306.94,118.02 309.65,132.41 312.36,146.80 315.07,161.18 317.78,175.57 320.48,189.95 323.19,204.34 325.90,218.72 328.61,233.11 331.32,247.49 334.03,261.88 336.74,276.27 339.45,290.65 342.16,305.04 344.87,319.42 347.58,333.81 350.28,348.19 352.99,362.58 355.70,365.00 358.41,365.00 361.12,365.00 363.83,365.00 366.54,365.00 369.25,365.00 371.96,365.00 374.67,365.00 377.37,365.00 380.08,365.00 382.79,365.00 385.50,365.00 388.21,365.00 390.92,365.00 393.63,365.00 396.34,365.00 399.05,365.00 401.76,365.00 404.46,365.00 407.17,365.00 409.88,365.00 412.59,365.00 415.30,365.00 418.01,365.00 420.72,365.00 423.43,365.00 426.14,365.00 428.85,365.00 431.56,365.00 434.26,365.00 436.97,365.00 439.68,365.00 442.39,365.00 445.10,365.00 447.81,365.00 450.52,365.00 453.23,365.00 455.94,365.00 458.65,365.00 461.35,365.00 464.06,365.00 466.77,365.00 469.48,365.00 472.19,365.00 474.90,365.00 477.61,365.00 480.32,365.00 483.03,365.00 485.74,365.00 488.44,365.00 491.15,365.00 493.86,365.00 496.57,365.00 499.28,365.00 501.99,365.00 504.70,365.00 507.41,365.00 510.12,365.00 512.83,365.00 515.54,365.00 518.24,365.00 520.95,365.00 523.66,365.00 526.37,365.00 529.08,365.00 531.79,365.00 534.50,365.00 537.21,365.00 539.92,365.00 542.63,365.00 545.33,365.00 548.04,365.00 550.75,365.00 553.46,365.00 556.17,365.00 558.88,365.00 561.59,365.00 564.30,365.00 567.01,365.00 569.72,365.00 572.42,365.00 575.13,365.00 577.84,365.00 580.55,365.00 583.26,365.00 585.97,365.00 588.68,365.00 591.39,365.00 594.10,365.00 596.81,365.00 599.52,365.00 602.22,365.00 604.93,365.00 607.64,365.00 610.35,365.00 613.06,365.00 615.77,365.00 618.48,365.00 621.19,365.00 623.90,365.00 626.61,365.00 629.31,365.00 632.02,365.00 634.73,365.00 637.44,365.00 640.15,365.00 642.86,365.00 645.57,365.00 648.28,365.00 650.99,365.00 653.70,365.00 656.40,365.00 659.11,365.00 661.82,365.00 664.53,365.00 667.24,365.00 669.95,365.00 672.66,365.00 675.37,365.00 678.08,365.00 680.79,365.00 683.49,365.00 686.20,365.00 688.91,365.00 691.62,365.00 694.33,365.00 697.04,365.00 699.75,365.00 702.46,365.00 705.17,365.00 707.88,365.00 710.59,365.00 713.29,365.00 716.00,365.00 718.71,365.00 721.42,365.00 724.13,365.00 726.84,365.00 729.55,365.00 732.26,365.00 734.97,365.00 737.68,365.00 740.38,365.00 743.09,365.00 745.80,365.00 748.51,365.00 751.22,365.00 753.93,365.00 756.64,365.00 759.35,365.00 762.06,365.00 764.77,365.00 767.47,365.00 770.18,365.00 772.89,365.00 775.60,365.00 778.31,365.00 781.02,365.00 783.73,365.00 786.44,365.00 789.15,365.00 791.86,365.00 794.57,365.00 797.27,365.00 799.98,365.00 802.69,365.00 805.40,365.00 808.11,365.00 810.82,365.00 813.53,365.00 816.24,365.00 818.95,365.00 821.66,365.00 824.36,365.00 827.07,365.00 829.78,365.00 832.49,365.00 835.20,365.00 837.91,365.00 840.62,365.00 843.33,365.00 846.04,365.00 848.75,365.00 851.45,365.00 854.16,365.00 856.87,365.00 859.58,365.00 862.29,365.00 865.00,365.00" fill="none" stroke="#0b5fff" stroke-width="2.2" stroke-dasharray="6,4"/>
<text x="620" y="55" font-size="12" font-family="Consolas, monospace" fill="#0b5fff">normal</text>
<polyline points="55.00,365.00 57.71,365.00 60.42,365.00 63.13,365.00 65.84,365.00 68.55,365.00 71.25,365.00 73.96,365.00 76.67,365.00 79.38,365.00 82.09,365.00 84.80,365.00 87.51,365.00 90.22,365.00 92.93,365.00 95.64,365.00 98.34,365.00 101.05,365.00 103.76,365.00 106.47,365.00 109.18,365.00 111.89,365.00 114.60,365.00 117.31,365.00 120.02,365.00 122.73,365.00 125.43,365.00 128.14,365.00 130.85,365.00 133.56,365.00 136.27,365.00 138.98,365.00 141.69,365.00 144.40,365.00 147.11,365.00 149.82,365.00 152.53,365.00 155.23,365.00 157.94,365.00 160.65,365.00 163.36,365.00 166.07,365.00 168.78,365.00 171.49,365.00 174.20,365.00 176.91,365.00 179.62,365.00 182.32,365.00 185.03,365.00 187.74,365.00 190.45,365.00 193.16,365.00 195.87,365.00 198.58,365.00 201.29,365.00 204.00,365.00 206.71,365.00 209.41,365.00 212.12,365.00 214.83,365.00 217.54,365.00 220.25,365.00 222.96,365.00 225.67,365.00 228.38,365.00 231.09,365.00 233.80,365.00 236.51,365.00 239.21,365.00 241.92,365.00 244.63,365.00 247.34,365.00 250.05,365.00 252.76,365.00 255.47,365.00 258.18,365.00 260.89,365.00 263.60,365.00 266.30,365.00 269.01,365.00 271.72,365.00 274.43,365.00 277.14,365.00 279.85,365.00 282.56,365.00 285.27,365.00 287.98,365.00 290.69,365.00 293.39,365.00 296.10,365.00 298.81,365.00 301.52,365.00 304.23,365.00 306.94,365.00 309.65,364.48 312.36,346.34 315.07,328.19 317.78,310.05 320.48,291.91 323.19,273.76 325.90,255.62 328.61,237.47 331.32,219.33 334.03,201.19 336.74,183.04 339.45,164.90 342.16,146.76 344.87,128.61 347.58,110.47 350.28,92.32 352.99,74.18 355.70,56.04 358.41,55.00 361.12,55.00 363.83,55.00 366.54,55.00 369.25,55.00 371.96,55.00 374.67,55.00 377.37,55.00 380.08,55.00 382.79,55.00 385.50,55.00 388.21,55.00 390.92,55.00 393.63,55.00 396.34,55.00 399.05,55.00 401.76,55.00 404.46,55.00 407.17,55.00 409.88,55.00 412.59,55.00 415.30,55.00 418.01,55.00 420.72,55.00 423.43,55.00 426.14,59.56 428.85,74.08 431.56,88.59 434.26,103.11 436.97,117.62 439.68,132.14 442.39,146.65 445.10,161.17 447.81,175.68 450.52,190.20 453.23,204.71 455.94,219.23 458.65,233.74 461.35,248.26 464.06,262.77 466.77,277.29 469.48,291.80 472.19,306.32 474.90,320.83 477.61,335.35 480.32,349.86 483.03,364.38 485.74,365.00 488.44,365.00 491.15,365.00 493.86,365.00 496.57,365.00 499.28,365.00 501.99,365.00 504.70,365.00 507.41,365.00 510.12,365.00 512.83,365.00 515.54,365.00 518.24,365.00 520.95,365.00 523.66,365.00 526.37,365.00 529.08,365.00 531.79,365.00 534.50,365.00 537.21,365.00 539.92,365.00 542.63,365.00 545.33,365.00 548.04,365.00 550.75,365.00 553.46,365.00 556.17,365.00 558.88,365.00 561.59,365.00 564.30,365.00 567.01,365.00 569.72,365.00 572.42,365.00 575.13,365.00 577.84,365.00 580.55,365.00 583.26,365.00 585.97,365.00 588.68,365.00 591.39,365.00 594.10,365.00 596.81,365.00 599.52,365.00 602.22,365.00 604.93,365.00 607.64,365.00 610.35,365.00 613.06,365.00 615.77,365.00 618.48,365.00 621.19,365.00 623.90,365.00 626.61,365.00 629.31,365.00 632.02,365.00 634.73,365.00 637.44,365.00 640.15,365.00 642.86,365.00 645.57,365.00 648.28,365.00 650.99,365.00 653.70,365.00 656.40,365.00 659.11,365.00 661.82,365.00 664.53,365.00 667.24,365.00 669.95,365.00 672.66,365.00 675.37,365.00 678.08,365.00 680.79,365.00 683.49,365.00 686.20,365.00 688.91,365.00 691.62,365.00 694.33,365.00 697.04,365.00 699.75,365.00 702.46,365.00 705.17,365.00 707.88,365.00 710.59,365.00 713.29,365.00 716.00,365.00 718.71,365.00 721.42,365.00 724.13,365.00 726.84,365.00 729.55,365.00 732.26,365.00 734.97,365.00 737.68,365.00 740.38,365.00 743.09,365.00 745.80,365.00 748.51,365.00 751.22,365.00 753.93,365.00 756.64,365.00 759.35,365.00 762.06,365.00 764.77,365.00 767.47,365.00 770.18,365.00 772.89,365.00 775.60,365.00 778.31,365.00 781.02,365.00 783.73,365.00 786.44,365.00 789.15,365.00 791.86,365.00 794.57,365.00 797.27,365.00 799.98,365.00 802.69,365.00 805.40,365.00 808.11,365.00 810.82,365.00 813.53,365.00 816.24,365.00 818.95,365.00 821.66,365.00 824.36,365.00 827.07,365.00 829.78,365.00 832.49,365.00 835.20,365.00 837.91,365.00 840.62,365.00 843.33,365.00 846.04,365.00 848.75,365.00 851.45,365.00 854.16,365.00 856.87,365.00 859.58,365.00 862.29,365.00 865.00,365.00" fill="none" stroke="#009688" stroke-width="2.2"/>
<polyline points="55.00,365.00 57.71,365.00 60.42,365.00 63.13,365.00 65.84,365.00 68.55,365.00 71.25,365.00 73.96,365.00 76.67,365.00 79.38,365.00 82.09,365.00 84.80,365.00 87.51,365.00 90.22,365.00 92.93,365.00 95.64,365.00 98.34,365.00 101.05,365.00 103.76,365.00 106.47,365.00 109.18,365.00 111.89,365.00 114.60,365.00 117.31,365.00 120.02,365.00 122.73,365.00 125.43,365.00 128.14,365.00 130.85,365.00 133.56,365.00 136.27,365.00 138.98,365.00 141.69,365.00 144.40,365.00 147.11,365.00 149.82,365.00 152.53,365.00 155.23,365.00 157.94,365.00 160.65,365.00 163.36,365.00 166.07,365.00 168.78,365.00 171.49,365.00 174.20,365.00 176.91,365.00 179.62,365.00 182.32,365.00 185.03,365.00 187.74,365.00 190.45,365.00 193.16,365.00 195.87,365.00 198.58,365.00 201.29,365.00 204.00,365.00 206.71,365.00 209.41,365.00 212.12,365.00 214.83,365.00 217.54,365.00 220.25,365.00 222.96,365.00 225.67,365.00 228.38,365.00 231.09,365.00 233.80,365.00 236.51,365.00 239.21,365.00 241.92,365.00 244.63,365.00 247.34,365.00 250.05,365.00 252.76,365.00 255.47,365.00 258.18,365.00 260.89,365.00 263.60,365.00 266.30,365.00 269.01,365.00 271.72,365.00 274.43,365.00 277.14,365.00 279.85,365.00 282.56,365.00 285.27,365.00 287.98,365.00 290.69,365.00 293.39,365.00 296.10,365.00 298.81,365.00 301.52,365.00 304.23,365.00 306.94,365.00 309.65,365.00 312.36,365.00 315.07,365.00 317.78,349.65 320.48,332.24 323.19,314.82 325.90,297.40 328.61,279.98 331.32,262.56 334.03,245.14 336.74,227.73 339.45,210.31 342.16,192.89 344.87,175.47 347.58,158.05 350.28,140.64 352.99,123.22 355.70,105.80 358.41,88.38 361.12,70.96 363.83,55.00 366.54,55.00 369.25,55.00 371.96,55.00 374.67,55.00 377.37,55.00 380.08,55.00 382.79,55.00 385.50,55.00 388.21,55.00 390.92,55.00 393.63,55.00 396.34,55.00 399.05,55.00 401.76,55.00 404.46,55.00 407.17,55.00 409.88,55.00 412.59,55.00 415.30,55.00 418.01,55.00 420.72,55.00 423.43,55.00 426.14,55.00 428.85,67.39 431.56,82.14 434.26,96.89 436.97,111.64 439.68,126.39 442.39,141.14 445.10,155.89 447.81,170.65 450.52,185.40 453.23,200.15 455.94,214.90 458.65,229.65 461.35,244.40 464.06,259.15 466.77,273.90 469.48,288.66 472.19,303.41 474.90,318.16 477.61,332.91 480.32,347.66 483.03,362.41 485.74,365.00 488.44,365.00 491.15,365.00 493.86,365.00 496.57,365.00 499.28,365.00 501.99,365.00 504.70,365.00 507.41,365.00 510.12,365.00 512.83,365.00 515.54,365.00 518.24,365.00 520.95,365.00 523.66,365.00 526.37,365.00 529.08,365.00 531.79,365.00 534.50,365.00 537.21,365.00 539.92,365.00 542.63,365.00 545.33,365.00 548.04,365.00 550.75,365.00 553.46,365.00 556.17,365.00 558.88,365.00 561.59,365.00 564.30,365.00 567.01,365.00 569.72,365.00 572.42,365.00 575.13,365.00 577.84,365.00 580.55,365.00 583.26,365.00 585.97,365.00 588.68,365.00 591.39,365.00 594.10,365.00 596.81,365.00 599.52,365.00 602.22,365.00 604.93,365.00 607.64,365.00 610.35,365.00 613.06,365.00 615.77,365.00 618.48,365.00 621.19,365.00 623.90,365.00 626.61,365.00 629.31,365.00 632.02,365.00 634.73,365.00 637.44,365.00 640.15,365.00 642.86,365.00 645.57,365.00 648.28,365.00 650.99,365.00 653.70,365.00 656.40,365.00 659.11,365.00 661.82,365.00 664.53,365.00 667.24,365.00 669.95,365.00 672.66,365.00 675.37,365.00 678.08,365.00 680.79,365.00 683.49,365.00 686.20,365.00 688.91,365.00 691.62,365.00 694.33,365.00 697.04,365.00 699.75,365.00 702.46,365.00 705.17,365.00 707.88,365.00 710.59,365.00 713.29,365.00 716.00,365.00 718.71,365.00 721.42,365.00 724.13,365.00 726.84,365.00 729.55,365.00 732.26,365.00 734.97,365.00 737.68,365.00 740.38,365.00 743.09,365.00 745.80,365.00 748.51,365.00 751.22,365.00 753.93,365.00 756.64,365.00 759.35,365.00 762.06,365.00 764.77,365.00 767.47,365.00 770.18,365.00 772.89,365.00 775.60,365.00 778.31,365.00 781.02,365.00 783.73,365.00 786.44,365.00 789.15,365.00 791.86,365.00 794.57,365.00 797.27,365.00 799.98,365.00 802.69,365.00 805.40,365.00 808.11,365.00 810.82,365.00 813.53,365.00 816.24,365.00 818.95,365.00 821.66,365.00 824.36,365.00 827.07,365.00 829.78,365.00 832.49,365.00 835.20,365.00 837.91,365.00 840.62,365.00 843.33,365.00 846.04,365.00 848.75,365.00 851.45,365.00 854.16,365.00 856.87,365.00 859.58,365.00 862.29,365.00 865.00,365.00" fill="none" stroke="#009688" stroke-width="2.2" stroke-dasharray="6,4"/>
<text x="620" y="73" font-size="12" font-family="Consolas, monospace" fill="#009688">subfebril_elevada</text>
<polyline points="55.00,365.00 57.71,365.00 60.42,365.00 63.13,365.00 65.84,365.00 68.55,365.00 71.25,365.00 73.96,365.00 76.67,365.00 79.38,365.00 82.09,365.00 84.80,365.00 87.51,365.00 90.22,365.00 92.93,365.00 95.64,365.00 98.34,365.00 101.05,365.00 103.76,365.00 106.47,365.00 109.18,365.00 111.89,365.00 114.60,365.00 117.31,365.00 120.02,365.00 122.73,365.00 125.43,365.00 128.14,365.00 130.85,365.00 133.56,365.00 136.27,365.00 138.98,365.00 141.69,365.00 144.40,365.00 147.11,365.00 149.82,365.00 152.53,365.00 155.23,365.00 157.94,365.00 160.65,365.00 163.36,365.00 166.07,365.00 168.78,365.00 171.49,365.00 174.20,365.00 176.91,365.00 179.62,365.00 182.32,365.00 185.03,365.00 187.74,365.00 190.45,365.00 193.16,365.00 195.87,365.00 198.58,365.00 201.29,365.00 204.00,365.00 206.71,365.00 209.41,365.00 212.12,365.00 214.83,365.00 217.54,365.00 220.25,365.00 222.96,365.00 225.67,365.00 228.38,365.00 231.09,365.00 233.80,365.00 236.51,365.00 239.21,365.00 241.92,365.00 244.63,365.00 247.34,365.00 250.05,365.00 252.76,365.00 255.47,365.00 258.18,365.00 260.89,365.00 263.60,365.00 266.30,365.00 269.01,365.00 271.72,365.00 274.43,365.00 277.14,365.00 279.85,365.00 282.56,365.00 285.27,365.00 287.98,365.00 290.69,365.00 293.39,365.00 296.10,365.00 298.81,365.00 301.52,365.00 304.23,365.00 306.94,365.00 309.65,365.00 312.36,365.00 315.07,365.00 317.78,365.00 320.48,365.00 323.19,365.00 325.90,365.00 328.61,365.00 331.32,365.00 334.03,365.00 336.74,365.00 339.45,365.00 342.16,365.00 344.87,365.00 347.58,365.00 350.28,365.00 352.99,365.00 355.70,365.00 358.41,365.00 361.12,365.00 363.83,365.00 366.54,365.00 369.25,365.00 371.96,365.00 374.67,365.00 377.37,365.00 380.08,365.00 382.79,365.00 385.50,365.00 388.21,365.00 390.92,365.00 393.63,365.00 396.34,365.00 399.05,365.00 401.76,365.00 404.46,365.00 407.17,365.00 409.88,365.00 412.59,365.00 415.30,365.00 418.01,365.00 420.72,365.00 423.43,365.00 426.14,365.00 428.85,365.00 431.56,365.00 434.26,365.00 436.97,365.00 439.68,365.00 442.39,365.00 445.10,365.00 447.81,365.00 450.52,351.00 453.23,332.86 455.94,314.72 458.65,296.57 461.35,278.43 464.06,260.28 466.77,242.14 469.48,224.00 472.19,205.85 474.90,187.71 477.61,169.57 480.32,151.42 483.03,133.28 485.74,115.13 488.44,96.99 491.15,78.85 493.86,60.70 496.57,55.00 499.28,55.00 501.99,55.00 504.70,55.00 507.41,55.00 510.12,55.00 512.83,55.00 515.54,55.00 518.24,55.00 520.95,55.00 523.66,55.00 526.37,55.00 529.08,55.00 531.79,55.00 534.50,55.00 537.21,55.00 539.92,55.00 542.63,55.00 545.33,55.00 548.04,55.00 550.75,55.00 553.46,55.00 556.17,55.00 558.88,55.00 561.59,55.00 564.30,55.00 567.01,55.00 569.72,55.00 572.42,55.00 575.13,55.00 577.84,55.00 580.55,55.00 583.26,55.00 585.97,55.00 588.68,55.00 591.39,55.00 594.10,55.00 596.81,55.00 599.52,55.00 602.22,55.00 604.93,55.00 607.64,55.00 610.35,55.00 613.06,66.75 615.77,78.85 618.48,90.94 621.19,103.04 623.90,115.13 626.61,127.23 629.31,139.33 632.02,151.42 634.73,163.52 637.44,175.61 640.15,187.71 642.86,199.80 645.57,211.90 648.28,224.00 650.99,236.09 653.70,248.19 656.40,260.28 659.11,272.38 661.82,284.48 664.53,296.57 667.24,308.67 669.95,320.76 672.66,332.86 675.37,344.96 678.08,357.05 680.79,365.00 683.49,365.00 686.20,365.00 688.91,365.00 691.62,365.00 694.33,365.00 697.04,365.00 699.75,365.00 702.46,365.00 705.17,365.00 707.88,365.00 710.59,365.00 713.29,365.00 716.00,365.00 718.71,365.00 721.42,365.00 724.13,365.00 726.84,365.00 729.55,365.00 732.26,365.00 734.97,365.00 737.68,365.00 740.38,365.00 743.09,365.00 745.80,365.00 748.51,365.00 751.22,365.00 753.93,365.00 756.64,365.00 759.35,365.00 762.06,365.00 764.77,365.00 767.47,365.00 770.18,365.00 772.89,365.00 775.60,365.00 778.31,365.00 781.02,365.00 783.73,365.00 786.44,365.00 789.15,365.00 791.86,365.00 794.57,365.00 797.27,365.00 799.98,365.00 802.69,365.00 805.40,365.00 808.11,365.00 810.82,365.00 813.53,365.00 816.24,365.00 818.95,365.00 821.66,365.00 824.36,365.00 827.07,365.00 829.78,365.00 832.49,365.00 835.20,365.00 837.91,365.00 840.62,365.00 843.33,365.00 846.04,365.00 848.75,365.00 851.45,365.00 854.16,365.00 856.87,365.00 859.58,365.00 862.29,365.00 865.00,365.00" fill="none" stroke="#ef6c00" stroke-width="2.2"/>
<polyline points="55.00,365.00 57.71,365.00 60.42,365.00 63.13,365.00 65.84,365.00 68.55,365.00 71.25,365.00 73.96,365.00 76.67,365.00 79.38,365.00 82.09,365.00 84.80,365.00 87.51,365.00 90.22,365.00 92.93,365.00 95.64,365.00 98.34,365.00 101.05,365.00 103.76,365.00 106.47,365.00 109.18,365.00 111.89,365.00 114.60,365.00 117.31,365.00 120.02,365.00 122.73,365.00 125.43,365.00 128.14,365.00 130.85,365.00 133.56,365.00 136.27,365.00 138.98,365.00 141.69,365.00 144.40,365.00 147.11,365.00 149.82,365.00 152.53,365.00 155.23,365.00 157.94,365.00 160.65,365.00 163.36,365.00 166.07,365.00 168.78,365.00 171.49,365.00 174.20,365.00 176.91,365.00 179.62,365.00 182.32,365.00 185.03,365.00 187.74,365.00 190.45,365.00 193.16,365.00 195.87,365.00 198.58,365.00 201.29,365.00 204.00,365.00 206.71,365.00 209.41,365.00 212.12,365.00 214.83,365.00 217.54,365.00 220.25,365.00 222.96,365.00 225.67,365.00 228.38,365.00 231.09,365.00 233.80,365.00 236.51,365.00 239.21,365.00 241.92,365.00 244.63,365.00 247.34,365.00 250.05,365.00 252.76,365.00 255.47,365.00 258.18,365.00 260.89,365.00 263.60,365.00 266.30,365.00 269.01,365.00 271.72,365.00 274.43,365.00 277.14,365.00 279.85,365.00 282.56,365.00 285.27,365.00 287.98,365.00 290.69,365.00 293.39,365.00 296.10,365.00 298.81,365.00 301.52,365.00 304.23,365.00 306.94,365.00 309.65,365.00 312.36,365.00 315.07,365.00 317.78,365.00 320.48,365.00 323.19,365.00 325.90,365.00 328.61,365.00 331.32,365.00 334.03,365.00 336.74,365.00 339.45,365.00 342.16,365.00 344.87,365.00 347.58,365.00 350.28,365.00 352.99,365.00 355.70,365.00 358.41,365.00 361.12,365.00 363.83,365.00 366.54,365.00 369.25,365.00 371.96,365.00 374.67,365.00 377.37,365.00 380.08,365.00 382.79,365.00 385.50,365.00 388.21,365.00 390.92,365.00 393.63,365.00 396.34,365.00 399.05,365.00 401.76,365.00 404.46,365.00 407.17,365.00 409.88,365.00 412.59,365.00 415.30,365.00 418.01,365.00 420.72,365.00 423.43,365.00 426.14,365.00 428.85,365.00 431.56,365.00 434.26,365.00 436.97,365.00 439.68,365.00 442.39,365.00 445.10,355.30 447.81,339.17 450.52,323.03 453.23,306.90 455.94,290.76 458.65,274.63 461.35,258.49 464.06,242.36 466.77,226.22 469.48,210.09 472.19,193.96 474.90,177.82 477.61,161.69 480.32,145.55 483.03,129.42 485.74,113.28 488.44,97.15 491.15,81.01 493.86,64.88 496.57,55.00 499.28,55.00 501.99,55.00 504.70,55.00 507.41,55.00 510.12,55.00 512.83,55.00 515.54,55.00 518.24,55.00 520.95,55.00 523.66,55.00 526.37,55.00 529.08,55.00 531.79,55.00 534.50,55.00 537.21,55.00 539.92,55.00 542.63,55.00 545.33,55.00 548.04,55.00 550.75,55.00 553.46,55.00 556.17,55.00 558.88,55.00 561.59,55.00 564.30,55.00 567.01,55.00 569.72,55.00 572.42,55.00 575.13,55.00 577.84,55.00 580.55,55.00 583.26,55.00 585.97,55.00 588.68,55.00 591.39,55.00 594.10,55.00 596.81,55.00 599.52,55.00 602.22,55.00 604.93,55.00 607.64,56.34 610.35,68.31 613.06,80.29 615.77,92.26 618.48,104.24 621.19,116.21 623.90,128.19 626.61,140.16 629.31,152.14 632.02,164.11 634.73,176.09 637.44,188.06 640.15,200.04 642.86,212.01 645.57,223.99 648.28,235.96 650.99,247.94 653.70,259.91 656.40,271.89 659.11,283.86 661.82,295.84 664.53,307.81 667.24,319.79 669.95,331.76 672.66,343.74 675.37,355.71 678.08,365.00 680.79,365.00 683.49,365.00 686.20,365.00 688.91,365.00 691.62,365.00 694.33,365.00 697.04,365.00 699.75,365.00 702.46,365.00 705.17,365.00 707.88,365.00 710.59,365.00 713.29,365.00 716.00,365.00 718.71,365.00 721.42,365.00 724.13,365.00 726.84,365.00 729.55,365.00 732.26,365.00 734.97,365.00 737.68,365.00 740.38,365.00 743.09,365.00 745.80,365.00 748.51,365.00 751.22,365.00 753.93,365.00 756.64,365.00 759.35,365.00 762.06,365.00 764.77,365.00 767.47,365.00 770.18,365.00 772.89,365.00 775.60,365.00 778.31,365.00 781.02,365.00 783.73,365.00 786.44,365.00 789.15,365.00 791.86,365.00 794.57,365.00 797.27,365.00 799.98,365.00 802.69,365.00 805.40,365.00 808.11,365.00 810.82,365.00 813.53,365.00 816.24,365.00 818.95,365.00 821.66,365.00 824.36,365.00 827.07,365.00 829.78,365.00 832.49,365.00 835.20,365.00 837.91,365.00 840.62,365.00 843.33,365.00 846.04,365.00 848.75,365.00 851.45,365.00 854.16,365.00 856.87,365.00 859.58,365.00 862.29,365.00 865.00,365.00" fill="none" stroke="#ef6c00" stroke-width="2.2" stroke-dasharray="6,4"/>
<text x="620" y="91" font-size="12" font-family="Consolas, monospace" fill="#ef6c00">fiebre</text>
<polyline points="55.00,365.00 57.71,365.00 60.42,365.00 63.13,365.00 65.84,365.00 68.55,365.00 71.25,365.00 73.96,365.00 76.67,365.00 79.38,365.00 82.09,365.00 84.80,365.00 87.51,365.00 90.22,365.00 92.93,365.00 95.64,365.00 98.34,365.00 101.05,365.00 103.76,365.00 106.47,365.00 109.18,365.00 111.89,365.00 114.60,365.00 117.31,365.00 120.02,365.00 122.73,365.00 125.43,365.00 128.14,365.00 130.85,365.00 133.56,365.00 136.27,365.00 138.98,365.00 141.69,365.00 144.40,365.00 147.11,365.00 149.82,365.00 152.53,365.00 155.23,365.00 157.94,365.00 160.65,365.00 163.36,365.00 166.07,365.00 168.78,365.00 171.49,365.00 174.20,365.00 176.91,365.00 179.62,365.00 182.32,365.00 185.03,365.00 187.74,365.00 190.45,365.00 193.16,365.00 195.87,365.00 198.58,365.00 201.29,365.00 204.00,365.00 206.71,365.00 209.41,365.00 212.12,365.00 214.83,365.00 217.54,365.00 220.25,365.00 222.96,365.00 225.67,365.00 228.38,365.00 231.09,365.00 233.80,365.00 236.51,365.00 239.21,365.00 241.92,365.00 244.63,365.00 247.34,365.00 250.05,365.00 252.76,365.00 255.47,365.00 258.18,365.00 260.89,365.00 263.60,365.00 266.30,365.00 269.01,365.00 271.72,365.00 274.43,365.00 277.14,365.00 279.85,365.00 282.56,365.00 285.27,365.00 287.98,365.00 290.69,365.00 293.39,365.00 296.10,365.00 298.81,365.00 301.52,365.00 304.23,365.00 306.94,365.00 309.65,365.00 312.36,365.00 315.07,365.00 317.78,365.00 320.48,365.00 323.19,365.00 325.90,365.00 328.61,365.00 331.32,365.00 334.03,365.00 336.74,365.00 339.45,365.00 342.16,365.00 344.87,365.00 347.58,365.00 350.28,365.00 352.99,365.00 355.70,365.00 358.41,365.00 361.12,365.00 363.83,365.00 366.54,365.00 369.25,365.00 371.96,365.00 374.67,365.00 377.37,365.00 380.08,365.00 382.79,365.00 385.50,365.00 388.21,365.00 390.92,365.00 393.63,365.00 396.34,365.00 399.05,365.00 401.76,365.00 404.46,365.00 407.17,365.00 409.88,365.00 412.59,365.00 415.30,365.00 418.01,365.00 420.72,365.00 423.43,365.00 426.14,365.00 428.85,365.00 431.56,365.00 434.26,365.00 436.97,365.00 439.68,365.00 442.39,365.00 445.10,365.00 447.81,365.00 450.52,365.00 453.23,365.00 455.94,365.00 458.65,365.00 461.35,365.00 464.06,365.00 466.77,365.00 469.48,365.00 472.19,365.00 474.90,365.00 477.61,365.00 480.32,365.00 483.03,365.00 485.74,365.00 488.44,365.00 491.15,365.00 493.86,365.00 496.57,365.00 499.28,365.00 501.99,365.00 504.70,365.00 507.41,365.00 510.12,365.00 512.83,365.00 515.54,365.00 518.24,365.00 520.95,365.00 523.66,365.00 526.37,365.00 529.08,365.00 531.79,365.00 534.50,365.00 537.21,365.00 539.92,365.00 542.63,365.00 545.33,365.00 548.04,365.00 550.75,365.00 553.46,365.00 556.17,365.00 558.88,365.00 561.59,365.00 564.30,365.00 567.01,365.00 569.72,365.00 572.42,365.00 575.13,365.00 577.84,365.00 580.55,365.00 583.26,365.00 585.97,365.00 588.68,365.00 591.39,365.00 594.10,365.00 596.81,365.00 599.52,365.00 602.22,365.00 604.93,365.00 607.64,365.00 610.35,365.00 613.06,365.00 615.77,365.00 618.48,365.00 621.19,365.00 623.90,365.00 626.61,365.00 629.31,365.00 632.02,365.00 634.73,357.22 637.44,339.08 640.15,320.94 642.86,302.79 645.57,284.65 648.28,266.51 650.99,248.36 653.70,230.22 656.40,212.07 659.11,193.93 661.82,175.79 664.53,157.64 667.24,139.50 669.95,121.35 672.66,103.21 675.37,85.07 678.08,66.92 680.79,55.00 683.49,55.00 686.20,55.00 688.91,55.00 691.62,55.00 694.33,55.00 697.04,55.00 699.75,55.00 702.46,55.00 705.17,55.00 707.88,55.00 710.59,55.00 713.29,55.00 716.00,55.00 718.71,55.00 721.42,55.00 724.13,55.00 726.84,55.00 729.55,55.00 732.26,55.00 734.97,55.00 737.68,55.00 740.38,55.00 743.09,55.00 745.80,55.00 748.51,55.00 751.22,55.00 753.93,55.00 756.64,55.00 759.35,55.00 762.06,55.00 764.77,55.00 767.47,55.00 770.18,55.00 772.89,55.00 775.60,55.00 778.31,55.00 781.02,55.00 783.73,55.00 786.44,55.00 789.15,55.00 791.86,55.00 794.57,55.00 797.27,55.00 799.98,55.00 802.69,55.00 805.40,55.00 808.11,55.00 810.82,55.00 813.53,55.00 816.24,55.00 818.95,55.00 821.66,55.00 824.36,55.00 827.07,55.00 829.78,55.00 832.49,55.00 835.20,55.00 837.91,55.00 840.62,55.00 843.33,55.00 846.04,55.00 848.75,55.00 851.45,55.00 854.16,55.00 856.87,55.00 859.58,55.00 862.29,55.00 865.00,55.00" fill="none" stroke="#c62828" stroke-width="2.2"/>
<polyline points="55.00,365.00 57.71,365.00 60.42,365.00 63.13,365.00 65.84,365.00 68.55,365.00 71.25,365.00 73.96,365.00 76.67,365.00 79.38,365.00 82.09,365.00 84.80,365.00 87.51,365.00 90.22,365.00 92.93,365.00 95.64,365.00 98.34,365.00 101.05,365.00 103.76,365.00 106.47,365.00 109.18,365.00 111.89,365.00 114.60,365.00 117.31,365.00 120.02,365.00 122.73,365.00 125.43,365.00 128.14,365.00 130.85,365.00 133.56,365.00 136.27,365.00 138.98,365.00 141.69,365.00 144.40,365.00 147.11,365.00 149.82,365.00 152.53,365.00 155.23,365.00 157.94,365.00 160.65,365.00 163.36,365.00 166.07,365.00 168.78,365.00 171.49,365.00 174.20,365.00 176.91,365.00 179.62,365.00 182.32,365.00 185.03,365.00 187.74,365.00 190.45,365.00 193.16,365.00 195.87,365.00 198.58,365.00 201.29,365.00 204.00,365.00 206.71,365.00 209.41,365.00 212.12,365.00 214.83,365.00 217.54,365.00 220.25,365.00 222.96,365.00 225.67,365.00 228.38,365.00 231.09,365.00 233.80,365.00 236.51,365.00 239.21,365.00 241.92,365.00 244.63,365.00 247.34,365.00 250.05,365.00 252.76,365.00 255.47,365.00 258.18,365.00 260.89,365.00 263.60,365.00 266.30,365.00 269.01,365.00 271.72,365.00 274.43,365.00 277.14,365.00 279.85,365.00 282.56,365.00 285.27,365.00 287.98,365.00 290.69,365.00 293.39,365.00 296.10,365.00 298.81,365.00 301.52,365.00 304.23,365.00 306.94,365.00 309.65,365.00 312.36,365.00 315.07,365.00 317.78,365.00 320.48,365.00 323.19,365.00 325.90,365.00 328.61,365.00 331.32,365.00 334.03,365.00 336.74,365.00 339.45,365.00 342.16,365.00 344.87,365.00 347.58,365.00 350.28,365.00 352.99,365.00 355.70,365.00 358.41,365.00 361.12,365.00 363.83,365.00 366.54,365.00 369.25,365.00 371.96,365.00 374.67,365.00 377.37,365.00 380.08,365.00 382.79,365.00 385.50,365.00 388.21,365.00 390.92,365.00 393.63,365.00 396.34,365.00 399.05,365.00 401.76,365.00 404.46,365.00 407.17,365.00 409.88,365.00 412.59,365.00 415.30,365.00 418.01,365.00 420.72,365.00 423.43,365.00 426.14,365.00 428.85,365.00 431.56,365.00 434.26,365.00 436.97,365.00 439.68,365.00 442.39,365.00 445.10,365.00 447.81,365.00 450.52,365.00 453.23,365.00 455.94,365.00 458.65,365.00 461.35,365.00 464.06,365.00 466.77,365.00 469.48,365.00 472.19,365.00 474.90,365.00 477.61,365.00 480.32,365.00 483.03,365.00 485.74,365.00 488.44,365.00 491.15,365.00 493.86,365.00 496.57,365.00 499.28,365.00 501.99,365.00 504.70,365.00 507.41,365.00 510.12,365.00 512.83,365.00 515.54,365.00 518.24,365.00 520.95,365.00 523.66,365.00 526.37,365.00 529.08,365.00 531.79,365.00 534.50,365.00 537.21,365.00 539.92,365.00 542.63,365.00 545.33,365.00 548.04,365.00 550.75,365.00 553.46,365.00 556.17,365.00 558.88,365.00 561.59,365.00 564.30,365.00 567.01,365.00 569.72,365.00 572.42,365.00 575.13,365.00 577.84,365.00 580.55,365.00 583.26,365.00 585.97,365.00 588.68,365.00 591.39,365.00 594.10,365.00 596.81,365.00 599.52,365.00 602.22,365.00 604.93,365.00 607.64,365.00 610.35,365.00 613.06,365.00 615.77,365.00 618.48,365.00 621.19,361.48 623.90,348.67 626.61,335.86 629.31,323.06 632.02,310.25 634.73,297.44 637.44,284.63 640.15,271.82 642.86,259.01 645.57,246.21 648.28,233.40 650.99,220.59 653.70,207.78 656.40,194.97 659.11,182.17 661.82,169.36 664.53,156.55 667.24,143.74 669.95,130.93 672.66,118.12 675.37,105.32 678.08,92.51 680.79,79.70 683.49,66.89 686.20,55.00 688.91,55.00 691.62,55.00 694.33,55.00 697.04,55.00 699.75,55.00 702.46,55.00 705.17,55.00 707.88,55.00 710.59,55.00 713.29,55.00 716.00,55.00 718.71,55.00 721.42,55.00 724.13,55.00 726.84,55.00 729.55,55.00 732.26,55.00 734.97,55.00 737.68,55.00 740.38,55.00 743.09,55.00 745.80,55.00 748.51,55.00 751.22,55.00 753.93,55.00 756.64,55.00 759.35,55.00 762.06,55.00 764.77,55.00 767.47,55.00 770.18,55.00 772.89,55.00 775.60,55.00 778.31,55.00 781.02,55.00 783.73,55.00 786.44,55.00 789.15,55.00 791.86,55.00 794.57,55.00 797.27,55.00 799.98,55.00 802.69,55.00 805.40,55.00 808.11,55.00 810.82,55.00 813.53,55.00 816.24,55.00 818.95,55.00 821.66,55.00 824.36,55.00 827.07,55.00 829.78,55.00 832.49,55.00 835.20,55.00 837.91,55.00 840.62,55.00 843.33,55.00 846.04,55.00 848.75,55.00 851.45,55.00 854.16,55.00 856.87,55.00 859.58,55.00 862.29,113.57 865.00,365.00" fill="none" stroke="#c62828" stroke-width="2.2" stroke-dasharray="6,4"/>
<text x="620" y="109" font-size="12" font-family="Consolas, monospace" fill="#c62828">fiebre_alta</text>
<line x1="55.00" y1="365" x2="55.00" y2="371" stroke="#333" stroke-width="1"/>
<text x="43.00" y="387" font-size="12" font-family="Consolas, monospace">97.0</text>
<line x1="170.71" y1="365" x2="170.71" y2="371" stroke="#333" stroke-width="1"/>
<text x="158.71" y="387" font-size="12" font-family="Consolas, monospace">98.0</text>
<line x1="286.43" y1="365" x2="286.43" y2="371" stroke="#333" stroke-width="1"/>
<text x="274.43" y="387" font-size="12" font-family="Consolas, monospace">99.0</text>
<line x1="402.14" y1="365" x2="402.14" y2="371" stroke="#333" stroke-width="1"/>
<text x="390.14" y="387" font-size="12" font-family="Consolas, monospace">100.0</text>
<line x1="517.86" y1="365" x2="517.86" y2="371" stroke="#333" stroke-width="1"/>
<text x="505.86" y="387" font-size="12" font-family="Consolas, monospace">101.0</text>
<line x1="633.57" y1="365" x2="633.57" y2="371" stroke="#333" stroke-width="1"/>
<text x="621.57" y="387" font-size="12" font-family="Consolas, monospace">102.0</text>
<line x1="749.29" y1="365" x2="749.29" y2="371" stroke="#333" stroke-width="1"/>
<text x="737.29" y="387" font-size="12" font-family="Consolas, monospace">103.0</text>
<line x1="865.00" y1="365" x2="865.00" y2="371" stroke="#333" stroke-width="1"/>
<text x="853.00" y="387" font-size="12" font-family="Consolas, monospace">104.0</text>
</svg>