<svg xmlns="http://www.w3.org/2000/svg" width="920" height="420">
<rect width="920" height="420" fill="#ffffff"/>
<text x="55" y="28" font-size="20" font-family="Consolas, monospace">DiastolicBP: inicial (solida) vs optimizada (punteada)</text>
<line x1="55" y1="365" x2="865" y2="365" stroke="#333" stroke-width="1.5"/>
<line x1="55" y1="55" x2="55" y2="365" stroke="#333" stroke-width="1.5"/>
<line x1="55" y1="365.00" x2="865" y2="365.00" stroke="#e0e0e0" stroke-width="1"/>
<text x="10" y="369.00" font-size="12" font-family="Consolas, monospace">0.0</text>
<line x1="55" y1="303.00" x2="865" y2="303.00" stroke="#e0e0e0" stroke-width="1"/>
<text x="10" y="307.00" font-size="12" font-family="Consolas, monospace">0.2</text>
<line x1="55" y1="241.00" x2="865" y2="241.00" stroke="#e0e0e0" stroke-width="1"/>
<text x="10" y="245.00" font-size="12" font-family="Consolas, monospace">0.4</text>
<line x1="55" y1="179.00" x2="865" y2="179.00" stroke="#e0e0e0" stroke-width="1"/>
<text x="10" y="183.00" font-size="12" font-family="Consolas, monospace">0.6</text>
<line x1="55" y1="117.00" x2="865" y2="117.00" stroke="#e0e0e0" stroke-width="1"/>
<text x="10" y="121.00" font-size="12" font-family="Consolas, monospace">0.8</text>
<line x1="55" y1="55.00" x2="865" y2="55.00" stroke="#e0e0e0" stroke-width="1"/>
<text x="10" y="59.00" font-size="12" font-family="Consolas, monospace">1.0</text>
<polyline points="55.00,55.00 57.71,55.00 60.42,55.00 63.13,55.00 65.84,55.00 68.55,55.00 71.25,55.00 73.96,55.00 76.67,55.00 79.38,55.00 82.09,55.00 84.80,55.00 87.51,55.00 90.22,55.00 92.93,55.00 95.64,55.00 98.34,55.00 101.05,55.00 103.76,55.00 106.47,55.00 109.18,55.00 111.89,55.00 114.60,55.00 117.31,55.00 120.02,55.00 122.73,55.00 125.43,55.00 128.14,55.00 130.85,55.00 133.56,55.00 136.27,55.00 138.98,55.00 141.69,65.37 144.40,85.07 147.11,104.77 149.82,124.46 152.53,144.16 155.23,163.86 157.94,183.56 160.65,203.26 163.36,222.96 166.07,242.66 168.78,262.36 171.49,282.06 174.20,301.76 176.91,321.45 179.62,341.15 182.32,360.85 185.03,365.00 187.74,365.00 190.45,365.00 193.16,365.00 195.87,365.00 198.58,365.00 201.29,365.00 204.00,365.00 206.71,365.00 209.41,365.00 212.12,365.00 214.83,365.00 217.54,365.00 220.25,365.00 222.96,365.00 225.67,365.00 228.38,365.00 231.09,365.00 233.80,365.00 236.51,365.00 239.21,365.00 241.92,365.00 244.63,365.00 247.34,365.00 250.05,365.00 252.76,365.00 255.47,365.00 258.18,365.00 260.89,365.00 263.60,365.00 266.30,365.00 269.01,365.00 271.72,365.00 274.43,365.00 277.14,365.00 279.85,365.00 282.56,365.00 285.27,365.00 287.98,365.00 290.69,365.00 293.39,365.00 296.10,365.00 298.81,365.00 301.52,365.00 304.23,365.00 306.94,365.00 309.65,365.00 312.36,365.00 315.07,365.00 317.78,365.00 320.48,365.00 323.19,365.00 325.90,365.00 328.61,365.00 331.32,365.00 334.03,365.00 336.74,365.00 339.45,365.00 342.16,365.00 344.87,365.00 347.58,365.00 350.28,365.00 352.99,365.00 355.70,365.00 358.41,365.00 361.12,365.00 363.83,365.00 366.54,365.00 369.25,365.00 371.96,365.00 374.67,365.00 377.37,365.00 380.08,365.00 382.79,365.00 385.50,365.00 388.21,365.00 390.92,365.00 393.63,365.00 396.34,365.00 399.05,365.00 401.76,365.00 404.46,365.00 407.17,365.00 409.88,365.00 412.59,365.00 415.30,365.00 418.01,365.00 420.72,365.00 423.43,365.00 426.14,365.00 428.85,365.00 431.56,365.00 434.26,365.00 436.97,365.00 439.68,365.00 442.39,365.00 445.10,365.00 447.81,365.00 450.52,365.00 453.23,365.00 455.94,365.00 458.65,365.00 461.35,365.00 464.06,365.00 466.77,365.00 469.48,365.00 472.19,365.00 474.90,365.00 477.61,365.00 480.32,365.00 483.03,365.00 485.74,365.00 488.44,365.00 491.15,365.00 493.86,365.00 496.57,365.00 499.28,365.00 501.99,365.00 504.70,365.00 507.41,365.00 510.12,365.00 512.83,365.00 515.54,365.00 518.24,365.00 520.95,365.00 523.66,365.00 526.37,365.00 529.08,365.00 531.79,365.00 534.50,365.00 537.21,365.00 539.92,365.00 542.63,365.00 545.33,365.00 548.04,365.00 550.75,365.00 553.46,365.00 556.17,365.00 558.88,365.00 561.59,365.00 564.30,365.00 567.01,365.00 569.72,365.00 572.42,365.00 575.13,365.00 577.84,365.00 580.55,365.00 583.26,365.00 585.97,365.00 588.68,365.00 591.39,365.00 594.10,365.00 596.81,365.00 599.52,365.00 602.22,365.00 604.93,365.00 607.64,365.00 610.35,365.00 613.06,365.00 615.77,365.00 618.48,365.00 621.19,365.00 623.90,365.00 626.61,365.00 629.31,365.00 632.02,365.00 634.73,365.00 637.44,365.00 640.15,365.00 642.86,365.00 645.57,365.00 648.28,365.00 650.99,365.00 653.70,365.00 656.40,365.00 659.11,365.00 661.82,365.00 664.53,365.00 667.24,365.00 669.95,365.00 672.66,365.00 675.37,365.00 678.08,365.00 680.79,365.00 683.49,365.00 686.20,365.00 688.91,365.00 691.62,365.00 694.33,365.00 697.04,365.00 699.75,365.00 702.46,365.00 705.17,365.00 707.88,365.00 710.59,365.00 713.29,365.00 716.00,365.00 718.71,365.00 721.42,365.00 724.13,365.00 726.84,365.00 729.55,365.00 732.26,365.00 734.97,365.00 737.68,365.00 740.38,365.00 743.09,365.00 745.80,365.00 748.51,365.00 751.22,365.00 753.93,365.00 756.64,365.00 759.35,365.00 762.06,365.00 764.77,365.00 767.47,365.00 770.18,365.00 772.89,365.00 775.60,365.00 778.31,365.00 781.02,365.00 783.73,365.00 786.44,365.00 789.15,365.00 791.86,365.00 794.57,365.00 797.27,365.00 799.98,365.00 802.69,365.00 805.40,365.00 808.11,365.00 810.82,365.00 813.53,365.00 816.24,365.00 818.95,365.00 821.66,365.00 824.36,365.00 827.07,365.00 829.78,365.00 832.49,365.00 835.20,365.00 837.91,365.00 840.62,365.00 843.33,365.00 846.04,365.00 848.75,365.00 851.45,365.00 854.16,365.00 856.87,365.00 859.58,365.00 862.29,365.00 865.00,365.00" fill="none" stroke="#0b5fff" stroke-width="2.2"/>
<polyline points="55.00,365.00 57.71,55.00 60.42,55.00 63.13,55.00 65.84,55.00 68.55,55.00 71.25,55.00 73.96,55.00 76.67,55.00 79.38,55.00 82.09,55.00 84.80,55.00 87.51,55.00 90.22,55.00 92.93,55.00 95.64,55.00 98.34,55.00 101.05,55.00 103.76,55.00 106.47,55.00 109.18,55.00 111.89,55.00 114.60,55.00 117.31,55.00 120.02,55.00 122.73,55.00 125.43,55.00 128.14,55.00 130.85,55.00 133.56,55.00 136.27,55.00 138.98,76.61 141.69,98.42 144.40,120.22 147.11,142.02 149.82,163.83 152.53,185.63 155.23,207.43 157.94,229.24 160.65,251.04 163.36,272.84 166.07,294.65 168.78,316.45 171.49,338.25 174.20,360.06 176.91,365.00 179.62,365.00 182.32,365.00 185.03,365.00 187.74,365.00 190.45,365.00 193.16,365.00 195.87,365.00 198.58,365.00 201.29,365.00 204.00,365.00 206.71,365.00 209.41,365.00 212.12,365.00 214.83,365.00 217.54,365.00 220.25,365.00 222.96,365.00 225.67,365.00 228.38,365.00 231.09,365.00 233.80,365.00 236.51,365.00 239.21,365.00 241.92,365.00 244.63,365.00 247.34,365.00 250.05,365.00 252.76,365.00 255.47,365.00 258.18,365.00 260.89,365.00 263.60,365.00 266.30,365.00 269.01,365.00 271.72,365.00 274.43,365.00 277.14,365.00 279.85,365.00 282.56,365.00 285.27,365.00 287.98,365.00 290.69,365.00 293.39,365.00 296.10,365.00 298.81,365.00 301.52,365.00 304.23,365.00 306.94,365.00 309.65,365.00 312.36,365.00 315.07,365.00 317.78,365.00 320.48,365.00 323.19,365.00 325.90,365.00 328.61,365.00 331.32,365.00 334.03,365.00 336.74,365.00 339.45,365.00 342.16,365.00 344.87,365.00 347.58,365.00 350.28,365.00 352.99,365.00 355.70,365.00 358.41,365.00 361.12,365.00 363.83,365.00 366.54,365.00 369.25,365.00 371.96,365.00 374.67,365.00 377.37,365.00 380.08,365.00 382.79,365.00 385.50,365.00 388.21,365.00 390.92,365.00 393.63,365.00 396.34,365.00 399.05,365.00 401.76,365.00 404.46,365.00 407.17,365.00 409.88,365.00 412.59,365.00 415.30,365.00 418.01,365.00 420.72,365.00 423.43,365.00 426.14,365.00 428.85,365.00 431.56,365.00 434.26,365.00 436.97,365.00 439.68,365.00 442.39,365.00 445.10,365.00 447.81,365.00 450.52,365.00 453.23,365.00 455.94,365.00 458.65,365.00 461.35,365.00 464.06,365.00 466.77,365.00 469.48,365.00 472.19,365.00 474.90,365.00 477.61,365.00 480.32,365.00 483.03,365.00 485.74,365.00 488.44,365.00 491.15,365.00 493.86,365.00 496.57,365.00 499.28,365.00 501.99,365.00 504.70,365.00 507.41,365.00 510.12,365.00 512.83,365.00 515.54,365.00 518.24,365.00 520.95,365.00 523.66,365.00 526.37,365.00 529.08,365.00 531.79,365.00 534.50,365.00 537.21,365.00 539.92,365.00 542.63,365.00 545.33,365.00 548.04,365.00 550.75,365.00 553.46,365.00 556.17,365.00 558.88,365.00 561.59,365.00 564.30,365.00 567.01,365.00 569.72,365.00 572.42,365.00 575.13,365.00 577.84,365.00 580.55,365.00 583.26,365.00 585.97,365.00 588.68,365.00 591.39,365.00 594.10,365.00 596.81,365.00 599.52,365.00 602.22,365.00 604.93,365.00 607.64,365.00 610.35,365.00 613.06,365.00 615.77,365.00 618.48,365.00 621.19,365.00 623.90,365.00 626.61,365.00 629.31,365.00 632.02,365.00 634.73,365.00 637.44,365.00 640.15,365.00 642.86,365.00 645.57,365.00 648.28,365.00 650.99,365.00 653.70,365.00 656.40,365.00 659.11,365.00 661.82,365.00 664.53,365.00 667.24,365.00 669.95,365.00 672.66,365.00 675.37,365.00 678.08,365.00 680.79,365.00 683.49,365.00 686.20,365.00 688.91,365.00 691.62,365.00 694.33,365.00 697.04,365.00 699.75,365.00 702.46,365.00 705.17,365.00 707.88,365.00 710.59,365.00 713.29,365.00 716.00,365.00 718.71,365.00 721.42,365.00 724.13,365.00 726.84,365.00 729.55,365.00 732.26,365.00 734.97,365.00 737.68,365.00 740.38,365.00 743.09,365.00 745.80,365.00 748.51,365.00 751.22,365.00 753.93,365.00 756.64,365.00 759.35,365.00 762.06,365.00 764.77,365.00 767.47,365.00 770.18,365.00 772.89,365.00 775.60,365.00 778.31,365.00 781.02,365.00 783.73,365.00 786.44,365.00 789.15,365.00 791.86,365.00 794.57,365.00 797.27,365.00 799.98,365.00 802.69,365.00 805.40,365.00 808.11,365.00 810.82,365.00 813.53,365.00 816.24,365.00 818.95,365.00 821.66,365.00 824.36,365.00 827.07,365.00 829.78,365.00 832.49,365.00 835.20,365.00 837.91,365.00 840.62,365.00 843.33,365.00 846.04,365.00 848.75,365.00 851.45,365.00 854.16,365.00 856.87,365.00 859.58,365.00 862.29,365.00 865.00,365.00" fill="none" stroke="#0b5fff" stroke-width="2.2" stroke-dasharray="6,4"/>
<text x="620" y="55" font-size="12" font-family="Consolas, monospace" fill="#0b5fff">baja</text>
<polyline points="55.00,365.00 57.71,365.00 60.42,365.00 63.13,365.00 65.84,365.00 68.55,365.00 71.25,365.00 73.96,365.00 76.67,365.00 79.38,365.00 82.09,365.00 84.80,365.00 87.51,365.00 90.22,365.00 92.93,365.00 95.64,365.00 98.34,365.00 101.05,365.00 103.76,365.00 106.47,365.00 109.18,365.00 111.89,365.00 114.60,365.00 117.31,365.00 120.02,365.00 122.73,365.00 125.43,365.00 128.14,365.00 130.85,365.00 133.56,365.00 136.27,365.00 138.98,365.00 141.69,354.63 144.40,334.93 147.11,315.23 149.82,295.54 152.53,275.84 155.23,256.14 157.94,236.44 160.65,216.74 163.36,197.04 166.07,177.34 168.78,157.64 171.49,137.94 174.20,118.24 176.91,98.55 179.62,78.85 182.32,59.15 185.03,55.00 187.74,55.00 190.45,55.00 193.16,55.00 195.87,55.00 198.58,55.00 201.29,55.00 204.00,55.00 206.71,55.00 209.41,55.00 212.12,55.00 214.83,55.00 217.54,55.00 220.25,55.00 222.96,55.00 225.67,55.00 228.38,55.00 231.09,55.00 233.80,55.00 236.51,55.00 239.21,55.00 241.92,55.00 244.63,55.00 247.34,55.00 250.05,55.00 252.76,55.00 255.47,55.00 258.18,55.00 260.89,55.00 263.60,55.00 266.30,55.00 269.01,55.00 271.72,55.00 274.43,55.00 277.14,55.00 279.85,55.00 282.56,55.00 285.27,55.00 287.98,55.00 290.69,55.00 293.39,55.00 296.10,55.00 298.81,55.00 301.52,55.00 304.23,55.00 306.94,55.00 309.65,55.00 312.36,60.70 315.07,70.55 317.78,80.40 320.48,90.25 323.19,100.10 325.90,109.95 328.61,119.80 331.32,129.65 334.03,139.50 336.74,149.35 339.45,159.20 342.16,169.05 344.87,178.90 347.58,188.75 350.28,198.60 352.99,208.44 355.70,218.29 358.41,228.14 361.12,237.99 363.83,247.84 366.54,257.69 369.25,267.54 371.96,277.39 374.67,287.24 377.37,297.09 380.08,306.94 382.79,316.79 385.50,326.64 388.21,336.49 390.92,346.34 393.63,356.19 396.34,365.00 399.05,365.00 401.76,365.00 404.46,365.00 407.17,365.00 409.88,365.00 412.59,365.00 415.30,365.00 418.01,365.00 420.72,365.00 423.43,365.00 426.14,365.00 428.85,365.00 431.56,365.00 434.26,365.00 436.97,365.00 439.68,365.00 442.39,365.00 445.10,365.00 447.81,365.00 450.52,365.00 453.23,365.00 455.94,365.00 458.65,365.00 461.35,365.00 464.06,365.00 466.77,365.00 469.48,365.00 472.19,365.00 474.90,365.00 477.61,365.00 480.32,365.00 483.03,365.00 485.74,365.00 488.44,365.00 491.15,365.00 493.86,365.00 496.57,365.00 499.28,365.00 501.99,365.00 504.70,365.00 507.41,365.00 510.12,365.00 512.83,365.00 515.54,365.00 518.24,365.00 520.95,365.00 523.66,365.00 526.37,365.00 529.08,365.00 531.79,365.00 534.50,365.00 537.21,365.00 539.92,365.00 542.63,365.00 545.33,365.00 548.04,365.00 550.75,365.00 553.46,365.00 556.17,365.00 558.88,365.00 561.59,365.00 564.30,365.00 567.01,365.00 569.72,365.00 572.42,365.00 575.13,365.00 577.84,365.00 580.55,365.00 583.26,365.00 585.97,365.00 588.68,365.00 591.39,365.00 594.10,365.00 596.81,365.00 599.52,365.00 602.22,365.00 604.93,365.00 607.64,365.00 610.35,365.00 613.06,365.00 615.77,365.00 618.48,365.00 621.19,365.00 623.90,365.00 626.61,365.00 629.31,365.00 632.02,365.00 634.73,365.00 637.44,365.00 640.15,365.00 642.86,365.00 645.57,365.00 648.28,365.00 650.99,365.00 653.70,365.00 656.40,365.00 659.11,365.00 661.82,365.00 664.53,365.00 667.24,365.00 669.95,365.00 672.66,365.00 675.37,365.00 678.08,365.00 680.79,365.00 683.49,365.00 686.20,365.00 688.91,365.00 691.62,365.00 694.33,365.00 697.04,365.00 699.75,365.00 702.46,365.00 705.17,365.00 707.88,365.00 710.59,365.00 713.29,365.00 716.00,365.00 718.71,365.00 721.42,365.00 724.13,365.00 726.84,365.00 729.55,365.00 732.26,365.00 734.97,365.00 737.68,365.00 740.38,365.00 743.09,365.00 745.80,365.00 748.51,365.00 751.22,365.00 753.93,365.00 756.64,365.00 759.35,365.00 762.06,365.00 764.77,365.00 767.47,365.00 770.18,365.00 772.89,365.00 775.60,365.00 778.31,365.00 781.02,365.00 783.73,365.00 786.44,365.00 789.15,365.00 791.86,365.00 794.57,365.00 797.27,365.00 799.98,365.00 802.69,365.00 805.40,365.00 808.11,365.00 810.82,365.00 813.53,365.00 816.24,365.00 818.95,365.00 821.66,365.00 824.36,365.00 827.07,365.00 829.78,365.00 832.49,365.00 835.20,365.00 837.91,365.00 840.62,365.00 843.33,365.00 846.04,365.00 848.75,365.00 851.45,365.00 854.16,365.00 856.87,365.00 859.58,365.00 862.29,365.00 865.00,365.00" fill="none" stroke="#009688" stroke-width="2.2"/>
<polyline points="55.00,365.00 57.71,365.00 60.42,365.00 63.13,365.00 65.84,365.00 68.55,365.00 71.25,365.00 73.96,365.00 76.67,365.00 79.38,365.00 82.09,365.00 84.80,365.00 87.51,365.00 90.22,365.00 92.93,365.00 95.64,365.00 98.34,365.00 101.05,365.00 103.76,365.00 106.47,365.00 109.18,365.00 111.89,365.00 114.60,365.00 117.31,365.00 120.02,365.00 122.73,365.00 125.43,365.00 128.14,365.00 130.85,365.00 133.56,365.00 136.27,365.00 138.98,365.00 141.69,365.00 144.40,365.00 147.11,365.00 149.82,354.74 152.53,333.39 155.23,312.04 157.94,290.69 160.65,269.35 163.36,248.00 166.07,226.65 168.78,205.30 171.49,183.96 174.20,162.61 176.91,141.26 179.62,119.91 182.32,98.57 185.03,77.22 187.74,55.87 190.45,55.00 193.16,55.00 195.87,55.00 198.58,55.00 201.29,55.00 204.00,55.00 206.71,55.00 209.41,55.00 212.12,55.00 214.83,55.00 217.54,55.00 220.25,55.00 222.96,55.00 225.67,55.00 228.38,55.00 231.09,55.00 233.80,55.00 236.51,55.00 239.21,55.00 241.92,55.00 244.63,55.00 247.34,55.00 250.05,55.00 252.76,55.00 255.47,55.00 258.18,55.00 260.89,55.00 263.60,55.00 266.30,55.00 269.01,55.00 271.72,55.00 274.43,55.00 277.14,55.00 279.85,55.00 282.56,55.00 285.27,55.00 287.98,55.00 290.69,55.00 293.39,55.00 296.10,55.00 298.81,55.00 301.52,55.00 304.23,55.00 306.94,55.00 309.65,55.00 312.36,55.00 315.07,55.00 317.78,55.00 320.48,55.00 323.19,55.00 325.90,55.00 328.61,55.00 331.32,55.00 334.03,55.00 336.74,55.00 339.45,55.00 342.16,55.00 344.87,55.00 347.58,55.00 350.28,55.00 352.99,55.00 355.70,55.00 358.41,55.00 361.12,55.00 363.83,55.00 366.54,55.00 369.25,55.00 371.96,73.63 374.67,100.14 377.37,126.64 380.08,153.14 382.79,179.65 385.50,206.15 388.21,232.66 390.92,259.16 393.63,285.66 396.34,312.17 399.05,338.67 401.76,365.00 404.46,365.00 407.17,365.00 409.88,365.00 412.59,365.00 415.30,365.00 418.01,365.00 420.72,365.00 423.43,365.00 426.14,365.00 428.85,365.00 431.56,365.00 434.26,365.00 436.97,365.00 439.68,365.00 442.39,365.00 445.10,365.00 447.81,365.00 450.52,365.00 453.23,365.00 455.94,365.00 458.65,365.00 461.35,365.00 464.06,365.00 466.77,365.00 469.48,365.00 472.19,365.00 474.90,365.00 477.61,365.00 480.32,365.00 483.03,365.00 485.74,365.00 488.44,365.00 491.15,365.00 493.86,365.00 496.57,365.00 499.28,365.00 501.99,365.00 504.70,365.00 507.41,365.00 510.12,365.00 512.83,365.00 515.54,365.00 518.24,365.00 520.95,365.00 523.66,365.00 526.37,365.00 529.08,365.00 531.79,365.00 534.50,365.00 537.21,365.00 539.92,365.00 542.63,365.00 545.33,365.00 548.04,365.00 550.75,365.00 553.46,365.00 556.17,365.00 558.88,365.00 561.59,365.00 564.30,365.00 567.01,365.00 569.72,365.00 572.42,365.00 575.13,365.00 577.84,365.00 580.55,365.00 583.26,365.00 585.97,365.00 588.68,365.00 591.39,365.00 594.10,365.00 596.81,365.00 599.52,365.00 602.22,365.00 604.93,365.00 607.64,365.00 610.35,365.00 613.06,365.00 615.77,365.00 618.48,365.00 621.19,365.00 623.90,365.00 626.61,365.00 629.31,365.00 632.02,365.00 634.73,365.00 637.44,365.00 640.15,365.00 642.86,365.00 645.57,365.00 648.28,365.00 650.99,365.00 653.70,365.00 656.40,365.00 659.11,365.00 661.82,365.00 664.53,365.00 667.24,365.00 669.95,365.00 672.66,365.00 675.37,365.00 678.08,365.00 680.79,365.00 683.49,365.00 686.20,365.00 688.91,365.00 691.62,365.00 694.33,365.00 697.04,365.00 699.75,365.00 702.46,365.00 705.17,365.00 707.88,365.00 710.59,365.00 713.29,365.00 716.00,365.00 718.71,365.00 721.42,365.00 724.13,365.00 726.84,365.00 729.55,365.00 732.26,365.00 734.97,365.00 737.68,365.00 740.38,365.00 743.09,365.00 745.80,365.00 748.51,365.00 751.22,365.00 753.93,365.00 756.64,365.00 759.35,365.00 762.06,365.00 764.77,365.00 767.47,365.00 770.18,365.00 772.89,365.00 775.60,365.00 778.31,365.00 781.02,365.00 783.73,365.00 786.44,365.00 789.15,365.00 791.86,365.00 794.57,365.00 797.27,365.00 799.98,365.00 802.69,365.00 805.40,365.00 808.11,365.00 810.82,365.00 813.53,365.00 816.24,365.00 818.95,365.00 821.66,365.00 824.36,365.00 827.07,365.00 829.78,365.00 832.49,365.00 835.20,365.00 837.91,365.00 840.62,365.00 843.33,365.00 846.04,365.00 848.75,365.00 851.45,365.00 854.16,365.00 856.87,365.00 859.58,365.00 862.29,365.00 865.00,365.00" fill="none" stroke="#009688" stroke-width="2.2" stroke-dasharray="6,4"/>
<text x="620" y="73" font-size="12" font-family="Consolas, monospace" fill="#009688">normal</text>
<polyline points="55.00,365.00 57.71,365.00 60.42,365.00 63.13,365.00 65.84,365.00 68.55,365.00 71.25,365.00 73.96,365.00 76.67,365.00 79.38,365.00 82.09,365.00 84.80,365.00 87.51,365.00 90.22,365.00 92.93,365.00 95.64,365.00 98.34,365.00 101.05,365.00 103.76,365.00 106.47,365.00 109.18,365.00 111.89,365.00 114.60,365.00 117.31,365.00 120.02,365.00 122.73,365.00 125.43,365.00 128.14,365.00 130.85,365.00 133.56,365.00 136.27,365.00 138.98,365.00 141.69,365.00 144.40,365.00 147.11,365.00 149.82,365.00 152.53,365.00 155.23,365.00 157.94,365.00 160.65,365.00 163.36,365.00 166.07,365.00 168.78,365.00 171.49,365.00 174.20,365.00 176.91,365.00 179.62,365.00 182.32,365.00 185.03,365.00 187.74,365.00 190.45,365.00 193.16,365.00 195.87,365.00 198.58,365.00 201.29,365.00 204.00,365.00 206.71,365.00 209.41,365.00 212.12,365.00 214.83,365.00 217.54,365.00 220.25,365.00 222.96,365.00 225.67,365.00 228.38,365.00 231.09,365.00 233.80,365.00 236.51,365.00 239.21,365.00 241.92,365.00 244.63,365.00 247.34,365.00 250.05,365.00 252.76,365.00 255.47,365.00 258.18,365.00 260.89,365.00 263.60,365.00 266.30,365.00 269.01,365.00 271.72,365.00 274.43,365.00 277.14,365.00 279.85,365.00 282.56,365.00 285.27,365.00 287.98,365.00 290.69,365.00 293.39,365.00 296.10,365.00 298.81,365.00 301.52,365.00 304.23,365.00 306.94,365.00 309.65,365.00 312.36,365.00 315.07,365.00 317.78,365.00 320.48,365.00 323.19,365.00 325.90,365.00 328.61,365.00 331.32,365.00 334.03,365.00 336.74,365.00 339.45,365.00 342.16,365.00 344.87,365.00 347.58,365.00 350.28,365.00 352.99,365.00 355.70,344.26 358.41,319.64 361.12,295.02 363.83,270.39 366.54,245.77 369.25,221.15 371.96,196.52 374.67,171.90 377.37,147.27 380.08,122.65 382.79,98.03 385.50,73.40 388.21,55.00 390.92,55.00 393.63,55.00 396.34,55.00 399.05,55.00 401.76,55.00 404.46,55.00 407.17,55.00 409.88,55.00 412.59,55.00 415.30,55.00 418.01,55.00 420.72,55.00 423.43,55.00 426.14,55.00 428.85,55.00 431.56,71.93 434.26,104.77 436.97,137.60 439.68,170.43 442.39,203.26 445.10,236.09 447.81,268.92 450.52,301.76 453.23,334.59 455.94,365.00 458.65,365.00 461.35,365.00 464.06,365.00 466.77,365.00 469.48,365.00 472.19,365.00 474.90,365.00 477.61,365.00 480.32,365.00 483.03,365.00 485.74,365.00 488.44,365.00 491.15,365.00 493.86,365.00 496.57,365.00 499.28,365.00 501.99,365.00 504.70,365.00 507.41,365.00 510.12,365.00 512.83,365.00 515.54,365.00 518.24,365.00 520.95,365.00 523.66,365.00 526.37,365.00 529.08,365.00 531.79,365.00 534.50,365.00 537.21,365.00 539.92,365.00 542.63,365.00 545.33,365.00 548.04,365.00 550.75,365.00 553.46,365.00 556.17,365.00 558.88,365.00 561.59,365.00 564.30,365.00 567.01,365.00 569.72,365.00 572.42,365.00 575.13,365.00 577.84,365.00 580.55,365.00 583.26,365.00 585.97,365.00 588.68,365.00 591.39,365.00 594.10,365.00 596.81,365.00 599.52,365.00 602.22,365.00 604.93,365.00 607.64,365.00 610.35,365.00 613.06,365.00 615.77,365.00 618.48,365.00 621.19,365.00 623.90,365.00 626.61,365.00 629.31,365.00 632.02,365.00 634.73,365.00 637.44,365.00 640.15,365.00 642.86,365.00 645.57,365.00 648.28,365.00 650.99,365.00 653.70,365.00 656.40,365.00 659.11,365.00 661.82,365.00 664.53,365.00 667.24,365.00 669.95,365.00 672.66,365.00 675.37,365.00 678.08,365.00 680.79,365.00 683.49,365.00 686.20,365.00 688.91,365.00 691.62,365.00 694.33,365.00 697.04,365.00 699.75,365.00 702.46,365.00 705.17,365.00 707.88,365.00 710.59,365.00 713.29,365.00 716.00,365.00 718.71,365.00 721.42,365.00 724.13,365.00 726.84,365.00 729.55,365.00 732.26,365.00 734.97,365.00 737.68,365.00 740.38,365.00 743.09,365.00 745.80,365.00 748.51,365.00 751.22,365.00 753.93,365.00 756.64,365.00 759.35,365.00 762.06,365.00 764.77,365.00 767.47,365.00 770.18,365.00 772.89,365.00 775.60,365.00 778.31,365.00 781.02,365.00 783.73,365.00 786.44,365.00 789.15,365.00 791.86,365.00 794.57,365.00 797.27,365.00 799.98,365.00 802.69,365.00 805.40,365.00 808.11,365.00 810.82,365.00 813.53,365.00 816.24,365.00 818.95,365.00 821.66,365.00 824.36,365.00 827.07,365.00 829.78,365.00 832.49,365.00 835.20,365.00 837.91,365.00 840.62,365.00 843.33,365.00 846.04,365.00 848.75,365.00 851.45,365.00 854.16,365.00 856.87,365.00 859.58,365.00 862.29,365.00 865.00,365.00" fill="none" stroke="#ef6c00" stroke-width="2.2"/>
<polyline points="55.00,365.00 57.71,365.00 60.42,365.00 63.13,365.00 65.84,365.00 68.55,365.00 71.25,365.00 73.96,365.00 76.67,365.00 79.38,365.00 82.09,365.00 84.80,365.00 87.51,365.00 90.22,365.00 92.93,365.00 95.64,365.00 98.34,365.00 101.05,365.00 103.76,365.00 106.47,365.00 109.18,365.00 111.89,365.00 114.60,365.00 117.31,365.00 120.02,365.00 122.73,365.00 125.43,365.00 128.14,365.00 130.85,365.00 133.56,365.00 136.27,365.00 138.98,365.00 141.69,365.00 144.40,365.00 147.11,365.00 149.82,365.00 152.53,365.00 155.23,365.00 157.94,365.00 160.65,365.00 163.36,365.00 166.07,365.00 168.78,365.00 171.49,365.00 174.20,365.00 176.91,365.00 179.62,365.00 182.32,365.00 185.03,365.00 187.74,365.00 190.45,365.00 193.16,365.00 195.87,365.00 198.58,365.00 201.29,365.00 204.00,365.00 206.71,365.00 209.41,365.00 212.12,365.00 214.83,365.00 217.54,365.00 220.25,365.00 222.96,365.00 225.67,365.00 228.38,365.00 231.09,365.00 233.80,365.00 236.51,365.00 239.21,365.00 241.92,365.00 244.63,365.00 247.34,365.00 250.05,365.00 252.76,365.00 255.47,365.00 258.18,365.00 260.89,365.00 263.60,365.00 266.30,365.00 269.01,365.00 271.72,365.00 274.43,365.00 277.14,365.00 279.85,365.00 282.56,365.00 285.27,365.00 287.98,365.00 290.69,365.00 293.39,365.00 296.10,365.00 298.81,365.00 301.52,365.00 304.23,365.00 306.94,365.00 309.65,365.00 312.36,365.00 315.07,365.00 317.78,365.00 320.48,365.00 323.19,365.00 325.90,365.00 328.61,365.00 331.32,365.00 334.03,365.00 336.74,365.00 339.45,365.00 342.16,365.00 344.87,365.00 347.58,365.00 350.28,365.00 352.99,365.00 355.70,365.00 358.41,365.00 361.12,365.00 363.83,365.00 366.54,365.00 369.25,365.00 371.96,365.00 374.67,365.00 377.37,365.00 380.08,365.00 382.79,365.00 385.50,295.53 388.21,224.84 390.92,154.15 393.63,83.46 396.34,55.00 399.05,55.00 401.76,55.00 404.46,55.00 407.17,55.00 409.88,55.00 412.59,55.00 415.30,55.00 418.01,55.00 420.72,55.00 423.43,55.00 426.14,55.00 428.85,59.22 431.56,94.22 434.26,129.22 436.97,164.22 439.68,199.22 442.39,234.22 445.10,269.22 447.81,304.22 450.52,339.22 453.23,365.00 455.94,365.00 458.65,365.00 461.35,365.00 464.06,365.00 466.77,365.00 469.48,365.00 472.19,365.00 474.90,365.00 477.61,365.00 480.32,365.00 483.03,365.00 485.74,365.00 488.44,365.00 491.15,365.00 493.86,365.00 496.57,365.00 499.28,365.00 501.99,365.00 504.70,365.00 507.41,365.00 510.12,365.00 512.83,365.00 515.54,365.00 518.24,365.00 520.95,365.00 523.66,365.00 526.37,365.00 529.08,365.00 531.79,365.00 534.50,365.00 537.21,365.00 539.92,365.00 542.63,365.00 545.33,365.00 548.04,365.00 550.75,365.00 553.46,365.00 556.17,365.00 558.88,365.00 561.59,365.00 564.30,365.00 567.01,365.00 569.72,365.00 572.42,365.00 575.13,365.00 577.84,365.00 580.55,365.00 583.26,365.00 585.97,365.00 588.68,365.00 591.39,365.00 594.10,365.00 596.81,365.00 599.52,365.00 602.22,365.00 604.93,365.00 607.64,365.00 610.35,365.00 613.06,365.00 615.77,365.00 618.48,365.00 621.19,365.00 623.90,365.00 626.61,365.00 629.31,365.00 632.02,365.00 634.73,365.00 637.44,365.00 640.15,365.00 642.86,365.00 645.57,365.00 648.28,365.00 650.99,365.00 653.70,365.00 656.40,365.00 659.11,365.00 661.82,365.00 664.53,365.00 667.24,365.00 669.95,365.00 672.66,365.00 675.37,365.00 678.08,365.00 680.79,365.00 683.49,365.00 686.20,365.00 688.91,365.00 691.62,365.00 694.33,365.00 697.04,365.00 699.75,365.00 702.46,365.00 705.17,365.00 707.88,365.00 710.59,365.00 713.29,365.00 716.00,365.00 718.71,365.00 721.42,365.00 724.13,365.00 726.84,365.00 729.55,365.00 732.26,365.00 734.97,365.00 737.68,365.00 740.38,365.00 743.09,365.00 745.80,365.00 748.51,365.00 751.22,365.00 753.93,365.00 756.64,365.00 759.35,365.00 762.06,365.00 764.77,365.00 767.47,365.00 770.18,365.00 772.89,365.00 775.60,365.00 778.31,365.00 781.02,365.00 783.73,365.00 786.44,365.00 789.15,365.00 791.86,365.00 794.57,365.00 797.27,365.00 799.98,365.00 802.69,365.00 805.40,365.00 808.11,365.00 810.82,365.00 813.53,365.00 816.24,365.00 818.95,365.00 821.66,365.00 824.36,365.00 827.07,365.00 829.78,365.00 832.49,365.00 835.20,365.00 837.91,365.00 840.62,365.00 843.33,365.00 846.04,365.00 848.75,365.00 851.45,365.00 854.16,365.00 856.87,365.00 859.58,365.00 862.29,365.00 865.00,365.00" fill="none" stroke="#ef6c00" stroke-width="2.2" stroke-dasharray="6,4"/>
<text x="620" y="91" font-size="12" font-family="Consolas, monospace" fill="#ef6c00">limitrofe</text>
<polyline points="55.00,365.00 57.71,365.00 60.42,365.00 63.13,365.00 65.84,365.00 68.55,365.00 71.25,365.00 73.96,365.00 76.67,365.00 79.38,365.00 82.09,365.00 84.80,365.00 87.51,365.00 90.22,365.00 92.93,365.00 95.64,365.00 98.34,365.00 101.05,365.00 103.76,365.00 106.47,365.00 109.18,365.00 111.89,365.00 114.60,365.00 117.31,365.00 120.02,365.00 122.73,365.00 125.43,365.00 128.14,365.00 130.85,365.00 133.56,365.00 136.27,365.00 138.98,365.00 141.69,365.00 144.40,365.00 147.11,365.00 149.82,365.00 152.53,365.00 155.23,365.00 157.94,365.00 160.65,365.00 163.36,365.00 166.07,365.00 168.78,365.00 171.49,365.00 174.20,365.00 176.91,365.00 179.62,365.00 182.32,365.00 185.03,365.00 187.74,365.00 190.45,365.00 193.16,365.00 195.87,365.00 198.58,365.00 201.29,365.00 204.00,365.00 206.71,365.00 209.41,365.00 212.12,365.00 214.83,365.00 217.54,365.00 220.25,365.00 222.96,365.00 225.67,365.00 228.38,365.00 231.09,365.00 233.80,365.00 236.51,365.00 239.21,365.00 241.92,365.00 244.63,365.00 247.34,365.00 250.05,365.00 252.76,365.00 255.47,365.00 258.18,365.00 260.89,365.00 263.60,365.00 266.30,365.00 269.01,365.00 271.72,365.00 274.43,365.00 277.14,365.00 279.85,365.00 282.56,365.00 285.27,365.00 287.98,365.00 290.69,365.00 293.39,365.00 296.10,365.00 298.81,365.00 301.52,365.00 304.23,365.00 306.94,365.00 309.65,365.00 312.36,365.00 315.07,365.00 317.78,365.00 320.48,365.00 323.19,365.00 325.90,365.00 328.61,365.00 331.32,365.00 334.03,365.00 336.74,365.00 339.45,365.00 342.16,365.00 344.87,365.00 347.58,365.00 350.28,365.00 352.99,365.00 355.70,365.00 358.41,365.00 361.12,365.00 363.83,365.00 366.54,365.00 369.25,365.00 371.96,365.00 374.67,365.00 377.37,365.00 380.08,365.00 382.79,365.00 385.50,365.00 388.21,365.00 390.92,365.00 393.63,365.00 396.34,365.00 399.05,365.00 401.76,365.00 404.46,365.00 407.17,365.00 409.88,365.00 412.59,365.00 415.30,365.00 418.01,365.00 420.72,365.00 423.43,365.00 426.14,365.00 428.85,365.00 431.56,365.00 434.26,365.00 436.97,365.00 439.68,357.74 442.39,338.04 445.10,318.34 447.81,298.65 450.52,278.95 453.23,259.25 455.94,239.55 458.65,219.85 461.35,200.15 464.06,180.45 466.77,160.75 469.48,141.05 472.19,121.35 474.90,101.66 477.61,81.96 480.32,62.26 483.03,55.00 485.74,55.00 488.44,55.00 491.15,55.00 493.86,55.00 496.57,55.00 499.28,55.00 501.99,55.00 504.70,55.00 507.41,55.00 510.12,55.00 512.83,55.00 515.54,55.00 518.24,55.00 520.95,55.00 523.66,55.00 526.37,55.00 529.08,55.00 531.79,55.00 534.50,55.00 537.21,55.00 539.92,55.00 542.63,55.00 545.33,55.00 548.04,55.00 550.75,55.00 553.46,55.00 556.17,55.00 558.88,55.00 561.59,55.00 564.30,55.00 567.01,57.22 569.72,71.29 572.42,85.36 575.13,99.43 577.84,113.50 580.55,127.58 583.26,141.65 585.97,155.72 588.68,169.79 591.39,183.86 594.10,197.93 596.81,212.00 599.52,226.07 602.22,240.14 604.93,254.21 607.64,268.28 610.35,282.35 613.06,296.42 615.77,310.49 618.48,324.57 621.19,338.64 623.90,352.71 626.61,365.00 629.31,365.00 632.02,365.00 634.73,365.00 637.44,365.00 640.15,365.00 642.86,365.00 645.57,365.00 648.28,365.00 650.99,365.00 653.70,365.00 656.40,365.00 659.11,365.00 661.82,365.00 664.53,365.00 667.24,365.00 669.95,365.00 672.66,365.00 675.37,365.00 678.08,365.00 680.79,365.00 683.49,365.00 686.20,365.00 688.91,365.00 691.62,365.00 694.33,365.00 697.04,365.00 699.75,365.00 702.46,365.00 705.17,365.00 707.88,365.00 710.59,365.00 713.29,365.00 716.00,365.00 718.71,365.00 721.42,365.00 724.13,365.00 726.84,365.00 729.55,365.00 732.26,365.00 734.97,365.00 737.68,365.00 740.38,365.00 743.09,365.00 745.80,365.00 748.51,365.00 751.22,365.00 753.93,365.00 756.64,365.00 759.35,365.00 762.06,365.00 764.77,365.00 767.47,365.00 770.18,365.00 772.89,365.00 775.60,365.00 778.31,365.00 781.02,365.00 783.73,365.00 786.44,365.00 789.15,365.00 791.86,365.00 794.57,365.00 797.27,365.00 799.98,365.00 802.69,365.00 805.40,365.00 808.11,365.00 810.82,365.00 813.53,365.00 816.24,365.00 818.95,365.00 821.66,365.00 824.36,365.00 827.07,365.00 829.78,365.00 832.49,365.00 835.20,365.00 837.91,365.00 840.62,365.00 843.33,365.00 846.04,365.00 848.75,365.00 851.45,365.00 854.16,365.00 856.87,365.00 859.58,365.00 862.29,365.00 865.00,365.00" fill="none" stroke="#c62828" stroke-width="2.2"/>
<polyline points="55.00,365.00 57.71,365.00 60.42,365.00 63.13,365.00 65.84,365.00 68.55,365.00 71.25,365.00 73.96,365.00 76.67,365.00 79.38,365.00 82.09,365.00 84.80,365.00 87.51,365.00 90.22,365.00 92.93,365.00 95.64,365.00 98.34,365.00 101.05,365.00 103.76,365.00 106.47,365.00 109.18,365.00 111.89,365.00 114.60,365.00 117.31,365.00 120.02,365.00 122.73,365.00 125.43,365.00 128.14,365.00 130.85,365.00 133.56,365.00 136.27,365.00 138.98,365.00 141.69,365.00 144.40,365.00 147.11,365.00 149.82,365.00 152.53,365.00 155.23,365.00 157.94,365.00 160.65,365.00 163.36,365.00 166.07,365.00 168.78,365.00 171.49,365.00 174.20,365.00 176.91,365.00 179.62,365.00 182.32,365.00 185.03,365.00 187.74,365.00 190.45,365.00 193.16,365.00 195.87,365.00 198.58,365.00 201.29,365.00 204.00,365.00 206.71,365.00 209.41,365.00 212.12,365.00 214.83,365.00 217.54,365.00 220.25,365.00 222.96,365.00 225.67,365.00 228.38,365.00 231.09,365.00 233.80,365.00 236.51,365.00 239.21,365.00 241.92,365.00 244.63,365.00 247.34,365.00 250.05,365.00 252.76,365.00 255.47,365.00 258.18,365.00 260.89,365.00 263.60,365.00 266.30,365.00 269.01,365.00 271.72,365.00 274.43,365.00 277.14,365.00 279.85,365.00 282.56,365.00 285.27,365.00 287.98,365.00 290.69,365.00 293.39,365.00 296.10,365.00 298.81,365.00 301.52,365.00 304.23,365.00 306.94,365.00 309.65,365.00 312.36,365.00 315.07,365.00 317.78,365.00 320.48,365.00 323.19,365.00 325.90,365.00 328.61,365.00 331.32,365.00 334.03,365.00 336.74,365.00 339.45,365.00 342.16,365.00 344.87,365.00 347.58,365.00 350.28,365.00 352.99,365.00 355.70,365.00 358.41,365.00 361.12,365.00 363.83,365.00 366.54,365.00 369.25,365.00 371.96,365.00 374.67,365.00 377.37,365.00 380.08,365.00 382.79,365.00 385.50,365.00 388.21,365.00 390.92,365.00 393.63,365.00 396.34,365.00 399.05,365.00 401.76,365.00 404.46,365.00 407.17,365.00 409.88,365.00 412.59,365.00 415.30,365.00 418.01,365.00 420.72,365.00 423.43,365.00 426.14,365.00 428.85,365.00 431.56,365.00 434.26,365.00 436.97,349.19 439.68,331.16 442.39,313.13 445.10,295.10 447.81,277.08 450.52,259.05 453.23,241.02 455.94,223.00 458.65,204.97 461.35,186.94 464.06,168.92 466.77,150.89 469.48,132.86 472.19,114.83 474.90,96.81 477.61,78.78 480.32,60.75 483.03,55.00 485.74,55.00 488.44,55.00 491.15,55.00 493.86,55.00 496.57,55.00 499.28,55.00 501.99,55.00 504.70,55.00 507.41,55.00 510.12,55.00 512.83,55.00 515.54,55.00 518.24,55.00 520.95,55.00 523.66,55.00 526.37,55.00 529.08,55.00 531.79,55.00 534.50,55.00 537.21,55.00 539.92,55.00 542.63,55.00 545.33,55.00 548.04,55.00 550.75,55.00 553.46,55.00 556.17,55.00 558.88,55.00 561.59,55.00 564.30,55.92 567.01,70.00 569.72,84.08 572.42,98.16 575.13,112.24 577.84,126.32 580.55,140.40 583.26,154.48 585.97,168.56 588.68,182.64 591.39,196.71 594.10,210.79 596.81,224.87 599.52,238.95 602.22,253.03 604.93,267.11 607.64,281.19 610.35,295.27 613.06,309.35 615.77,323.43 618.48,337.51 621.19,351.59 623.90,365.00 626.61,365.00 629.31,365.00 632.02,365.00 634.73,365.00 637.44,365.00 640.15,365.00 642.86,365.00 645.57,365.00 648.28,365.00 650.99,365.00 653.70,365.00 656.40,365.00 659.11,365.00 661.82,365.00 664.53,365.00 667.24,365.00 669.95,365.00 672.66,365.00 675.37,365.00 678.08,365.00 680.79,365.00 683.49,365.00 686.20,365.00 688.91,365.00 691.62,365.00 694.33,365.00 697.04,365.00 699.75,365.00 702.46,365.00 705.17,365.00 707.88,365.00 710.59,365.00 713.29,365.00 716.00,365.00 718.71,365.00 721.42,365.00 724.13,365.00 726.84,365.00 729.55,365.00 732.26,365.00 734.97,365.00 737.68,365.00 740.38,365.00 743.09,365.00 745.80,365.00 748.51,365.00 751.22,365.00 753.93,365.00 756.64,365.00 759.35,365.00 762.06,365.00 764.77,365.00 767.47,365.00 770.18,365.00 772.89,365.00 775.60,365.00 778.31,365.00 781.02,365.00 783.73,365.00 786.44,365.00 789.15,365.00 791.86,365.00 794.57,365.00 797.27,365.00 799.98,365.00 802.69,365.00 805.40,365.00 808.11,365.00 810.82,365.00 813.53,365.00 816.24,365.00 818.95,365.00 821.66,365.00 824.36,365.00 827.07,365.00 829.78,365.00 832.49,365.00 835.20,365.00 837.91,365.00 840.62,365.00 843.33,365.00 846.04,365.00 848.75,365.00 851.45,365.00 854.16,365.00 856.87,365.00 859.58,365.00 862.29,365.00 865.00,365.00" fill="none" stroke="#c62828" stroke-width="2.2" stroke-dasharray="6,4"/>
<text x="620" y="109" font-size="12" font-family="Consolas, monospace" fill="#c62828">alta</text>
<polyline points="55.00,365.00 57.71,365.00 60.42,365.00 63.13,365.00 65.84,365.00 68.55,365.00 71.25,365.00 73.96,365.00 76.67,365.00 79.38,365.00 82.09,365.00 84.80,365.00 87.51,365.00 90.22,365.00 92.93,365.00 95.64,365.00 98.34,365.00 101.05,365.00 103.76,365.00 106.47,365.00 109.18,365.00 111.89,365.00 114.60,365.00 117.31,365.00 120.02,365.00 122.73,365.00 125.43,365.00 128.14,365.00 130.85,365.00 133.56,365.00 136.27,365.00 138.98,365.00 141.69,365.00 144.40,365.00 147.11,365.00 149.82,365.00 152.53,365.00 155.23,365.00 157.94,365.00 160.65,365.00 163.36,365.00 166.07,365.00 168.78,365.00 171.49,365.00 174.20,365.00 176.91,365.00 179.62,365.00 182.32,365.00 185.03,365.00 187.74,365.00 190.45,365.00 193.16,365.00 195.87,365.00 198.58,365.00 201.29,365.00 204.00,365.00 206.71,365.00 209.41,365.00 212.12,365.00 214.83,365.00 217.54,365.00 220.25,365.00 222.96,365.00 225.67,365.00 228.38,365.00 231.09,365.00 233.80,365.00 236.51,365.00 239.21,365.00 241.92,365.00 244.63,365.00 247.34,365.00 250.05,365.00 252.76,365.00 255.47,365.00 258.18,365.00 260.89,365.00 263.60,365.00 266.30,365.00 269.01,365.00 271.72,365.00 274.43,365.00 277.14,365.00 279.85,365.00 282.56,365.00 285.27,365.00 287.98,365.00 290.69,365.00 293.39,365.00 296.10,365.00 298.81,365.00 301.52,365.00 304.23,365.00 306.94,365.00 309.65,365.00 312.36,365.00 315.07,365.00 317.78,365.00 320.48,365.00 323.19,365.00 325.90,365.00 328.61,365.00 331.32,365.00 334.03,365.00 336.74,365.00 339.45,365.00 342.16,365.00 344.87,365.00 347.58,365.00 350.28,365.00 352.99,365.00 355.70,365.00 358.41,365.00 361.12,365.00 363.83,365.00 366.54,365.00 369.25,365.00 371.96,365.00 374.67,365.00 377.37,365.00 380.08,365.00 382.79,365.00 385.50,365.00 388.21,365.00 390.92,365.00 393.63,365.00 396.34,365.00 399.05,365.00 401.76,365.00 404.46,365.00 407.17,365.00 409.88,365.00 412.59,365.00 415.30,365.00 418.01,365.00 420.72,365.00 423.43,365.00 426.14,365.00 428.85,365.00 431.56,365.00 434.26,365.00 436.97,365.00 439.68,365.00 442.39,365.00 445.10,365.00 447.81,365.00 450.52,365.00 453.23,365.00 455.94,365.00 458.65,365.00 461.35,365.00 464.06,365.00 466.77,365.00 469.48,365.00 472.19,365.00 474.90,365.00 477.61,365.00 480.32,365.00 483.03,365.00 485.74,365.00 488.44,365.00 491.15,365.00 493.86,365.00 496.57,365.00 499.28,365.00 501.99,365.00 504.70,365.00 507.41,365.00 510.12,365.00 512.83,365.00 515.54,365.00 518.24,365.00 520.95,365.00 523.66,365.00 526.37,365.00 529.08,365.00 531.79,365.00 534.50,365.00 537.21,365.00 539.92,365.00 542.63,365.00 545.33,365.00 548.04,365.00 550.75,365.00 553.46,365.00 556.17,365.00 558.88,365.00 561.59,365.00 564.30,365.00 567.01,365.00 569.72,365.00 572.42,365.00 575.13,365.00 577.84,365.00 580.55,365.00 583.26,365.00 585.97,365.00 588.68,365.00 591.39,365.00 594.10,329.75 596.81,280.50 599.52,231.25 602.22,182.01 604.93,132.76 607.64,83.51 610.35,55.00 613.06,55.00 615.77,55.00 618.48,55.00 621.19,55.00 623.90,55.00 626.61,55.00 629.31,55.00 632.02,55.00 634.73,55.00 637.44,55.00 640.15,55.00 642.86,55.00 645.57,55.00 648.28,55.00 650.99,55.00 653.70,55.00 656.40,55.00 659.11,55.00 661.82,55.00 664.53,55.00 667.24,55.00 669.95,55.00 672.66,55.00 675.37,55.00 678.08,55.00 680.79,55.00 683.49,55.00 686.20,55.00 688.91,55.00 691.62,55.00 694.33,55.00 697.04,55.00 699.75,55.00 702.46,55.00 705.17,55.00 707.88,55.00 710.59,55.00 713.29,55.00 716.00,55.00 718.71,55.00 721.42,55.00 724.13,55.00 726.84,55.00 729.55,55.00 732.26,55.00 734.97,55.00 737.68,55.00 740.38,55.00 743.09,55.00 745.80,55.00 748.51,55.00 751.22,55.00 753.93,55.00 756.64,55.00 759.35,55.00 762.06,55.00 764.77,55.00 767.47,55.00 770.18,55.00 772.89,55.00 775.60,55.00 778.31,55.00 781.02,55.00 783.73,55.00 786.44,55.00 789.15,55.00 791.86,55.00 794.57,55.00 797.27,55.00 799.98,55.00 802.69,55.00 805.40,55.00 808.11,55.00 810.82,55.00 813.53,55.00 816.24,55.00 818.95,55.00 821.66,55.00 824.36,55.00 827.07,55.00 829.78,55.00 832.49,55.00 835.20,55.00 837.91,55.00 840.62,55.00 843.33,55.00 846.04,55.00 848.75,55.00 851.45,55.00 854.16,55.00 856.87,55.00 859.58,55.00 862.29,55.00 865.00,55.00" fill="none" stroke="#6a1b9a" stroke-width="2.2"/>
<polyline points="55.00,365.00 57.71,365.00 60.42,365.00 63.13,365.00 65.84,365.00 68.55,365.00 71.25,365.00 73.96,365.00 76.67,365.00 79.38,365.00 82.09,365.00 84.80,365.00 87.51,365.00 90.22,365.00 92.93,365.00 95.64,365.00 98.34,365.00 101.05,365.00 103.76,365.00 106.47,365.00 109.18,365.00 111.89,365.00 114.60,365.00 117.31,365.00 120.02,365.00 122.73,365.00 125.43,365.00 128.14,365.00 130.85,365.00 133.56,365.00 136.27,365.00 138.98,365.00 141.69,365.00 144.40,365.00 147.11,365.00 149.82,365.00 152.53,365.00 155.23,365.00 157.94,365.00 160.65,365.00 163.36,365.00 166.07,365.00 168.78,365.00 171.49,365.00 174.20,365.00 176.91,365.00 179.62,365.00 182.32,365.00 185.03,365.00 187.74,365.00 190.45,365.00 193.16,365.00 195.87,365.00 198.58,365.00 201.29,365.00 204.00,365.00 206.71,365.00 209.41,365.00 212.12,365.00 214.83,365.00 217.54,365.00 220.25,365.00 222.96,365.00 225.67,365.00 228.38,365.00 231.09,365.00 233.80,365.00 236.51,365.00 239.21,365.00 241.92,365.00 244.63,365.00 247.34,365.00 250.05,365.00 252.76,365.00 255.47,365.00 258.18,365.00 260.89,365.00 263.60,365.00 266.30,365.00 269.01,365.00 271.72,365.00 274.43,365.00 277.14,365.00 279.85,365.00 282.56,365.00 285.27,365.00 287.98,365.00 290.69,365.00 293.39,365.00 296.10,365.00 298.81,365.00 301.52,365.00 304.23,365.00 306.94,365.00 309.65,365.00 312.36,365.00 315.07,365.00 317.78,365.00 320.48,365.00 323.19,365.00 325.90,365.00 328.61,365.00 331.32,365.00 334.03,365.00 336.74,365.00 339.45,365.00 342.16,365.00 344.87,365.00 347.58,365.00 350.28,365.00 352.99,365.00 355.70,365.00 358.41,365.00 361.12,365.00 363.83,365.00 366.54,365.00 369.25,365.00 371.96,365.00 374.67,365.00 377.37,365.00 380.08,365.00 382.79,365.00 385.50,365.00 388.21,365.00 390.92,365.00 393.63,365.00 396.34,365.00 399.05,365.00 401.76,365.00 404.46,365.00 407.17,365.00 409.88,365.00 412.59,365.00 415.30,365.00 418.01,365.00 420.72,365.00 423.43,365.00 426.14,365.00 428.85,365.00 431.56,365.00 434.26,365.00 436.97,365.00 439.68,365.00 442.39,365.00 445.10,365.00 447.81,365.00 450.52,365.00 453.23,365.00 455.94,365.00 458.65,365.00 461.35,365.00 464.06,365.00 466.77,365.00 469.48,365.00 472.19,365.00 474.90,365.00 477.61,365.00 480.32,365.00 483.03,365.00 485.74,365.00 488.44,365.00 491.15,365.00 493.86,365.00 496.57,365.00 499.28,365.00 501.99,365.00 504.70,365.00 507.41,365.00 510.12,365.00 512.83,365.00 515.54,365.00 518.24,365.00 520.95,365.00 523.66,365.00 526.37,365.00 529.08,365.00 531.79,365.00 534.50,365.00 537.21,365.00 539.92,365.00 542.63,365.00 545.33,365.00 548.04,365.00 550.75,365.00 553.46,365.00 556.17,365.00 558.88,365.00 561.59,365.00 564.30,365.00 567.01,365.00 569.72,365.00 572.42,365.00 575.13,365.00 577.84,365.00 580.55,365.00 583.26,365.00 585.97,365.00 588.68,365.00 591.39,365.00 594.10,365.00 596.81,327.02 599.52,269.96 602.22,212.91 604.93,155.85 607.64,98.79 610.35,55.00 613.06,55.00 615.77,55.00 618.48,55.00 621.19,55.00 623.90,55.00 626.61,55.00 629.31,55.00 632.02,55.00 634.73,55.00 637.44,55.00 640.15,55.00 642.86,55.00 645.57,55.00 648.28,55.00 650.99,55.00 653.70,55.00 656.40,55.00 659.11,55.00 661.82,55.00 664.53,55.00 667.24,55.00 669.95,55.00 672.66,55.00 675.37,55.00 678.08,55.00 680.79,55.00 683.49,55.00 686.20,55.00 688.91,55.00 691.62,55.00 694.33,55.00 697.04,55.00 699.75,55.00 702.46,55.00 705.17,55.00 707.88,55.00 710.59,55.00 713.29,55.00 716.00,55.00 718.71,55.00 721.42,55.00 724.13,55.00 726.84,55.00 729.55,55.00 732.26,55.00 734.97,55.00 737.68,55.00 740.38,55.00 743.09,55.00 745.80,55.00 748.51,55.00 751.22,55.00 753.93,55.00 756.64,55.00 759.35,55.00 762.06,55.00 764.77,55.00 767.47,55.00 770.18,55.00 772.89,55.00 775.60,55.00 778.31,55.00 781.02,55.00 783.73,55.00 786.44,55.00 789.15,55.00 791.86,55.00 794.57,55.00 797.27,55.00 799.98,55.00 802.69,55.00 805.40,55.00 808.11,55.00 810.82,55.00 813.53,55.00 816.24,55.00 818.95,55.00 821.66,55.00 824.36,55.00 827.07,55.00 829.78,55.00 832.49,55.00 835.20,55.00 837.91,55.00 840.62,55.00 843.33,55.00 846.04,55.00 848.75,55.00 851.45,55.00 854.16,55.00 856.87,55.00 859.58,55.00 862.29,55.00 865.00,365.00" fill="none" stroke="#6a1b9a" stroke-width="2.2" stroke-dasharray="6,4"/>
<text x="620" y="127" font-size="12" font-family="Consolas, monospace" fill="#6a1b9a">severa</text>
<line x1="55.00" y1="365" x2="55.00" y2="371" stroke="#333" stroke-width="1"/>
<text x="43.00" y="387" font-size="12" font-family="Consolas, monospace">45.0</text>
<line x1="170.71" y1="365" x2="170.71" y2="371" stroke="#333" stroke-width="1"/>
<text x="158.71" y="387" font-size="12" font-family="Consolas, monospace">58.6</text>
<line x1="286.43" y1="365" x2="286.43" y2="371" stroke="#333" stroke-width="1"/>
<text x="274.43" y="387" font-size="12" font-family="Consolas, monospace">72.1</text>
<line x1="402.14" y1="365" x2="402.14" y2="371" stroke="#333" stroke-width="1"/>
<text x="390.14" y="387" font-size="12" font-family="Consolas, monospace">85.7</text>
<line x1="517.86" y1="365" x2="517.86" y2="371" stroke="#333" stroke-width="1"/>
<text x="505.86" y="387" font-size="12" font-family="Consolas, monospace">99.3</text>
<line x1="633.57" y1="365" x2="633.57" y2="371" stroke="#333" stroke-width="1"/>
<text x="621.57" y="387" font-size="12" font-family="Consolas, monospace">112.9</text>
<line x1="749.29" y1="365" x2="749.29" y2="371" stroke="#333" stroke-width="1"/>
<text x="737.29" y="387" font-size="12" font-family="Consolas, monospace">126.4</text>
<line x1="865.00" y1="365" x2="865.00" y2="371" stroke="#333" stroke-width="1"/>
<text x="853.00" y="387" font-size="12" font-family="Consolas, monospace">140.0</text>
</svg>