<svg xmlns="http://www.w3.org/2000/svg" width="920" height="420">
<rect width="920" height="420" fill="#ffffff"/>
<text x="55" y="28" font-size="20" font-family="Consolas, monospace">Curva de fitness por generacion</text>
<line x1="55" y1="365" x2="865" y2="365" stroke="#333" stroke-width="1.5"/>
<line x1="55" y1="55" x2="55" y2="365" stroke="#333" stroke-width="1.5"/>
<line x1="55" y1="365.00" x2="865" y2="365.00" stroke="#e0e0e0" stroke-width="1"/>
<text x="10" y="369.00" font-size="12" font-family="Consolas, monospace">0.153</text>
<line x1="55" y1="303.00" x2="865" y2="303.00" stroke="#e0e0e0" stroke-width="1"/>
<text x="10" y="307.00" font-size="12" font-family="Consolas, monospace">0.204</text>
<line x1="55" y1="241.00" x2="865" y2="241.00" stroke="#e0e0e0" stroke-width="1"/>
<text x="10" y="245.00" font-size="12" font-family="Consolas, monospace">0.256</text>
<line x1="55" y1="179.00" x2="865" y2="179.00" stroke="#e0e0e0" stroke-width="1"/>
<text x="10" y="183.00" font-size="12" font-family="Consolas, monospace">0.307</text>
<line x1="55" y1="117.00" x2="865" y2="117.00" stroke="#e0e0e0" stroke-width="1"/>
<text x="10" y="121.00" font-size="12" font-family="Consolas, monospace">0.359</text>
<line x1="55" y1="55.00" x2="865" y2="55.00" stroke="#e0e0e0" stroke-width="1"/>
<text x="10" y="59.00" font-size="12" font-family="Consolas, monospace">0.410</text>
<line x1="55.00" y1="365" x2="55.00" y2="371" stroke="#333" stroke-width="1"/>
<text x="47.00" y="387" font-size="12" font-family="Consolas, monospace">0</text>
<line x1="145.00" y1="365" x2="145.00" y2="371" stroke="#333" stroke-width="1"/>
<text x="137.00" y="387" font-size="12" font-family="Consolas, monospace">22</text>
<line x1="235.00" y1="365" x2="235.00" y2="371" stroke="#333" stroke-width="1"/>
<text x="227.00" y="387" font-size="12" font-family="Consolas, monospace">44</text>
<line x1="325.00" y1="365" x2="325.00" y2="371" stroke="#333" stroke-width="1"/>
<text x="317.00" y="387" font-size="12" font-family="Consolas, monospace">67</text>
<line x1="415.00" y1="365" x2="415.00" y2="371" stroke="#333" stroke-width="1"/>
<text x="407.00" y="387" font-size="12" font-family="Consolas, monospace">89</text>
<line x1="505.00" y1="365" x2="505.00" y2="371" stroke="#333" stroke-width="1"/>
<text x="497.00" y="387" font-size="12" font-family="Consolas, monospace">111</text>
<line x1="595.00" y1="365" x2="595.00" y2="371" stroke="#333" stroke-width="1"/>
<text x="587.00" y="387" font-size="12" font-family="Consolas, monospace">133</text>
<line x1="685.00" y1="365" x2="685.00" y2="371" stroke="#333" stroke-width="1"/>
<text x="677.00" y="387" font-size="12" font-family="Consolas, monospace">156</text>
<line x1="775.00" y1="365" x2="775.00" y2="371" stroke="#333" stroke-width="1"/>
<text x="767.00" y="387" font-size="12" font-family="Consolas, monospace">178</text>
<line x1="865.00" y1="365" x2="865.00" y2="371" stroke="#333" stroke-width="1"/>
<text x="857.00" y="387" font-size="12" font-family="Consolas, monospace">200</text>
<polyline points="55.00,204.63 59.05,193.90 63.10,193.90 67.15,172.45 71.20,154.38 75.25,154.05 79.30,154.05 83.35,151.12 87.40,151.12 91.45,138.81 95.50,138.78 99.55,138.72 103.60,130.35 107.65,130.35 111.70,129.73 115.75,121.74 119.80,121.74 123.85,121.74 127.90,121.74 131.95,121.74 136.00,121.74 140.05,120.58 144.10,101.09 148.15,100.09 152.20,100.09 156.25,99.42 160.30,99.42 164.35,99.42 168.40,99.00 172.45,98.73 176.50,98.73 180.55,98.68 184.60,78.24 188.65,78.22 192.70,78.21 196.75,78.21 200.80,78.21 204.85,78.10 208.90,78.10 212.95,77.67 217.00,77.67 221.05,77.67 225.10,77.67 229.15,77.67 233.20,77.67 237.25,77.44 241.30,77.42 245.35,77.20 249.40,57.51 253.45,57.43 257.50,57.43 261.55,57.43 265.60,57.43 269.65,57.43 273.70,57.43 277.75,57.38 281.80,57.26 285.85,57.26 289.90,57.20 293.95,57.20 298.00,57.16 302.05,57.15 306.10,57.07 310.15,57.07 314.20,57.03 318.25,56.95 322.30,56.95 326.35,56.93 330.40,56.65 334.45,56.65 338.50,56.65 342.55,56.65 346.60,56.64 350.65,56.62 354.70,56.53 358.75,56.53 362.80,56.53 366.85,56.49 370.90,56.49 374.95,56.49 379.00,56.45 383.05,56.45 387.10,56.44 391.15,56.42 395.20,56.36 399.25,56.36 403.30,56.35 407.35,56.33 411.40,56.28 415.45,56.28 419.50,56.28 423.55,56.26 427.60,56.23 431.65,56.17 435.70,56.04 439.75,56.04 443.80,56.04 447.85,56.04 451.90,56.04 455.95,56.04 460.00,56.04 464.05,56.04 468.10,56.04 472.15,56.03 476.20,56.03 480.25,55.99 484.30,55.96 488.35,55.91 492.40,55.91 496.45,55.90 500.50,55.88 504.55,55.88 508.60,55.88 512.65,55.85 516.70,55.84 520.75,55.84 524.80,55.84 528.85,55.80 532.90,55.78 536.95,55.78 541.00,55.78 545.05,55.78 549.10,55.76 553.15,55.75 557.20,55.62 561.25,55.62 565.30,55.62 569.35,55.62 573.40,55.60 577.45,55.60 581.50,55.60 585.55,55.48 589.60,55.48 593.65,55.48 597.70,55.48 601.75,55.42 605.80,55.42 609.85,55.42 613.90,55.42 617.95,55.42 622.00,55.40 626.05,55.40 630.10,55.38 634.15,55.38 638.20,55.34 642.25,55.34 646.30,55.34 650.35,55.34 654.40,55.34 658.45,55.34 662.50,55.33 666.55,55.30 670.60,55.30 674.65,55.30 678.70,55.30 682.75,55.30 686.80,55.30 690.85,55.30 694.90,55.30 698.95,55.29 703.00,55.26 707.05,55.26 711.10,55.26 715.15,55.26 719.20,55.26 723.25,55.26 727.30,55.25 731.35,55.25 735.40,55.24 739.45,55.24 743.50,55.24 747.55,55.24 751.60,55.24 755.65,55.22 759.70,55.22 763.75,55.21 767.80,55.20 771.85,55.20 775.90,55.19 779.95,55.19 784.00,55.19 788.05,55.19 792.10,55.18 796.15,55.15 800.20,55.12 804.25,55.12 808.30,55.12 812.35,55.12 816.40,55.12 820.45,55.12 824.50,55.10 828.55,55.10 832.60,55.10 836.65,55.08 840.70,55.08 844.75,55.06 848.80,55.06 852.85,55.04 856.90,55.00 860.95,55.00 865.00,55.00" fill="none" stroke="#c62828" stroke-width="2.5"/>
<polyline points="55.00,365.00 59.05,250.99 63.10,220.99 67.15,206.14 71.20,193.83 75.25,189.38 79.30,186.97 83.35,177.88 87.40,163.77 91.45,152.56 95.50,150.89 99.55,150.30 103.60,149.85 107.65,148.10 111.70,143.68 115.75,136.32 119.80,132.13 123.85,129.49 127.90,128.96 131.95,128.39 136.00,127.45 140.05,125.47 144.10,123.06 148.15,120.98 152.20,117.83 156.25,113.07 160.30,103.40 164.35,100.70 168.40,100.22 172.45,99.80 176.50,99.61 180.55,99.38 184.60,98.47 188.65,96.96 192.70,96.02 196.75,93.53 200.80,87.84 204.85,78.43 208.90,78.32 212.95,78.24 217.00,78.21 221.05,78.16 225.10,78.13 229.15,78.06 233.20,77.99 237.25,77.91 241.30,77.80 245.35,77.69 249.40,77.24 253.45,76.82 257.50,76.09 261.55,75.71 265.60,74.02 269.65,67.82 273.70,57.82 277.75,57.60 281.80,57.53 285.85,57.46 289.90,57.42 293.95,57.37 298.00,57.31 302.05,57.28 306.10,57.24 310.15,57.20 314.20,57.16 318.25,57.13 322.30,57.10 326.35,57.06 330.40,57.01 334.45,56.97 338.50,56.92 342.55,56.88 346.60,56.83 350.65,56.78 354.70,56.74 358.75,56.70 362.80,56.68 366.85,56.64 370.90,56.60 374.95,56.57 379.00,56.53 383.05,56.52 387.10,56.50 391.15,56.49 395.20,56.47 399.25,56.45 403.30,56.44 407.35,56.42 411.40,56.40 415.45,56.38 419.50,56.36 423.55,56.34 427.60,56.32 431.65,56.29 435.70,56.26 439.75,56.24 443.80,56.23 447.85,56.21 451.90,56.20 455.95,56.18 460.00,56.17 464.05,56.15 468.10,56.13 472.15,56.11 476.20,56.10 480.25,56.08 484.30,56.06 488.35,56.04 492.40,56.02 496.45,56.00 500.50,55.98 504.55,55.96 508.60,55.95 512.65,55.93 516.70,55.92 520.75,55.91 524.80,55.90 528.85,55.89 532.90,55.87 536.95,55.86 541.00,55.85 545.05,55.85 549.10,55.84 553.15,55.82 557.20,55.81 561.25,55.79 565.30,55.78 569.35,55.76 573.40,55.73 577.45,55.71 581.50,55.69 585.55,55.66 589.60,55.64 593.65,55.61 597.70,55.60 601.75,55.57 605.80,55.55 609.85,55.52 613.90,55.51 617.95,55.50 622.00,55.48 626.05,55.47 630.10,55.46 634.15,55.45 638.20,55.43 642.25,55.43 646.30,55.42 650.35,55.41 654.40,55.40 658.45,55.40 662.50,55.38 666.55,55.37 670.60,55.37 674.65,55.36 678.70,55.36 682.75,55.36 686.80,55.35 690.85,55.35 694.90,55.34 698.95,55.34 703.00,55.33 707.05,55.32 711.10,55.32 715.15,55.31 719.20,55.31 723.25,55.30 727.30,55.30 731.35,55.29 735.40,55.28 739.45,55.28 743.50,55.28 747.55,55.27 751.60,55.27 755.65,55.26 759.70,55.26 763.75,55.25 767.80,55.24 771.85,55.24 775.90,55.24 779.95,55.23 784.00,55.23 788.05,55.22 792.10,55.22 796.15,55.21 800.20,55.20 804.25,55.19 808.30,55.19 812.35,55.18 816.40,55.17 820.45,55.16 824.50,55.15 828.55,55.15 832.60,55.14 836.65,55.14 840.70,55.13 844.75,55.12 848.80,55.12 852.85,55.12 856.90,55.11 860.95,55.10 865.00,55.10" fill="none" stroke="#1565c0" stroke-width="2.0" stroke-dasharray="6,4"/>
<text x="660" y="55" font-size="12" font-family="Consolas, monospace" fill="#c62828">best_fitness</text>
<text x="660" y="73" font-size="12" font-family="Consolas, monospace" fill="#1565c0">mean_fitness</text>
</svg>