<svg xmlns="http://www.w3.org/2000/svg" width="920" height="420">
<rect width="920" height="420" fill="#ffffff"/>
<text x="55" y="28" font-size="20" font-family="Consolas, monospace">HeartRate: inicial (solida) vs optimizada (punteada)</text>
<line x1="55" y1="365" x2="865" y2="365" stroke="#333" stroke-width="1.5"/>
<line x1="55" y1="55" x2="55" y2="365" stroke="#333" stroke-width="1.5"/>
<line x1="55" y1="365.00" x2="865" y2="365.00" stroke="#e0e0e0" stroke-width="1"/>
<text x="10" y="369.00" font-size="12" font-family="Consolas, monospace">0.0</text>
<line x1="55" y1="303.00" x2="865" y2="303.00" stroke="#e0e0e0" stroke-width="1"/>
<text x="10" y="307.00" font-size="12" font-family="Consolas, monospace">0.2</text>
<line x1="55" y1="241.00" x2="865" y2="241.00" stroke="#e0e0e0" stroke-width="1"/>
<text x="10" y="245.00" font-size="12" font-family="Consolas, monospace">0.4</text>
<line x1="55" y1="179.00" x2="865" y2="179.00" stroke="#e0e0e0" stroke-width="1"/>
<text x="10" y="183.00" font-size="12" font-family="Consolas, monospace">0.6</text>
<line x1="55" y1="117.00" x2="865" y2="117.00" stroke="#e0e0e0" stroke-width="1"/>
<text x="10" y="121.00" font-size="12" font-family="Consolas, monospace">0.8</text>
<line x1="55" y1="55.00" x2="865" y2="55.00" stroke="#e0e0e0" stroke-width="1"/>
<text x="10" y="59.00" font-size="12" font-family="Consolas, monospace">1.0</text>
<polyline points="55.00,55.00 57.71,55.00 60.42,55.00 63.13,55.00 65.84,55.00 68.55,55.00 71.25,55.00 73.96,55.00 76.67,55.00 79.38,55.00 82.09,55.00 84.80,55.00 87.51,55.00 90.22,55.00 92.93,55.00 95.64,55.00 98.34,55.00 101.05,55.00 103.76,55.00 106.47,55.00 109.18,55.00 111.89,55.00 114.60,55.00 117.31,55.00 120.02,55.00 122.73,55.00 125.43,55.00 128.14,55.00 130.85,55.00 133.56,55.00 136.27,55.00 138.98,55.00 141.69,55.00 144.40,55.00 147.11,55.00 149.82,55.00 152.53,55.00 155.23,55.00 157.94,55.00 160.65,55.00 163.36,55.00 166.07,55.00 168.78,55.00 171.49,55.00 174.20,55.00 176.91,55.00 179.62,55.00 182.32,58.80 185.03,66.58 187.74,74.35 190.45,82.13 193.16,89.91 195.87,97.68 198.58,105.46 201.29,113.23 204.00,121.01 206.71,128.78 209.41,136.56 212.12,144.34 214.83,152.11 217.54,159.89 220.25,167.66 222.96,175.44 225.67,183.22 228.38,190.99 231.09,198.77 233.80,206.54 236.51,214.32 239.21,222.10 241.92,229.87 244.63,237.65 247.34,245.42 250.05,253.20 252.76,260.98 255.47,268.75 258.18,276.53 260.89,284.30 263.60,292.08 266.30,299.86 269.01,307.63 271.72,315.41 274.43,323.18 277.14,330.96 279.85,338.73 282.56,346.51 285.27,354.29 287.98,362.06 290.69,365.00 293.39,365.00 296.10,365.00 298.81,365.00 301.52,365.00 304.23,365.00 306.94,365.00 309.65,365.00 312.36,365.00 315.07,365.00 317.78,365.00 320.48,365.00 323.19,365.00 325.90,365.00 328.61,365.00 331.32,365.00 334.03,365.00 336.74,365.00 339.45,365.00 342.16,365.00 344.87,365.00 347.58,365.00 350.28,365.00 352.99,365.00 355.70,365.00 358.41,365.00 361.12,365.00 363.83,365.00 366.54,365.00 369.25,365.00 371.96,365.00 374.67,365.00 377.37,365.00 380.08,365.00 382.79,365.00 385.50,365.00 388.21,365.00 390.92,365.00 393.63,365.00 396.34,365.00 399.05,365.00 401.76,365.00 404.46,365.00 407.17,365.00 409.88,365.00 412.59,365.00 415.30,365.00 418.01,365.00 420.72,365.00 423.43,365.00 426.14,365.00 428.85,365.00 431.56,365.00 434.26,365.00 436.97,365.00 439.68,365.00 442.39,365.00 445.10,365.00 447.81,365.00 450.52,365.00 453.23,365.00 455.94,365.00 458.65,365.00 461.35,365.00 464.06,365.00 466.77,365.00 469.48,365.00 472.19,365.00 474.90,365.00 477.61,365.00 480.32,365.00 483.03,365.00 485.74,365.00 488.44,365.00 491.15,365.00 493.86,365.00 496.57,365.00 499.28,365.00 501.99,365.00 504.70,365.00 507.41,365.00 510.12,365.00 512.83,365.00 515.54,365.00 518.24,365.00 520.95,365.00 523.66,365.00 526.37,365.00 529.08,365.00 531.79,365.00 534.50,365.00 537.21,365.00 539.92,365.00 542.63,365.00 545.33,365.00 548.04,365.00 550.75,365.00 553.46,365.00 556.17,365.00 558.88,365.00 561.59,365.00 564.30,365.00 567.01,365.00 569.72,365.00 572.42,365.00 575.13,365.00 577.84,365.00 580.55,365.00 583.26,365.00 585.97,365.00 588.68,365.00 591.39,365.00 594.10,365.00 596.81,365.00 599.52,365.00 602.22,365.00 604.93,365.00 607.64,365.00 610.35,365.00 613.06,365.00 615.77,365.00 618.48,365.00 621.19,365.00 623.90,365.00 626.61,365.00 629.31,365.00 632.02,365.00 634.73,365.00 637.44,365.00 640.15,365.00 642.86,365.00 645.57,365.00 648.28,365.00 650.99,365.00 653.70,365.00 656.40,365.00 659.11,365.00 661.82,365.00 664.53,365.00 667.24,365.00 669.95,365.00 672.66,365.00 675.37,365.00 678.08,365.00 680.79,365.00 683.49,365.00 686.20,365.00 688.91,365.00 691.62,365.00 694.33,365.00 697.04,365.00 699.75,365.00 702.46,365.00 705.17,365.00 707.88,365.00 710.59,365.00 713.29,365.00 716.00,365.00 718.71,365.00 721.42,365.00 724.13,365.00 726.84,365.00 729.55,365.00 732.26,365.00 734.97,365.00 737.68,365.00 740.38,365.00 743.09,365.00 745.80,365.00 748.51,365.00 751.22,365.00 753.93,365.00 756.64,365.00 759.35,365.00 762.06,365.00 764.77,365.00 767.47,365.00 770.18,365.00 772.89,365.00 775.60,365.00 778.31,365.00 781.02,365.00 783.73,365.00 786.44,365.00 789.15,365.00 791.86,365.00 794.57,365.00 797.27,365.00 799.98,365.00 802.69,365.00 805.40,365.00 808.11,365.00 810.82,365.00 813.53,365.00 816.24,365.00 818.95,365.00 821.66,365.00 824.36,365.00 827.07,365.00 829.78,365.00 832.49,365.00 835.20,365.00 837.91,365.00 840.62,365.00 843.33,365.00 846.04,365.00 848.75,365.00 851.45,365.00 854.16,365.00 856.87,365.00 859.58,365.00 862.29,365.00 865.00,365.00" fill="none" stroke="#0b5fff" stroke-width="2.2"/>
<polyline points="55.00,365.00 57.71,55.00 60.42,55.00 63.13,55.00 65.84,55.00 68.55,55.00 71.25,55.00 73.96,55.00 76.67,55.00 79.38,55.00 82.09,55.00 84.80,55.00 87.51,55.00 90.22,55.00 92.93,55.00 95.64,55.00 98.34,55.00 101.05,55.00 103.76,55.00 106.47,55.00 109.18,55.00 111.89,55.00 114.60,55.00 117.31,55.00 120.02,55.00 122.73,55.00 125.43,55.00 128.14,55.00 130.85,55.00 133.56,55.00 136.27,55.00 138.98,55.00 141.69,55.00 144.40,55.00 147.11,55.00 149.82,55.00 152.53,55.00 155.23,55.00 157.94,55.00 160.65,55.00 163.36,55.00 166.07,55.00 168.78,55.00 171.49,55.00 174.20,55.00 176.91,55.00 179.62,57.32 182.32,65.43 185.03,73.55 187.74,81.66 190.45,89.77 193.16,97.88 195.87,105.99 198.58,114.11 201.29,122.22 204.00,130.33 206.71,138.44 209.41,146.56 212.12,154.67 214.83,162.78 217.54,170.89 220.25,179.01 222.96,187.12 225.67,195.23 228.38,203.34 231.09,211.45 233.80,219.57 236.51,227.68 239.21,235.79 241.92,243.90 244.63,252.02 247.34,260.13 250.05,268.24 252.76,276.35 255.47,284.46 258.18,292.58 260.89,300.69 263.60,308.80 266.30,316.91 269.01,325.03 271.72,333.14 274.43,341.25 277.14,349.36 279.85,357.47 282.56,365.00 285.27,365.00 287.98,365.00 290.69,365.00 293.39,365.00 296.10,365.00 298.81,365.00 301.52,365.00 304.23,365.00 306.94,365.00 309.65,365.00 312.36,365.00 315.07,365.00 317.78,365.00 320.48,365.00 323.19,365.00 325.90,365.00 328.61,365.00 331.32,365.00 334.03,365.00 336.74,365.00 339.45,365.00 342.16,365.00 344.87,365.00 347.58,365.00 350.28,365.00 352.99,365.00 355.70,365.00 358.41,365.00 361.12,365.00 363.83,365.00 366.54,365.00 369.25,365.00 371.96,365.00 374.67,365.00 377.37,365.00 380.08,365.00 382.79,365.00 385.50,365.00 388.21,365.00 390.92,365.00 393.63,365.00 396.34,365.00 399.05,365.00 401.76,365.00 404.46,365.00 407.17,365.00 409.88,365.00 412.59,365.00 415.30,365.00 418.01,365.00 420.72,365.00 423.43,365.00 426.14,365.00 428.85,365.00 431.56,365.00 434.26,365.00 436.97,365.00 439.68,365.00 442.39,365.00 445.10,365.00 447.81,365.00 450.52,365.00 453.23,365.00 455.94,365.00 458.65,365.00 461.35,365.00 464.06,365.00 466.77,365.00 469.48,365.00 472.19,365.00 474.90,365.00 477.61,365.00 480.32,365.00 483.03,365.00 485.74,365.00 488.44,365.00 491.15,365.00 493.86,365.00 496.57,365.00 499.28,365.00 501.99,365.00 504.70,365.00 507.41,365.00 510.12,365.00 512.83,365.00 515.54,365.00 518.24,365.00 520.95,365.00 523.66,365.00 526.37,365.00 529.08,365.00 531.79,365.00 534.50,365.00 537.21,365.00 539.92,365.00 542.63,365.00 545.33,365.00 548.04,365.00 550.75,365.00 553.46,365.00 556.17,365.00 558.88,365.00 561.59,365.00 564.30,365.00 567.01,365.00 569.72,365.00 572.42,365.00 575.13,365.00 577.84,365.00 580.55,365.00 583.26,365.00 585.97,365.00 588.68,365.00 591.39,365.00 594.10,365.00 596.81,365.00 599.52,365.00 602.22,365.00 604.93,365.00 607.64,365.00 610.35,365.00 613.06,365.00 615.77,365.00 618.48,365.00 621.19,365.00 623.90,365.00 626.61,365.00 629.31,365.00 632.02,365.00 634.73,365.00 637.44,365.00 640.15,365.00 642.86,365.00 645.57,365.00 648.28,365.00 650.99,365.00 653.70,365.00 656.40,365.00 659.11,365.00 661.82,365.00 664.53,365.00 667.24,365.00 669.95,365.00 672.66,365.00 675.37,365.00 678.08,365.00 680.79,365.00 683.49,365.00 686.20,365.00 688.91,365.00 691.62,365.00 694.33,365.00 697.04,365.00 699.75,365.00 702.46,365.00 705.17,365.00 707.88,365.00 710.59,365.00 713.29,365.00 716.00,365.00 718.71,365.00 721.42,365.00 724.13,365.00 726.84,365.00 729.55,365.00 732.26,365.00 734.97,365.00 737.68,365.00 740.38,365.00 743.09,365.00 745.80,365.00 748.51,365.00 751.22,365.00 753.93,365.00 756.64,365.00 759.35,365.00 762.06,365.00 764.77,365.00 767.47,365.00 770.18,365.00 772.89,365.00 775.60,365.00 778.31,365.00 781.02,365.00 783.73,365.00 786.44,365.00 789.15,365.00 791.86,365.00 794.57,365.00 797.27,365.00 799.98,365.00 802.69,365.00 805.40,365.00 808.11,365.00 810.82,365.00 813.53,365.00 816.24,365.00 818.95,365.00 821.66,365.00 824.36,365.00 827.07,365.00 829.78,365.00 832.49,365.00 835.20,365.00 837.91,365.00 840.62,365.00 843.33,365.00 846.04,365.00 848.75,365.00 851.45,365.00 854.16,365.00 856.87,365.00 859.58,365.00 862.29,365.00 865.00,365.00" fill="none" stroke="#0b5fff" stroke-width="2.2" stroke-dasharray="6,4"/>
<text x="620" y="55" font-size="12" font-family="Consolas, monospace" fill="#0b5fff">baja</text>
<polyline points="55.00,365.00 57.71,365.00 60.42,365.00 63.13,365.00 65.84,365.00 68.55,365.00 71.25,365.00 73.96,365.00 76.67,365.00 79.38,365.00 82.09,365.00 84.80,365.00 87.51,365.00 90.22,365.00 92.93,365.00 95.64,365.00 98.34,365.00 101.05,365.00 103.76,365.00 106.47,365.00 109.18,365.00 111.89,365.00 114.60,365.00 117.31,365.00 120.02,365.00 122.73,365.00 125.43,365.00 128.14,365.00 130.85,365.00 133.56,365.00 136.27,365.00 138.98,365.00 141.69,365.00 144.40,365.00 147.11,365.00 149.82,365.00 152.53,365.00 155.23,365.00 157.94,365.00 160.65,365.00 163.36,365.00 166.07,365.00 168.78,365.00 171.49,365.00 174.20,365.00 176.91,365.00 179.62,365.00 182.32,365.00 185.03,365.00 187.74,365.00 190.45,365.00 193.16,365.00 195.87,365.00 198.58,365.00 201.29,365.00 204.00,365.00 206.71,365.00 209.41,365.00 212.12,365.00 214.83,365.00 217.54,363.44 220.25,355.67 222.96,347.89 225.67,340.12 228.38,332.34 231.09,324.57 233.80,316.79 236.51,309.01 239.21,301.24 241.92,293.46 244.63,285.69 247.34,277.91 250.05,270.13 252.76,262.36 255.47,254.58 258.18,246.81 260.89,239.03 263.60,231.25 266.30,223.48 269.01,215.70 271.72,207.93 274.43,200.15 277.14,192.37 279.85,184.60 282.56,176.82 285.27,169.05 287.98,161.27 290.69,153.49 293.39,145.72 296.10,137.94 298.81,130.17 301.52,122.39 304.23,114.62 306.94,106.84 309.65,99.06 312.36,91.29 315.07,83.51 317.78,75.74 320.48,67.96 323.19,60.18 325.90,55.00 328.61,55.00 331.32,55.00 334.03,55.00 336.74,55.00 339.45,55.00 342.16,55.00 344.87,55.00 347.58,55.00 350.28,55.00 352.99,55.00 355.70,55.00 358.41,55.00 361.12,55.00 363.83,55.00 366.54,55.00 369.25,55.00 371.96,55.00 374.67,55.00 377.37,55.00 380.08,55.00 382.79,55.00 385.50,55.00 388.21,55.00 390.92,55.00 393.63,55.00 396.34,55.00 399.05,55.00 401.76,55.00 404.46,55.00 407.17,55.00 409.88,55.00 412.59,55.00 415.30,55.00 418.01,55.00 420.72,55.00 423.43,55.00 426.14,55.00 428.85,55.00 431.56,55.00 434.26,55.00 436.97,55.00 439.68,55.00 442.39,55.00 445.10,55.00 447.81,55.00 450.52,55.00 453.23,55.00 455.94,55.00 458.65,55.00 461.35,55.00 464.06,55.00 466.77,55.00 469.48,55.00 472.19,55.00 474.90,55.00 477.61,55.00 480.32,55.00 483.03,55.00 485.74,55.00 488.44,55.00 491.15,55.00 493.86,55.00 496.57,55.00 499.28,55.00 501.99,55.00 504.70,55.00 507.41,61.91 510.12,69.69 512.83,77.46 515.54,85.24 518.24,93.02 520.95,100.79 523.66,108.57 526.37,116.34 529.08,124.12 531.79,131.90 534.50,139.67 537.21,147.45 539.92,155.22 542.63,163.00 545.33,170.77 548.04,178.55 550.75,186.33 553.46,194.10 556.17,201.88 558.88,209.65 561.59,217.43 564.30,225.21 567.01,232.98 569.72,240.76 572.42,248.53 575.13,256.31 577.84,264.09 580.55,271.86 583.26,279.64 585.97,287.41 588.68,295.19 591.39,302.97 594.10,310.74 596.81,318.52 599.52,326.29 602.22,334.07 604.93,341.85 607.64,349.62 610.35,357.40 613.06,365.00 615.77,365.00 618.48,365.00 621.19,365.00 623.90,365.00 626.61,365.00 629.31,365.00 632.02,365.00 634.73,365.00 637.44,365.00 640.15,365.00 642.86,365.00 645.57,365.00 648.28,365.00 650.99,365.00 653.70,365.00 656.40,365.00 659.11,365.00 661.82,365.00 664.53,365.00 667.24,365.00 669.95,365.00 672.66,365.00 675.37,365.00 678.08,365.00 680.79,365.00 683.49,365.00 686.20,365.00 688.91,365.00 691.62,365.00 694.33,365.00 697.04,365.00 699.75,365.00 702.46,365.00 705.17,365.00 707.88,365.00 710.59,365.00 713.29,365.00 716.00,365.00 718.71,365.00 721.42,365.00 724.13,365.00 726.84,365.00 729.55,365.00 732.26,365.00 734.97,365.00 737.68,365.00 740.38,365.00 743.09,365.00 745.80,365.00 748.51,365.00 751.22,365.00 753.93,365.00 756.64,365.00 759.35,365.00 762.06,365.00 764.77,365.00 767.47,365.00 770.18,365.00 772.89,365.00 775.60,365.00 778.31,365.00 781.02,365.00 783.73,365.00 786.44,365.00 789.15,365.00 791.86,365.00 794.57,365.00 797.27,365.00 799.98,365.00 802.69,365.00 805.40,365.00 808.11,365.00 810.82,365.00 813.53,365.00 816.24,365.00 818.95,365.00 821.66,365.00 824.36,365.00 827.07,365.00 829.78,365.00 832.49,365.00 835.20,365.00 837.91,365.00 840.62,365.00 843.33,365.00 846.04,365.00 848.75,365.00 851.45,365.00 854.16,365.00 856.87,365.00 859.58,365.00 862.29,365.00 865.00,365.00" fill="none" stroke="#009688" stroke-width="2.2"/>
<polyline points="55.00,365.00 57.71,365.00 60.42,365.00 63.13,365.00 65.84,365.00 68.55,365.00 71.25,365.00 73.96,365.00 76.67,365.00 79.38,365.00 82.09,365.00 84.80,365.00 87.51,365.00 90.22,365.00 92.93,365.00 95.64,365.00 98.34,365.00 101.05,365.00 103.76,365.00 106.47,365.00 109.18,365.00 111.89,365.00 114.60,365.00 117.31,365.00 120.02,365.00 122.73,365.00 125.43,365.00 128.14,365.00 130.85,365.00 133.56,365.00 136.27,365.00 138.98,365.00 141.69,365.00 144.40,365.00 147.11,365.00 149.82,365.00 152.53,365.00 155.23,365.00 157.94,365.00 160.65,365.00 163.36,365.00 166.07,365.00 168.78,365.00 171.49,365.00 174.20,365.00 176.91,365.00 179.62,365.00 182.32,365.00 185.03,365.00 187.74,365.00 190.45,365.00 193.16,365.00 195.87,365.00 198.58,365.00 201.29,365.00 204.00,365.00 206.71,365.00 209.41,365.00 212.12,365.00 214.83,365.00 217.54,365.00 220.25,365.00 222.96,365.00 225.67,359.13 228.38,351.62 231.09,344.12 233.80,336.61 236.51,329.11 239.21,321.60 241.92,314.09 244.63,306.59 247.34,299.08 250.05,291.58 252.76,284.07 255.47,276.56 258.18,269.06 260.89,261.55 263.60,254.05 266.30,246.54 269.01,239.04 271.72,231.53 274.43,224.02 277.14,216.52 279.85,209.01 282.56,201.51 285.27,194.00 287.98,186.49 290.69,178.99 293.39,171.48 296.10,163.98 298.81,156.47 301.52,148.97 304.23,141.46 306.94,133.95 309.65,126.45 312.36,118.94 315.07,111.44 317.78,103.93 320.48,96.42 323.19,88.92 325.90,81.41 328.61,73.91 331.32,66.40 334.03,58.90 336.74,55.00 339.45,55.00 342.16,55.00 344.87,55.00 347.58,55.00 350.28,55.00 352.99,55.00 355.70,55.00 358.41,55.00 361.12,55.00 363.83,55.00 366.54,55.00 369.25,55.00 371.96,55.00 374.67,55.00 377.37,55.00 380.08,55.00 382.79,55.00 385.50,55.00 388.21,55.00 390.92,55.00 393.63,55.00 396.34,55.00 399.05,55.00 401.76,55.00 404.46,55.00 407.17,55.00 409.88,55.00 412.59,55.00 415.30,55.00 418.01,55.00 420.72,55.00 423.43,55.00 426.14,55.00 428.85,55.00 431.56,55.00 434.26,55.00 436.97,55.00 439.68,55.00 442.39,55.00 445.10,55.00 447.81,55.00 450.52,55.00 453.23,55.00 455.94,55.00 458.65,55.00 461.35,55.00 464.06,55.00 466.77,55.00 469.48,55.00 472.19,55.00 474.90,55.00 477.61,55.00 480.32,55.00 483.03,55.00 485.74,55.00 488.44,55.00 491.15,55.00 493.86,55.00 496.57,55.00 499.28,57.43 501.99,64.46 504.70,71.49 507.41,78.53 510.12,85.56 512.83,92.60 515.54,99.63 518.24,106.66 520.95,113.70 523.66,120.73 526.37,127.76 529.08,134.80 531.79,141.83 534.50,148.86 537.21,155.90 539.92,162.93 542.63,169.96 545.33,177.00 548.04,184.03 550.75,191.06 553.46,198.10 556.17,205.13 558.88,212.16 561.59,219.20 564.30,226.23 567.01,233.26 569.72,240.30 572.42,247.33 575.13,254.36 577.84,261.40 580.55,268.43 583.26,275.47 585.97,282.50 588.68,289.53 591.39,296.57 594.10,303.60 596.81,310.63 599.52,317.67 602.22,324.70 604.93,331.73 607.64,338.77 610.35,345.80 613.06,352.83 615.77,359.87 618.48,365.00 621.19,365.00 623.90,365.00 626.61,365.00 629.31,365.00 632.02,365.00 634.73,365.00 637.44,365.00 640.15,365.00 642.86,365.00 645.57,365.00 648.28,365.00 650.99,365.00 653.70,365.00 656.40,365.00 659.11,365.00 661.82,365.00 664.53,365.00 667.24,365.00 669.95,365.00 672.66,365.00 675.37,365.00 678.08,365.00 680.79,365.00 683.49,365.00 686.20,365.00 688.91,365.00 691.62,365.00 694.33,365.00 697.04,365.00 699.75,365.00 702.46,365.00 705.17,365.00 707.88,365.00 710.59,365.00 713.29,365.00 716.00,365.00 718.71,365.00 721.42,365.00 724.13,365.00 726.84,365.00 729.55,365.00 732.26,365.00 734.97,365.00 737.68,365.00 740.38,365.00 743.09,365.00 745.80,365.00 748.51,365.00 751.22,365.00 753.93,365.00 756.64,365.00 759.35,365.00 762.06,365.00 764.77,365.00 767.47,365.00 770.18,365.00 772.89,365.00 775.60,365.00 778.31,365.00 781.02,365.00 783.73,365.00 786.44,365.00 789.15,365.00 791.86,365.00 794.57,365.00 797.27,365.00 799.98,365.00 802.69,365.00 805.40,365.00 808.11,365.00 810.82,365.00 813.53,365.00 816.24,365.00 818.95,365.00 821.66,365.00 824.36,365.00 827.07,365.00 829.78,365.00 832.49,365.00 835.20,365.00 837.91,365.00 840.62,365.00 843.33,365.00 846.04,365.00 848.75,365.00 851.45,365.00 854.16,365.00 856.87,365.00 859.58,365.00 862.29,365.00 865.00,365.00" fill="none" stroke="#009688" stroke-width="2.2" stroke-dasharray="6,4"/>
<text x="620" y="73" font-size="12" font-family="Consolas, monospace" fill="#009688">normal</text>
<polyline points="55.00,365.00 57.71,365.00 60.42,365.00 63.13,365.00 65.84,365.00 68.55,365.00 71.25,365.00 73.96,365.00 76.67,365.00 79.38,365.00 82.09,365.00 84.80,365.00 87.51,365.00 90.22,365.00 92.93,365.00 95.64,365.00 98.34,365.00 101.05,365.00 103.76,365.00 106.47,365.00 109.18,365.00 111.89,365.00 114.60,365.00 117.31,365.00 120.02,365.00 122.73,365.00 125.43,365.00 128.14,365.00 130.85,365.00 133.56,365.00 136.27,365.00 138.98,365.00 141.69,365.00 144.40,365.00 147.11,365.00 149.82,365.00 152.53,365.00 155.23,365.00 157.94,365.00 160.65,365.00 163.36,365.00 166.07,365.00 168.78,365.00 171.49,365.00 174.20,365.00 176.91,365.00 179.62,365.00 182.32,365.00 185.03,365.00 187.74,365.00 190.45,365.00 193.16,365.00 195.87,365.00 198.58,365.00 201.29,365.00 204.00,365.00 206.71,365.00 209.41,365.00 212.12,365.00 214.83,365.00 217.54,365.00 220.25,365.00 222.96,365.00 225.67,365.00 228.38,365.00 231.09,365.00 233.80,365.00 236.51,365.00 239.21,365.00 241.92,365.00 244.63,365.00 247.34,365.00 250.05,365.00 252.76,365.00 255.47,365.00 258.18,365.00 260.89,365.00 263.60,365.00 266.30,365.00 269.01,365.00 271.72,365.00 274.43,365.00 277.14,365.00 279.85,365.00 282.56,365.00 285.27,365.00 287.98,365.00 290.69,365.00 293.39,365.00 296.10,365.00 298.81,365.00 301.52,365.00 304.23,365.00 306.94,365.00 309.65,365.00 312.36,365.00 315.07,365.00 317.78,365.00 320.48,365.00 323.19,365.00 325.90,365.00 328.61,365.00 331.32,365.00 334.03,365.00 336.74,365.00 339.45,365.00 342.16,365.00 344.87,365.00 347.58,365.00 350.28,365.00 352.99,365.00 355.70,365.00 358.41,365.00 361.12,365.00 363.83,365.00 366.54,365.00 369.25,365.00 371.96,365.00 374.67,365.00 377.37,365.00 380.08,365.00 382.79,365.00 385.50,365.00 388.21,365.00 390.92,365.00 393.63,365.00 396.34,365.00 399.05,365.00 401.76,365.00 404.46,365.00 407.17,365.00 409.88,365.00 412.59,365.00 415.30,365.00 418.01,365.00 420.72,365.00 423.43,365.00 426.14,365.00 428.85,365.00 431.56,365.00 434.26,365.00 436.97,365.00 439.68,365.00 442.39,365.00 445.10,365.00 447.81,365.00 450.52,365.00 453.23,365.00 455.94,365.00 458.65,365.00 461.35,365.00 464.06,365.00 466.77,365.00 469.48,365.00 472.19,365.00 474.90,365.00 477.61,365.00 480.32,365.00 483.03,365.00 485.74,365.00 488.44,365.00 491.15,365.00 493.86,365.00 496.57,365.00 499.28,365.00 501.99,365.00 504.70,365.00 507.41,365.00 510.12,365.00 512.83,365.00 515.54,365.00 518.24,365.00 520.95,365.00 523.66,365.00 526.37,365.00 529.08,365.00 531.79,365.00 534.50,365.00 537.21,365.00 539.92,365.00 542.63,358.00 545.33,346.34 548.04,334.67 550.75,323.01 553.46,311.35 556.17,299.68 558.88,288.02 561.59,276.35 564.30,264.69 567.01,253.03 569.72,241.36 572.42,229.70 575.13,218.04 577.84,206.37 580.55,194.71 583.26,183.04 585.97,171.38 588.68,159.72 591.39,148.05 594.10,136.39 596.81,124.72 599.52,113.06 602.22,101.40 604.93,89.73 607.64,78.07 610.35,66.40 613.06,55.00 615.77,55.00 618.48,55.00 621.19,55.00 623.90,55.00 626.61,55.00 629.31,55.00 632.02,55.00 634.73,55.00 637.44,55.00 640.15,55.00 642.86,55.00 645.57,55.00 648.28,55.00 650.99,55.00 653.70,55.00 656.40,55.00 659.11,55.00 661.82,55.00 664.53,55.00 667.24,55.00 669.95,55.00 672.66,55.00 675.37,55.00 678.08,55.00 680.79,55.00 683.49,55.00 686.20,55.00 688.91,55.00 691.62,55.00 694.33,55.00 697.04,55.00 699.75,55.00 702.46,55.00 705.17,55.00 707.88,55.00 710.59,55.00 713.29,55.00 716.00,55.00 718.71,55.00 721.42,55.00 724.13,55.00 726.84,55.00 729.55,55.00 732.26,55.00 734.97,55.00 737.68,55.00 740.38,55.00 743.09,55.00 745.80,55.00 748.51,55.00 751.22,55.00 753.93,55.00 756.64,55.00 759.35,55.00 762.06,55.00 764.77,55.00 767.47,55.00 770.18,55.00 772.89,55.00 775.60,55.00 778.31,55.00 781.02,55.00 783.73,55.00 786.44,55.00 789.15,55.00 791.86,55.00 794.57,55.00 797.27,55.00 799.98,55.00 802.69,55.00 805.40,55.00 808.11,55.00 810.82,55.00 813.53,55.00 816.24,55.00 818.95,55.00 821.66,55.00 824.36,55.00 827.07,55.00 829.78,55.00 832.49,55.00 835.20,55.00 837.91,55.00 840.62,55.00 843.33,55.00 846.04,55.00 848.75,55.00 851.45,55.00 854.16,55.00 856.87,55.00 859.58,55.00 862.29,55.00 865.00,55.00" fill="none" stroke="#ef6c00" stroke-width="2.2"/>
<polyline points="55.00,365.00 57.71,365.00 60.42,365.00 63.13,365.00 65.84,365.00 68.55,365.00 71.25,365.00 73.96,365.00 76.67,365.00 79.38,365.00 82.09,365.00 84.80,365.00 87.51,365.00 90.22,365.00 92.93,365.00 95.64,365.00 98.34,365.00 101.05,365.00 103.76,365.00 106.47,365.00 109.18,365.00 111.89,365.00 114.60,365.00 117.31,365.00 120.02,365.00 122.73,365.00 125.43,365.00 128.14,365.00 130.85,365.00 133.56,365.00 136.27,365.00 138.98,365.00 141.69,365.00 144.40,365.00 147.11,365.00 149.82,365.00 152.53,365.00 155.23,365.00 157.94,365.00 160.65,365.00 163.36,365.00 166.07,365.00 168.78,365.00 171.49,365.00 174.20,365.00 176.91,365.00 179.62,365.00 182.32,365.00 185.03,365.00 187.74,365.00 190.45,365.00 193.16,365.00 195.87,365.00 198.58,365.00 201.29,365.00 204.00,365.00 206.71,365.00 209.41,365.00 212.12,365.00 214.83,365.00 217.54,365.00 220.25,365.00 222.96,365.00 225.67,365.00 228.38,365.00 231.09,365.00 233.80,365.00 236.51,365.00 239.21,365.00 241.92,365.00 244.63,365.00 247.34,365.00 250.05,365.00 252.76,365.00 255.47,365.00 258.18,365.00 260.89,365.00 263.60,365.00 266.30,365.00 269.01,365.00 271.72,365.00 274.43,365.00 277.14,365.00 279.85,365.00 282.56,365.00 285.27,365.00 287.98,365.00 290.69,365.00 293.39,365.00 296.10,365.00 298.81,365.00 301.52,365.00 304.23,365.00 306.94,365.00 309.65,365.00 312.36,365.00 315.07,365.00 317.78,365.00 320.48,365.00 323.19,365.00 325.90,365.00 328.61,365.00 331.32,365.00 334.03,365.00 336.74,365.00 339.45,365.00 342.16,365.00 344.87,365.00 347.58,365.00 350.28,365.00 352.99,365.00 355.70,365.00 358.41,365.00 361.12,365.00 363.83,365.00 366.54,365.00 369.25,365.00 371.96,365.00 374.67,365.00 377.37,365.00 380.08,365.00 382.79,365.00 385.50,365.00 388.21,365.00 390.92,365.00 393.63,365.00 396.34,365.00 399.05,365.00 401.76,365.00 404.46,365.00 407.17,365.00 409.88,365.00 412.59,365.00 415.30,365.00 418.01,365.00 420.72,365.00 423.43,365.00 426.14,365.00 428.85,365.00 431.56,365.00 434.26,365.00 436.97,365.00 439.68,365.00 442.39,365.00 445.10,365.00 447.81,365.00 450.52,365.00 453.23,365.00 455.94,365.00 458.65,365.00 461.35,365.00 464.06,365.00 466.77,365.00 469.48,365.00 472.19,365.00 474.90,365.00 477.61,365.00 480.32,365.00 483.03,365.00 485.74,365.00 488.44,365.00 491.15,365.00 493.86,365.00 496.57,365.00 499.28,365.00 501.99,365.00 504.70,365.00 507.41,365.00 510.12,365.00 512.83,365.00 515.54,365.00 518.24,365.00 520.95,365.00 523.66,365.00 526.37,365.00 529.08,365.00 531.79,365.00 534.50,365.00 537.21,365.00 539.92,365.00 542.63,365.00 545.33,357.97 548.04,345.64 550.75,333.31 553.46,320.99 556.17,308.66 558.88,296.33 561.59,284.00 564.30,271.67 567.01,259.34 569.72,247.01 572.42,234.68 575.13,222.36 577.84,210.03 580.55,197.70 583.26,185.37 585.97,173.04 588.68,160.71 591.39,148.38 594.10,136.05 596.81,123.73 599.52,111.40 602.22,99.07 604.93,86.74 607.64,74.41 610.35,62.08 613.06,55.00 615.77,55.00 618.48,55.00 621.19,55.00 623.90,55.00 626.61,55.00 629.31,55.00 632.02,55.00 634.73,55.00 637.44,55.00 640.15,55.00 642.86,55.00 645.57,55.00 648.28,55.00 650.99,55.00 653.70,55.00 656.40,55.00 659.11,55.00 661.82,55.00 664.53,55.00 667.24,55.00 669.95,55.00 672.66,55.00 675.37,55.00 678.08,55.00 680.79,55.00 683.49,55.00 686.20,55.00 688.91,55.00 691.62,55.00 694.33,55.00 697.04,55.00 699.75,55.00 702.46,55.00 705.17,55.00 707.88,55.00 710.59,55.00 713.29,55.00 716.00,55.00 718.71,55.00 721.42,55.00 724.13,55.00 726.84,55.00 729.55,55.00 732.26,55.00 734.97,55.00 737.68,55.00 740.38,55.00 743.09,55.00 745.80,55.00 748.51,55.00 751.22,55.00 753.93,55.00 756.64,55.00 759.35,55.00 762.06,55.00 764.77,55.00 767.47,55.00 770.18,55.00 772.89,55.87 775.60,85.37 778.31,114.87 781.02,144.38 783.73,173.88 786.44,203.38 789.15,232.88 791.86,262.39 794.57,291.89 797.27,321.39 799.98,350.89 802.69,365.00 805.40,365.00 808.11,365.00 810.82,365.00 813.53,365.00 816.24,365.00 818.95,365.00 821.66,365.00 824.36,365.00 827.07,365.00 829.78,365.00 832.49,365.00 835.20,365.00 837.91,365.00 840.62,365.00 843.33,365.00 846.04,365.00 848.75,365.00 851.45,365.00 854.16,365.00 856.87,365.00 859.58,365.00 862.29,365.00 865.00,365.00" fill="none" stroke="#ef6c00" stroke-width="2.2" stroke-dasharray="6,4"/>
<text x="620" y="91" font-size="12" font-family="Consolas, monospace" fill="#ef6c00">elevada</text>
<polyline points="55.00,365.00 57.71,365.00 60.42,365.00 63.13,365.00 65.84,365.00 68.55,365.00 71.25,365.00 73.96,365.00 76.67,365.00 79.38,365.00 82.09,365.00 84.80,365.00 87.51,365.00 90.22,365.00 92.93,365.00 95.64,365.00 98.34,365.00 101.05,365.00 103.76,365.00 106.47,365.00 109.18,365.00 111.89,365.00 114.60,365.00 117.31,365.00 120.02,365.00 122.73,365.00 125.43,365.00 128.14,365.00 130.85,365.00 133.56,365.00 136.27,365.00 138.98,365.00 141.69,365.00 144.40,365.00 147.11,365.00 149.82,365.00 152.53,365.00 155.23,365.00 157.94,365.00 160.65,365.00 163.36,365.00 166.07,365.00 168.78,365.00 171.49,365.00 174.20,365.00 176.91,365.00 179.62,365.00 182.32,365.00 185.03,365.00 187.74,365.00 190.45,365.00 193.16,365.00 195.87,365.00 198.58,365.00 201.29,365.00 204.00,365.00 206.71,365.00 209.41,365.00 212.12,365.00 214.83,365.00 217.54,365.00 220.25,365.00 222.96,365.00 225.67,365.00 228.38,365.00 231.09,365.00 233.80,365.00 236.51,365.00 239.21,365.00 241.92,365.00 244.63,365.00 247.34,365.00 250.05,365.00 252.76,365.00 255.47,365.00 258.18,365.00 260.89,365.00 263.60,365.00 266.30,365.00 269.01,365.00 271.72,365.00 274.43,365.00 277.14,365.00 279.85,365.00 282.56,365.00 285.27,365.00 287.98,365.00 290.69,365.00 293.39,365.00 296.10,365.00 298.81,365.00 301.52,365.00 304.23,365.00 306.94,365.00 309.65,365.00 312.36,365.00 315.07,365.00 317.78,365.00 320.48,365.00 323.19,365.00 325.90,365.00 328.61,365.00 331.32,365.00 334.03,365.00 336.74,365.00 339.45,365.00 342.16,365.00 344.87,365.00 347.58,365.00 350.28,365.00 352.99,365.00 355.70,365.00 358.41,365.00 361.12,365.00 363.83,365.00 366.54,365.00 369.25,365.00 371.96,365.00 374.67,365.00 377.37,365.00 380.08,365.00 382.79,365.00 385.50,365.00 388.21,365.00 390.92,365.00 393.63,365.00 396.34,365.00 399.05,365.00 401.76,365.00 404.46,365.00 407.17,365.00 409.88,365.00 412.59,365.00 415.30,365.00 418.01,365.00 420.72,365.00 423.43,365.00 426.14,365.00 428.85,365.00 431.56,365.00 434.26,365.00 436.97,365.00 439.68,365.00 442.39,365.00 445.10,365.00 447.81,365.00 450.52,365.00 453.23,365.00 455.94,365.00 458.65,365.00 461.35,365.00 464.06,365.00 466.77,365.00 469.48,365.00 472.19,365.00 474.90,365.00 477.61,365.00 480.32,365.00 483.03,365.00 485.74,365.00 488.44,365.00 491.15,365.00 493.86,365.00 496.57,365.00 499.28,365.00 501.99,365.00 504.70,365.00 507.41,365.00 510.12,365.00 512.83,365.00 515.54,365.00 518.24,365.00 520.95,365.00 523.66,365.00 526.37,365.00 529.08,365.00 531.79,365.00 534.50,365.00 537.21,365.00 539.92,365.00 542.63,365.00 545.33,365.00 548.04,365.00 550.75,365.00 553.46,365.00 556.17,365.00 558.88,365.00 561.59,365.00 564.30,365.00 567.01,365.00 569.72,365.00 572.42,365.00 575.13,365.00 577.84,365.00 580.55,365.00 583.26,365.00 585.97,365.00 588.68,365.00 591.39,365.00 594.10,365.00 596.81,365.00 599.52,365.00 602.22,365.00 604.93,365.00 607.64,365.00 610.35,365.00 613.06,365.00 615.77,365.00 618.48,365.00 621.19,365.00 623.90,365.00 626.61,365.00 629.31,365.00 632.02,365.00 634.73,365.00 637.44,365.00 640.15,365.00 642.86,365.00 645.57,365.00 648.28,365.00 650.99,365.00 653.70,365.00 656.40,365.00 659.11,365.00 661.82,365.00 664.53,365.00 667.24,365.00 669.95,365.00 672.66,365.00 675.37,365.00 678.08,365.00 680.79,365.00 683.49,365.00 686.20,359.82 688.91,348.15 691.62,336.49 694.33,324.82 697.04,313.16 699.75,301.50 702.46,289.83 705.17,278.17 707.88,266.51 710.59,254.84 713.29,243.18 716.00,231.51 718.71,219.85 721.42,208.19 724.13,196.52 726.84,184.86 729.55,173.19 732.26,161.53 734.97,149.87 737.68,138.20 740.38,126.54 743.09,114.87 745.80,103.21 748.51,91.55 751.22,79.88 753.93,68.22 756.64,56.56 759.35,55.00 762.06,55.00 764.77,55.00 767.47,55.00 770.18,55.00 772.89,55.00 775.60,55.00 778.31,55.00 781.02,55.00 783.73,55.00 786.44,55.00 789.15,55.00 791.86,55.00 794.57,55.00 797.27,55.00 799.98,55.00 802.69,55.00 805.40,55.00 808.11,55.00 810.82,55.00 813.53,55.00 816.24,55.00 818.95,55.00 821.66,55.00 824.36,55.00 827.07,55.00 829.78,55.00 832.49,55.00 835.20,55.00 837.91,55.00 840.62,55.00 843.33,55.00 846.04,55.00 848.75,55.00 851.45,55.00 854.16,55.00 856.87,55.00 859.58,55.00 862.29,55.00 865.00,55.00" fill="none" stroke="#c62828" stroke-width="2.2"/>
<polyline points="55.00,365.00 57.71,365.00 60.42,365.00 63.13,365.00 65.84,365.00 68.55,365.00 71.25,365.00 73.96,365.00 76.67,365.00 79.38,365.00 82.09,365.00 84.80,365.00 87.51,365.00 90.22,365.00 92.93,365.00 95.64,365.00 98.34,365.00 101.05,365.00 103.76,365.00 106.47,365.00 109.18,365.00 111.89,365.00 114.60,365.00 117.31,365.00 120.02,365.00 122.73,365.00 125.43,365.00 128.14,365.00 130.85,365.00 133.56,365.00 136.27,365.00 138.98,365.00 141.69,365.00 144.40,365.00 147.11,365.00 149.82,365.00 152.53,365.00 155.23,365.00 157.94,365.00 160.65,365.00 163.36,365.00 166.07,365.00 168.78,365.00 171.49,365.00 174.20,365.00 176.91,365.00 179.62,365.00 182.32,365.00 185.03,365.00 187.74,365.00 190.45,365.00 193.16,365.00 195.87,365.00 198.58,365.00 201.29,365.00 204.00,365.00 206.71,365.00 209.41,365.00 212.12,365.00 214.83,365.00 217.54,365.00 220.25,365.00 222.96,365.00 225.67,365.00 228.38,365.00 231.09,365.00 233.80,365.00 236.51,365.00 239.21,365.00 241.92,365.00 244.63,365.00 247.34,365.00 250.05,365.00 252.76,365.00 255.47,365.00 258.18,365.00 260.89,365.00 263.60,365.00 266.30,365.00 269.01,365.00 271.72,365.00 274.43,365.00 277.14,365.00 279.85,365.00 282.56,365.00 285.27,365.00 287.98,365.00 290.69,365.00 293.39,365.00 296.10,365.00 298.81,365.00 301.52,365.00 304.23,365.00 306.94,365.00 309.65,365.00 312.36,365.00 315.07,365.00 317.78,365.00 320.48,365.00 323.19,365.00 325.90,365.00 328.61,365.00 331.32,365.00 334.03,365.00 336.74,365.00 339.45,365.00 342.16,365.00 344.87,365.00 347.58,365.00 350.28,365.00 352.99,365.00 355.70,365.00 358.41,365.00 361.12,365.00 363.83,365.00 366.54,365.00 369.25,365.00 371.96,365.00 374.67,365.00 377.37,365.00 380.08,365.00 382.79,365.00 385.50,365.00 388.21,365.00 390.92,365.00 393.63,365.00 396.34,365.00 399.05,365.00 401.76,365.00 404.46,365.00 407.17,365.00 409.88,365.00 412.59,365.00 415.30,365.00 418.01,365.00 420.72,365.00 423.43,365.00 426.14,365.00 428.85,365.00 431.56,365.00 434.26,365.00 436.97,365.00 439.68,365.00 442.39,365.00 445.10,365.00 447.81,365.00 450.52,365.00 453.23,365.00 455.94,365.00 458.65,365.00 461.35,365.00 464.06,365.00 466.77,365.00 469.48,365.00 472.19,365.00 474.90,365.00 477.61,365.00 480.32,365.00 483.03,365.00 485.74,365.00 488.44,365.00 491.15,365.00 493.86,365.00 496.57,365.00 499.28,365.00 501.99,365.00 504.70,365.00 507.41,365.00 510.12,365.00 512.83,365.00 515.54,365.00 518.24,365.00 520.95,365.00 523.66,365.00 526.37,365.00 529.08,365.00 531.79,365.00 534.50,365.00 537.21,365.00 539.92,365.00 542.63,365.00 545.33,365.00 548.04,365.00 550.75,365.00 553.46,365.00 556.17,365.00 558.88,365.00 561.59,365.00 564.30,365.00 567.01,365.00 569.72,365.00 572.42,365.00 575.13,365.00 577.84,365.00 580.55,365.00 583.26,365.00 585.97,365.00 588.68,365.00 591.39,365.00 594.10,365.00 596.81,365.00 599.52,365.00 602.22,365.00 604.93,365.00 607.64,365.00 610.35,365.00 613.06,365.00 615.77,365.00 618.48,365.00 621.19,365.00 623.90,365.00 626.61,365.00 629.31,365.00 632.02,365.00 634.73,365.00 637.44,365.00 640.15,365.00 642.86,365.00 645.57,365.00 648.28,365.00 650.99,365.00 653.70,365.00 656.40,365.00 659.11,365.00 661.82,365.00 664.53,365.00 667.24,365.00 669.95,365.00 672.66,365.00 675.37,365.00 678.08,365.00 680.79,365.00 683.49,365.00 686.20,365.00 688.91,365.00 691.62,365.00 694.33,365.00 697.04,365.00 699.75,365.00 702.46,365.00 705.17,365.00 707.88,365.00 710.59,365.00 713.29,365.00 716.00,365.00 718.71,365.00 721.42,365.00 724.13,365.00 726.84,365.00 729.55,365.00 732.26,365.00 734.97,365.00 737.68,365.00 740.38,365.00 743.09,365.00 745.80,365.00 748.51,365.00 751.22,365.00 753.93,365.00 756.64,365.00 759.35,365.00 762.06,365.00 764.77,365.00 767.47,365.00 770.18,365.00 772.89,365.00 775.60,365.00 778.31,365.00 781.02,365.00 783.73,365.00 786.44,365.00 789.15,347.10 791.86,231.16 794.57,115.22 797.27,55.00 799.98,55.00 802.69,55.00 805.40,55.00 808.11,55.00 810.82,55.00 813.53,55.00 816.24,55.00 818.95,55.00 821.66,89.99 824.36,145.35 827.07,200.71 829.78,256.07 832.49,311.43 835.20,365.00 837.91,365.00 840.62,365.00 843.33,365.00 846.04,365.00 848.75,365.00 851.45,365.00 854.16,365.00 856.87,365.00 859.58,365.00 862.29,365.00 865.00,365.00" fill="none" stroke="#c62828" stroke-width="2.2" stroke-dasharray="6,4"/>
<text x="620" y="109" font-size="12" font-family="Consolas, monospace" fill="#c62828">taquicardia</text>
<polyline points="55.00,365.00 57.71,365.00 60.42,365.00 63.13,365.00 65.84,365.00 68.55,365.00 71.25,365.00 73.96,365.00 76.67,365.00 79.38,365.00 82.09,365.00 84.80,365.00 87.51,365.00 90.22,365.00 92.93,365.00 95.64,365.00 98.34,365.00 101.05,365.00 103.76,365.00 106.47,365.00 109.18,365.00 111.89,365.00 114.60,365.00 117.31,365.00 120.02,365.00 122.73,365.00 125.43,365.00 128.14,365.00 130.85,365.00 133.56,365.00 136.27,365.00 138.98,365.00 141.69,365.00 144.40,365.00 147.11,365.00 149.82,365.00 152.53,365.00 155.23,365.00 157.94,365.00 160.65,365.00 163.36,365.00 166.07,365.00 168.78,365.00 171.49,365.00 174.20,365.00 176.91,365.00 179.62,365.00 182.32,365.00 185.03,365.00 187.74,365.00 190.45,365.00 193.16,365.00 195.87,365.00 198.58,365.00 201.29,365.00 204.00,365.00 206.71,365.00 209.41,365.00 212.12,365.00 214.83,365.00 217.54,365.00 220.25,365.00 222.96,365.00 225.67,365.00 228.38,365.00 231.09,365.00 233.80,365.00 236.51,365.00 239.21,365.00 241.92,365.00 244.63,365.00 247.34,365.00 250.05,365.00 252.76,365.00 255.47,365.00 258.18,365.00 260.89,365.00 263.60,365.00 266.30,365.00 269.01,365.00 271.72,365.00 274.43,365.00 277.14,365.00 279.85,365.00 282.56,365.00 285.27,365.00 287.98,365.00 290.69,365.00 293.39,365.00 296.10,365.00 298.81,365.00 301.52,365.00 304.23,365.00 306.94,365.00 309.65,365.00 312.36,365.00 315.07,365.00 317.78,365.00 320.48,365.00 323.19,365.00 325.90,365.00 328.61,365.00 331.32,365.00 334.03,365.00 336.74,365.00 339.45,365.00 342.16,365.00 344.87,365.00 347.58,365.00 350.28,365.00 352.99,365.00 355.70,365.00 358.41,365.00 361.12,365.00 363.83,365.00 366.54,365.00 369.25,365.00 371.96,365.00 374.67,365.00 377.37,365.00 380.08,365.00 382.79,365.00 385.50,365.00 388.21,365.00 390.92,365.00 393.63,365.00 396.34,365.00 399.05,365.00 401.76,365.00 404.46,365.00 407.17,365.00 409.88,365.00 412.59,365.00 415.30,365.00 418.01,365.00 420.72,365.00 423.43,365.00 426.14,365.00 428.85,365.00 431.56,365.00 434.26,365.00 436.97,365.00 439.68,365.00 442.39,365.00 445.10,365.00 447.81,365.00 450.52,365.00 453.23,365.00 455.94,365.00 458.65,365.00 461.35,365.00 464.06,365.00 466.77,365.00 469.48,365.00 472.19,365.00 474.90,365.00 477.61,365.00 480.32,365.00 483.03,365.00 485.74,365.00 488.44,365.00 491.15,365.00 493.86,365.00 496.57,365.00 499.28,365.00 501.99,365.00 504.70,365.00 507.41,365.00 510.12,365.00 512.83,365.00 515.54,365.00 518.24,365.00 520.95,365.00 523.66,365.00 526.37,365.00 529.08,365.00 531.79,365.00 534.50,365.00 537.21,365.00 539.92,365.00 542.63,365.00 545.33,365.00 548.04,365.00 550.75,365.00 553.46,365.00 556.17,365.00 558.88,365.00 561.59,365.00 564.30,365.00 567.01,365.00 569.72,365.00 572.42,365.00 575.13,365.00 577.84,365.00 580.55,365.00 583.26,365.00 585.97,365.00 588.68,365.00 591.39,365.00 594.10,365.00 596.81,365.00 599.52,365.00 602.22,365.00 604.93,365.00 607.64,365.00 610.35,365.00 613.06,365.00 615.77,365.00 618.48,365.00 621.19,365.00 623.90,365.00 626.61,365.00 629.31,365.00 632.02,365.00 634.73,365.00 637.44,365.00 640.15,365.00 642.86,365.00 645.57,365.00 648.28,365.00 650.99,365.00 653.70,365.00 656.40,365.00 659.11,365.00 661.82,365.00 664.53,365.00 667.24,365.00 669.95,365.00 672.66,365.00 675.37,365.00 678.08,365.00 680.79,365.00 683.49,365.00 686.20,365.00 688.91,365.00 691.62,365.00 694.33,365.00 697.04,365.00 699.75,365.00 702.46,365.00 705.17,365.00 707.88,365.00 710.59,365.00 713.29,365.00 716.00,365.00 718.71,365.00 721.42,365.00 724.13,365.00 726.84,365.00 729.55,365.00 732.26,365.00 734.97,365.00 737.68,365.00 740.38,365.00 743.09,365.00 745.80,365.00 748.51,365.00 751.22,365.00 753.93,365.00 756.64,365.00 759.35,365.00 762.06,365.00 764.77,365.00 767.47,365.00 770.18,365.00 772.89,365.00 775.60,361.54 778.31,345.99 781.02,330.44 783.73,314.89 786.44,299.34 789.15,283.78 791.86,268.23 794.57,252.68 797.27,237.13 799.98,221.58 802.69,206.03 805.40,190.47 808.11,174.92 810.82,159.37 813.53,143.82 816.24,128.27 818.95,112.71 821.66,97.16 824.36,81.61 827.07,66.06 829.78,55.00 832.49,55.00 835.20,55.00 837.91,55.00 840.62,55.00 843.33,55.00 846.04,55.00 848.75,55.00 851.45,55.00 854.16,55.00 856.87,55.00 859.58,55.00 862.29,55.00 865.00,55.00" fill="none" stroke="#6a1b9a" stroke-width="2.2"/>
<polyline points="55.00,365.00 57.71,365.00 60.42,365.00 63.13,365.00 65.84,365.00 68.55,365.00 71.25,365.00 73.96,365.00 76.67,365.00 79.38,365.00 82.09,365.00 84.80,365.00 87.51,365.00 90.22,365.00 92.93,365.00 95.64,365.00 98.34,365.00 101.05,365.00 103.76,365.00 106.47,365.00 109.18,365.00 111.89,365.00 114.60,365.00 117.31,365.00 120.02,365.00 122.73,365.00 125.43,365.00 128.14,365.00 130.85,365.00 133.56,365.00 136.27,365.00 138.98,365.00 141.69,365.00 144.40,365.00 147.11,365.00 149.82,365.00 152.53,365.00 155.23,365.00 157.94,365.00 160.65,365.00 163.36,365.00 166.07,365.00 168.78,365.00 171.49,365.00 174.20,365.00 176.91,365.00 179.62,365.00 182.32,365.00 185.03,365.00 187.74,365.00 190.45,365.00 193.16,365.00 195.87,365.00 198.58,365.00 201.29,365.00 204.00,365.00 206.71,365.00 209.41,365.00 212.12,365.00 214.83,365.00 217.54,365.00 220.25,365.00 222.96,365.00 225.67,365.00 228.38,365.00 231.09,365.00 233.80,365.00 236.51,365.00 239.21,365.00 241.92,365.00 244.63,365.00 247.34,365.00 250.05,365.00 252.76,365.00 255.47,365.00 258.18,365.00 260.89,365.00 263.60,365.00 266.30,365.00 269.01,365.00 271.72,365.00 274.43,365.00 277.14,365.00 279.85,365.00 282.56,365.00 285.27,365.00 287.98,365.00 290.69,365.00 293.39,365.00 296.10,365.00 298.81,365.00 301.52,365.00 304.23,365.00 306.94,365.00 309.65,365.00 312.36,365.00 315.07,365.00 317.78,365.00 320.48,365.00 323.19,365.00 325.90,365.00 328.61,365.00 331.32,365.00 334.03,365.00 336.74,365.00 339.45,365.00 342.16,365.00 344.87,365.00 347.58,365.00 350.28,365.00 352.99,365.00 355.70,365.00 358.41,365.00 361.12,365.00 363.83,365.00 366.54,365.00 369.25,365.00 371.96,365.00 374.67,365.00 377.37,365.00 380.08,365.00 382.79,365.00 385.50,365.00 388.21,365.00 390.92,365.00 393.63,365.00 396.34,365.00 399.05,365.00 401.76,365.00 404.46,365.00 407.17,365.00 409.88,365.00 412.59,365.00 415.30,365.00 418.01,365.00 420.72,365.00 423.43,365.00 426.14,365.00 428.85,365.00 431.56,365.00 434.26,365.00 436.97,365.00 439.68,365.00 442.39,365.00 445.10,365.00 447.81,365.00 450.52,365.00 453.23,365.00 455.94,365.00 458.65,365.00 461.35,365.00 464.06,365.00 466.77,365.00 469.48,365.00 472.19,365.00 474.90,365.00 477.61,365.00 480.32,365.00 483.03,365.00 485.74,365.00 488.44,365.00 491.15,365.00 493.86,365.00 496.57,365.00 499.28,365.00 501.99,365.00 504.70,365.00 507.41,365.00 510.12,365.00 512.83,365.00 515.54,365.00 518.24,365.00 520.95,365.00 523.66,365.00 526.37,365.00 529.08,365.00 531.79,365.00 534.50,365.00 537.21,365.00 539.92,365.00 542.63,365.00 545.33,365.00 548.04,365.00 550.75,365.00 553.46,365.00 556.17,365.00 558.88,365.00 561.59,365.00 564.30,365.00 567.01,365.00 569.72,365.00 572.42,365.00 575.13,365.00 577.84,365.00 580.55,365.00 583.26,365.00 585.97,365.00 588.68,365.00 591.39,365.00 594.10,365.00 596.81,365.00 599.52,365.00 602.22,365.00 604.93,365.00 607.64,365.00 610.35,365.00 613.06,365.00 615.77,365.00 618.48,365.00 621.19,365.00 623.90,365.00 626.61,365.00 629.31,365.00 632.02,365.00 634.73,365.00 637.44,365.00 640.15,365.00 642.86,365.00 645.57,365.00 648.28,365.00 650.99,365.00 653.70,365.00 656.40,365.00 659.11,365.00 661.82,365.00 664.53,365.00 667.24,365.00 669.95,365.00 672.66,365.00 675.37,365.00 678.08,365.00 680.79,365.00 683.49,365.00 686.20,365.00 688.91,365.00 691.62,365.00 694.33,365.00 697.04,365.00 699.75,365.00 702.46,365.00 705.17,365.00 707.88,365.00 710.59,365.00 713.29,365.00 716.00,365.00 718.71,365.00 721.42,365.00 724.13,365.00 726.84,365.00 729.55,365.00 732.26,365.00 734.97,365.00 737.68,365.00 740.38,365.00 743.09,365.00 745.80,365.00 748.51,365.00 751.22,365.00 753.93,365.00 756.64,365.00 759.35,365.00 762.06,365.00 764.77,365.00 767.47,365.00 770.18,365.00 772.89,365.00 775.60,365.00 778.31,365.00 781.02,365.00 783.73,365.00 786.44,365.00 789.15,365.00 791.86,365.00 794.57,365.00 797.27,365.00 799.98,365.00 802.69,365.00 805.40,365.00 808.11,365.00 810.82,365.00 813.53,365.00 816.24,365.00 818.95,365.00 821.66,365.00 824.36,346.86 827.07,309.23 829.78,271.61 832.49,233.99 835.20,196.36 837.91,158.74 840.62,121.11 843.33,83.49 846.04,55.00 848.75,55.00 851.45,55.00 854.16,55.00 856.87,55.00 859.58,55.00 862.29,55.00 865.00,365.00" fill="none" stroke="#6a1b9a" stroke-width="2.2" stroke-dasharray="6,4"/>
<text x="620" y="127" font-size="12" font-family="Consolas, monospace" fill="#6a1b9a">taquicardia_marcada</text>
<line x1="55.00" y1="365" x2="55.00" y2="371" stroke="#333" stroke-width="1"/>
<text x="43.00" y="387" font-size="12" font-family="Consolas, monospace">55.0</text>
<line x1="170.71" y1="365" x2="170.71" y2="371" stroke="#333" stroke-width="1"/>
<text x="158.71" y="387" font-size="12" font-family="Consolas, monospace">61.4</text>
<line x1="286.43" y1="365" x2="286.43" y2="371" stroke="#333" stroke-width="1"/>
<text x="274.43" y="387" font-size="12" font-family="Consolas, monospace">67.9</text>
<line x1="402.14" y1="365" x2="402.14" y2="371" stroke="#333" stroke-width="1"/>
<text x="390.14" y="387" font-size="12" font-family="Consolas, monospace">74.3</text>
<line x1="517.86" y1="365" x2="517.86" y2="371" stroke="#333" stroke-width="1"/>
<text x="505.86" y="387" font-size="12" font-family="Consolas, monospace">80.7</text>
<line x1="633.57" y1="365" x2="633.57" y2="371" stroke="#333" stroke-width="1"/>
<text x="621.57" y="387" font-size="12" font-family="Consolas, monospace">87.1</text>
<line x1="749.29" y1="365" x2="749.29" y2="371" stroke="#333" stroke-width="1"/>
<text x="737.29" y="387" font-size="12" font-family="Consolas, monospace">93.6</text>
<line x1="865.00" y1="365" x2="865.00" y2="371" stroke="#333" stroke-width="1"/>
<text x="853.00" y="387" font-size="12" font-family="Consolas, monospace">100.0</text>
</svg>