<svg xmlns="http://www.w3.org/2000/svg" width="920" height="420">
<rect width="920" height="420" fill="#ffffff"/>
<text x="55" y="28" font-size="20" font-family="Consolas, monospace">SystolicBP: inicial (solida) vs optimizada (punteada)</text>
<line x1="55" y1="365" x2="865" y2="365" stroke="#333" stroke-width="1.5"/>
<line x1="55" y1="55" x2="55" y2="365" stroke="#333" stroke-width="1.5"/>
<line x1="55" y1="365.00" x2="865" y2="365.00" stroke="#e0e0e0" stroke-width="1"/>
<text x="10" y="369.00" font-size="12" font-family="Consolas, monospace">0.0</text>
<line x1="55" y1="303.00" x2="865" y2="303.00" stroke="#e0e0e0" stroke-width="1"/>
<text x="10" y="307.00" font-size="12" font-family="Consolas, monospace">0.2</text>
<line x1="55" y1="241.00" x2="865" y2="241.00" stroke="#e0e0e0" stroke-width="1"/>
<text x="10" y="245.00" font-size="12" font-family="Consolas, monospace">0.4</text>
<line x1="55" y1="179.00" x2="865" y2="179.00" stroke="#e0e0e0" stroke-width="1"/>
<text x="10" y="183.00" font-size="12" font-family="Consolas, monospace">0.6</text>
<line x1="55" y1="117.00" x2="865" y2="117.00" stroke="#e0e0e0" stroke-width="1"/>
<text x="10" y="121.00" font-size="12" font-family="Consolas, monospace">0.8</text>
<line x1="55" y1="55.00" x2="865" y2="55.00" stroke="#e0e0e0" stroke-width="1"/>
<text x="10" y="59.00" font-size="12" font-family="Consolas, monospace">1.0</text>
<polyline points="55.00,55.00 57.71,55.00 60.42,55.00 63.13,55.00 65.84,55.00 68.55,55.00 71.25,55.00 73.96,55.00 76.67,55.00 79.38,55.00 82.09,55.00 84.80,55.00 87.51,55.00 90.22,55.00 92.93,55.00 95.64,55.00 98.34,55.00 101.05,55.00 103.76,55.00 106.47,55.00 109.18,55.00 111.89,55.00 114.60,55.00 117.31,55.00 120.02,55.00 122.73,55.00 125.43,55.00 128.14,55.00 130.85,55.00 133.56,55.00 136.27,55.00 138.98,55.00 141.69,55.00 144.40,55.00 147.11,55.00 149.82,55.00 152.53,55.00 155.23,55.00 157.94,55.00 160.65,55.00 163.36,55.00 166.07,55.00 168.78,55.00 171.49,55.00 174.20,55.00 176.91,55.00 179.62,55.00 182.32,55.00 185.03,55.00 187.74,55.00 190.45,55.00 193.16,55.00 195.87,55.00 198.58,55.00 201.29,55.00 204.00,55.00 206.71,55.00 209.41,55.52 212.12,66.40 214.83,77.29 217.54,88.18 220.25,99.06 222.96,109.95 225.67,120.84 228.38,131.72 231.09,142.61 233.80,153.49 236.51,164.38 239.21,175.27 241.92,186.15 244.63,197.04 247.34,207.93 250.05,218.81 252.76,229.70 255.47,240.59 258.18,251.47 260.89,262.36 263.60,273.24 266.30,284.13 269.01,295.02 271.72,305.90 274.43,316.79 277.14,327.68 279.85,338.56 282.56,349.45 285.27,360.33 287.98,365.00 290.69,365.00 293.39,365.00 296.10,365.00 298.81,365.00 301.52,365.00 304.23,365.00 306.94,365.00 309.65,365.00 312.36,365.00 315.07,365.00 317.78,365.00 320.48,365.00 323.19,365.00 325.90,365.00 328.61,365.00 331.32,365.00 334.03,365.00 336.74,365.00 339.45,365.00 342.16,365.00 344.87,365.00 347.58,365.00 350.28,365.00 352.99,365.00 355.70,365.00 358.41,365.00 361.12,365.00 363.83,365.00 366.54,365.00 369.25,365.00 371.96,365.00 374.67,365.00 377.37,365.00 380.08,365.00 382.79,365.00 385.50,365.00 388.21,365.00 390.92,365.00 393.63,365.00 396.34,365.00 399.05,365.00 401.76,365.00 404.46,365.00 407.17,365.00 409.88,365.00 412.59,365.00 415.30,365.00 418.01,365.00 420.72,365.00 423.43,365.00 426.14,365.00 428.85,365.00 431.56,365.00 434.26,365.00 436.97,365.00 439.68,365.00 442.39,365.00 445.10,365.00 447.81,365.00 450.52,365.00 453.23,365.00 455.94,365.00 458.65,365.00 461.35,365.00 464.06,365.00 466.77,365.00 469.48,365.00 472.19,365.00 474.90,365.00 477.61,365.00 480.32,365.00 483.03,365.00 485.74,365.00 488.44,365.00 491.15,365.00 493.86,365.00 496.57,365.00 499.28,365.00 501.99,365.00 504.70,365.00 507.41,365.00 510.12,365.00 512.83,365.00 515.54,365.00 518.24,365.00 520.95,365.00 523.66,365.00 526.37,365.00 529.08,365.00 531.79,365.00 534.50,365.00 537.21,365.00 539.92,365.00 542.63,365.00 545.33,365.00 548.04,365.00 550.75,365.00 553.46,365.00 556.17,365.00 558.88,365.00 561.59,365.00 564.30,365.00 567.01,365.00 569.72,365.00 572.42,365.00 575.13,365.00 577.84,365.00 580.55,365.00 583.26,365.00 585.97,365.00 588.68,365.00 591.39,365.00 594.10,365.00 596.81,365.00 599.52,365.00 602.22,365.00 604.93,365.00 607.64,365.00 610.35,365.00 613.06,365.00 615.77,365.00 618.48,365.00 621.19,365.00 623.90,365.00 626.61,365.00 629.31,365.00 632.02,365.00 634.73,365.00 637.44,365.00 640.15,365.00 642.86,365.00 645.57,365.00 648.28,365.00 650.99,365.00 653.70,365.00 656.40,365.00 659.11,365.00 661.82,365.00 664.53,365.00 667.24,365.00 669.95,365.00 672.66,365.00 675.37,365.00 678.08,365.00 680.79,365.00 683.49,365.00 686.20,365.00 688.91,365.00 691.62,365.00 694.33,365.00 697.04,365.00 699.75,365.00 702.46,365.00 705.17,365.00 707.88,365.00 710.59,365.00 713.29,365.00 716.00,365.00 718.71,365.00 721.42,365.00 724.13,365.00 726.84,365.00 729.55,365.00 732.26,365.00 734.97,365.00 737.68,365.00 740.38,365.00 743.09,365.00 745.80,365.00 748.51,365.00 751.22,365.00 753.93,365.00 756.64,365.00 759.35,365.00 762.06,365.00 764.77,365.00 767.47,365.00 770.18,365.00 772.89,365.00 775.60,365.00 778.31,365.00 781.02,365.00 783.73,365.00 786.44,365.00 789.15,365.00 791.86,365.00 794.57,365.00 797.27,365.00 799.98,365.00 802.69,365.00 805.40,365.00 808.11,365.00 810.82,365.00 813.53,365.00 816.24,365.00 818.95,365.00 821.66,365.00 824.36,365.00 827.07,365.00 829.78,365.00 832.49,365.00 835.20,365.00 837.91,365.00 840.62,365.00 843.33,365.00 846.04,365.00 848.75,365.00 851.45,365.00 854.16,365.00 856.87,365.00 859.58,365.00 862.29,365.00 865.00,365.00" fill="none" stroke="#0b5fff" stroke-width="2.2"/>
<polyline points="55.00,365.00 57.71,55.00 60.42,55.00 63.13,55.00 65.84,55.00 68.55,55.00 71.25,55.00 73.96,55.00 76.67,55.00 79.38,55.00 82.09,55.00 84.80,55.00 87.51,55.00 90.22,55.00 92.93,55.00 95.64,55.00 98.34,55.00 101.05,55.00 103.76,55.00 106.47,55.00 109.18,55.00 111.89,55.00 114.60,55.00 117.31,55.00 120.02,55.00 122.73,55.00 125.43,55.00 128.14,55.00 130.85,55.00 133.56,55.00 136.27,55.00 138.98,55.00 141.69,55.00 144.40,55.00 147.11,55.00 149.82,55.00 152.53,55.00 155.23,55.00 157.94,55.00 160.65,55.00 163.36,55.00 166.07,55.00 168.78,55.00 171.49,55.00 174.20,55.00 176.91,55.00 179.62,55.00 182.32,55.00 185.03,55.00 187.74,55.00 190.45,55.00 193.16,55.00 195.87,55.00 198.58,55.00 201.29,55.00 204.00,55.00 206.71,64.29 209.41,78.65 212.12,93.01 214.83,107.36 217.54,121.72 220.25,136.08 222.96,150.43 225.67,164.79 228.38,179.15 231.09,193.50 233.80,207.86 236.51,222.22 239.21,236.58 241.92,250.93 244.63,265.29 247.34,279.65 250.05,294.00 252.76,308.36 255.47,322.72 258.18,337.07 260.89,351.43 263.60,365.00 266.30,365.00 269.01,365.00 271.72,365.00 274.43,365.00 277.14,365.00 279.85,365.00 282.56,365.00 285.27,365.00 287.98,365.00 290.69,365.00 293.39,365.00 296.10,365.00 298.81,365.00 301.52,365.00 304.23,365.00 306.94,365.00 309.65,365.00 312.36,365.00 315.07,365.00 317.78,365.00 320.48,365.00 323.19,365.00 325.90,365.00 328.61,365.00 331.32,365.00 334.03,365.00 336.74,365.00 339.45,365.00 342.16,365.00 344.87,365.00 347.58,365.00 350.28,365.00 352.99,365.00 355.70,365.00 358.41,365.00 361.12,365.00 363.83,365.00 366.54,365.00 369.25,365.00 371.96,365.00 374.67,365.00 377.37,365.00 380.08,365.00 382.79,365.00 385.50,365.00 388.21,365.00 390.92,365.00 393.63,365.00 396.34,365.00 399.05,365.00 401.76,365.00 404.46,365.00 407.17,365.00 409.88,365.00 412.59,365.00 415.30,365.00 418.01,365.00 420.72,365.00 423.43,365.00 426.14,365.00 428.85,365.00 431.56,365.00 434.26,365.00 436.97,365.00 439.68,365.00 442.39,365.00 445.10,365.00 447.81,365.00 450.52,365.00 453.23,365.00 455.94,365.00 458.65,365.00 461.35,365.00 464.06,365.00 466.77,365.00 469.48,365.00 472.19,365.00 474.90,365.00 477.61,365.00 480.32,365.00 483.03,365.00 485.74,365.00 488.44,365.00 491.15,365.00 493.86,365.00 496.57,365.00 499.28,365.00 501.99,365.00 504.70,365.00 507.41,365.00 510.12,365.00 512.83,365.00 515.54,365.00 518.24,365.00 520.95,365.00 523.66,365.00 526.37,365.00 529.08,365.00 531.79,365.00 534.50,365.00 537.21,365.00 539.92,365.00 542.63,365.00 545.33,365.00 548.04,365.00 550.75,365.00 553.46,365.00 556.17,365.00 558.88,365.00 561.59,365.00 564.30,365.00 567.01,365.00 569.72,365.00 572.42,365.00 575.13,365.00 577.84,365.00 580.55,365.00 583.26,365.00 585.97,365.00 588.68,365.00 591.39,365.00 594.10,365.00 596.81,365.00 599.52,365.00 602.22,365.00 604.93,365.00 607.64,365.00 610.35,365.00 613.06,365.00 615.77,365.00 618.48,365.00 621.19,365.00 623.90,365.00 626.61,365.00 629.31,365.00 632.02,365.00 634.73,365.00 637.44,365.00 640.15,365.00 642.86,365.00 645.57,365.00 648.28,365.00 650.99,365.00 653.70,365.00 656.40,365.00 659.11,365.00 661.82,365.00 664.53,365.00 667.24,365.00 669.95,365.00 672.66,365.00 675.37,365.00 678.08,365.00 680.79,365.00 683.49,365.00 686.20,365.00 688.91,365.00 691.62,365.00 694.33,365.00 697.04,365.00 699.75,365.00 702.46,365.00 705.17,365.00 707.88,365.00 710.59,365.00 713.29,365.00 716.00,365.00 718.71,365.00 721.42,365.00 724.13,365.00 726.84,365.00 729.55,365.00 732.26,365.00 734.97,365.00 737.68,365.00 740.38,365.00 743.09,365.00 745.80,365.00 748.51,365.00 751.22,365.00 753.93,365.00 756.64,365.00 759.35,365.00 762.06,365.00 764.77,365.00 767.47,365.00 770.18,365.00 772.89,365.00 775.60,365.00 778.31,365.00 781.02,365.00 783.73,365.00 786.44,365.00 789.15,365.00 791.86,365.00 794.57,365.00 797.27,365.00 799.98,365.00 802.69,365.00 805.40,365.00 808.11,365.00 810.82,365.00 813.53,365.00 816.24,365.00 818.95,365.00 821.66,365.00 824.36,365.00 827.07,365.00 829.78,365.00 832.49,365.00 835.20,365.00 837.91,365.00 840.62,365.00 843.33,365.00 846.04,365.00 848.75,365.00 851.45,365.00 854.16,365.00 856.87,365.00 859.58,365.00 862.29,365.00 865.00,365.00" fill="none" stroke="#0b5fff" stroke-width="2.2" stroke-dasharray="6,4"/>
<text x="620" y="55" font-size="12" font-family="Consolas, monospace" fill="#0b5fff">baja</text>
<polyline points="55.00,365.00 57.71,365.00 60.42,365.00 63.13,365.00 65.84,365.00 68.55,365.00 71.25,365.00 73.96,365.00 76.67,365.00 79.38,365.00 82.09,365.00 84.80,365.00 87.51,365.00 90.22,365.00 92.93,365.00 95.64,365.00 98.34,365.00 101.05,365.00 103.76,365.00 106.47,365.00 109.18,365.00 111.89,365.00 114.60,365.00 117.31,365.00 120.02,365.00 122.73,365.00 125.43,365.00 128.14,365.00 130.85,365.00 133.56,365.00 136.27,365.00 138.98,365.00 141.69,365.00 144.40,365.00 147.11,365.00 149.82,365.00 152.53,365.00 155.23,365.00 157.94,365.00 160.65,365.00 163.36,365.00 166.07,365.00 168.78,365.00 171.49,365.00 174.20,365.00 176.91,365.00 179.62,365.00 182.32,365.00 185.03,365.00 187.74,365.00 190.45,365.00 193.16,365.00 195.87,365.00 198.58,365.00 201.29,365.00 204.00,365.00 206.71,365.00 209.41,365.00 212.12,365.00 214.83,365.00 217.54,365.00 220.25,365.00 222.96,365.00 225.67,365.00 228.38,365.00 231.09,365.00 233.80,365.00 236.51,365.00 239.21,365.00 241.92,365.00 244.63,365.00 247.34,365.00 250.05,356.19 252.76,345.30 255.47,334.41 258.18,323.53 260.89,312.64 263.60,301.76 266.30,290.87 269.01,279.98 271.72,269.10 274.43,258.21 277.14,247.32 279.85,236.44 282.56,225.55 285.27,214.67 287.98,203.78 290.69,192.89 293.39,182.01 296.10,171.12 298.81,160.23 301.52,149.35 304.23,138.46 306.94,127.58 309.65,116.69 312.36,105.80 315.07,94.92 317.78,84.03 320.48,73.14 323.19,62.26 325.90,55.00 328.61,55.00 331.32,55.00 334.03,55.00 336.74,55.00 339.45,55.00 342.16,55.00 344.87,55.00 347.58,55.00 350.28,55.00 352.99,55.00 355.70,55.00 358.41,55.00 361.12,55.00 363.83,55.00 366.54,55.00 369.25,55.00 371.96,55.00 374.67,55.00 377.37,55.00 380.08,55.00 382.79,55.00 385.50,55.00 388.21,55.00 390.92,55.00 393.63,55.00 396.34,55.00 399.05,55.00 401.76,55.00 404.46,55.00 407.17,55.00 409.88,55.00 412.59,55.00 415.30,55.00 418.01,55.00 420.72,55.00 423.43,55.00 426.14,55.00 428.85,55.00 431.56,55.00 434.26,55.00 436.97,55.00 439.68,55.00 442.39,55.00 445.10,55.00 447.81,55.00 450.52,55.00 453.23,55.00 455.94,55.00 458.65,55.00 461.35,55.00 464.06,55.00 466.77,55.00 469.48,55.00 472.19,55.00 474.90,55.00 477.61,55.00 480.32,59.15 483.03,70.03 485.74,80.92 488.44,91.81 491.15,102.69 493.86,113.58 496.57,124.46 499.28,135.35 501.99,146.24 504.70,157.12 507.41,168.01 510.12,178.90 512.83,189.78 515.54,200.67 518.24,211.56 520.95,222.44 523.66,233.33 526.37,244.21 529.08,255.10 531.79,265.99 534.50,276.87 537.21,287.76 539.92,298.65 542.63,309.53 545.33,320.42 548.04,331.30 550.75,342.19 553.46,353.08 556.17,363.96 558.88,365.00 561.59,365.00 564.30,365.00 567.01,365.00 569.72,365.00 572.42,365.00 575.13,365.00 577.84,365.00 580.55,365.00 583.26,365.00 585.97,365.00 588.68,365.00 591.39,365.00 594.10,365.00 596.81,365.00 599.52,365.00 602.22,365.00 604.93,365.00 607.64,365.00 610.35,365.00 613.06,365.00 615.77,365.00 618.48,365.00 621.19,365.00 623.90,365.00 626.61,365.00 629.31,365.00 632.02,365.00 634.73,365.00 637.44,365.00 640.15,365.00 642.86,365.00 645.57,365.00 648.28,365.00 650.99,365.00 653.70,365.00 656.40,365.00 659.11,365.00 661.82,365.00 664.53,365.00 667.24,365.00 669.95,365.00 672.66,365.00 675.37,365.00 678.08,365.00 680.79,365.00 683.49,365.00 686.20,365.00 688.91,365.00 691.62,365.00 694.33,365.00 697.04,365.00 699.75,365.00 702.46,365.00 705.17,365.00 707.88,365.00 710.59,365.00 713.29,365.00 716.00,365.00 718.71,365.00 721.42,365.00 724.13,365.00 726.84,365.00 729.55,365.00 732.26,365.00 734.97,365.00 737.68,365.00 740.38,365.00 743.09,365.00 745.80,365.00 748.51,365.00 751.22,365.00 753.93,365.00 756.64,365.00 759.35,365.00 762.06,365.00 764.77,365.00 767.47,365.00 770.18,365.00 772.89,365.00 775.60,365.00 778.31,365.00 781.02,365.00 783.73,365.00 786.44,365.00 789.15,365.00 791.86,365.00 794.57,365.00 797.27,365.00 799.98,365.00 802.69,365.00 805.40,365.00 808.11,365.00 810.82,365.00 813.53,365.00 816.24,365.00 818.95,365.00 821.66,365.00 824.36,365.00 827.07,365.00 829.78,365.00 832.49,365.00 835.20,365.00 837.91,365.00 840.62,365.00 843.33,365.00 846.04,365.00 848.75,365.00 851.45,365.00 854.16,365.00 856.87,365.00 859.58,365.00 862.29,365.00 865.00,365.00" fill="none" stroke="#009688" stroke-width="2.2"/>
<polyline points="55.00,365.00 57.71,365.00 60.42,365.00 63.13,365.00 65.84,365.00 68.55,365.00 71.25,365.00 73.96,365.00 76.67,365.00 79.38,365.00 82.09,365.00 84.80,365.00 87.51,365.00 90.22,365.00 92.93,365.00 95.64,365.00 98.34,365.00 101.05,365.00 103.76,365.00 106.47,365.00 109.18,365.00 111.89,365.00 114.60,365.00 117.31,365.00 120.02,365.00 122.73,365.00 125.43,365.00 128.14,365.00 130.85,365.00 133.56,365.00 136.27,365.00 138.98,365.00 141.69,365.00 144.40,365.00 147.11,365.00 149.82,365.00 152.53,365.00 155.23,365.00 157.94,365.00 160.65,365.00 163.36,365.00 166.07,365.00 168.78,365.00 171.49,365.00 174.20,365.00 176.91,365.00 179.62,365.00 182.32,365.00 185.03,365.00 187.74,365.00 190.45,365.00 193.16,365.00 195.87,365.00 198.58,365.00 201.29,365.00 204.00,364.76 206.71,357.89 209.41,351.01 212.12,344.14 214.83,337.27 217.54,330.39 220.25,323.52 222.96,316.64 225.67,309.77 228.38,302.89 231.09,296.02 233.80,289.14 236.51,282.27 239.21,275.39 241.92,268.52 244.63,261.64 247.34,254.77 250.05,247.89 252.76,241.02 255.47,234.15 258.18,227.27 260.89,220.40 263.60,213.52 266.30,206.65 269.01,199.77 271.72,192.90 274.43,186.02 277.14,179.15 279.85,172.27 282.56,165.40 285.27,158.52 287.98,151.65 290.69,144.78 293.39,137.90 296.10,131.03 298.81,124.15 301.52,117.28 304.23,110.40 306.94,103.53 309.65,96.65 312.36,89.78 315.07,82.90 317.78,76.03 320.48,69.15 323.19,62.28 325.90,55.41 328.61,55.00 331.32,55.00 334.03,55.00 336.74,55.00 339.45,55.00 342.16,55.00 344.87,55.00 347.58,55.00 350.28,55.00 352.99,55.00 355.70,55.00 358.41,55.00 361.12,55.00 363.83,55.00 366.54,55.00 369.25,55.00 371.96,55.00 374.67,55.00 377.37,55.00 380.08,55.00 382.79,55.00 385.50,55.00 388.21,55.00 390.92,55.00 393.63,55.00 396.34,55.00 399.05,55.00 401.76,55.00 404.46,55.00 407.17,55.00 409.88,55.00 412.59,55.00 415.30,55.00 418.01,55.00 420.72,55.00 423.43,55.00 426.14,55.00 428.85,55.00 431.56,55.00 434.26,55.00 436.97,55.00 439.68,55.00 442.39,55.00 445.10,55.00 447.81,55.00 450.52,55.00 453.23,55.00 455.94,55.00 458.65,55.00 461.35,55.00 464.06,55.00 466.77,55.00 469.48,55.00 472.19,56.57 474.90,67.71 477.61,78.85 480.32,89.99 483.03,101.14 485.74,112.28 488.44,123.42 491.15,134.56 493.86,145.71 496.57,156.85 499.28,167.99 501.99,179.13 504.70,190.28 507.41,201.42 510.12,212.56 512.83,223.70 515.54,234.85 518.24,245.99 520.95,257.13 523.66,268.27 526.37,279.42 529.08,290.56 531.79,301.70 534.50,312.84 537.21,323.98 539.92,335.13 542.63,346.27 545.33,357.41 548.04,365.00 550.75,365.00 553.46,365.00 556.17,365.00 558.88,365.00 561.59,365.00 564.30,365.00 567.01,365.00 569.72,365.00 572.42,365.00 575.13,365.00 577.84,365.00 580.55,365.00 583.26,365.00 585.97,365.00 588.68,365.00 591.39,365.00 594.10,365.00 596.81,365.00 599.52,365.00 602.22,365.00 604.93,365.00 607.64,365.00 610.35,365.00 613.06,365.00 615.77,365.00 618.48,365.00 621.19,365.00 623.90,365.00 626.61,365.00 629.31,365.00 632.02,365.00 634.73,365.00 637.44,365.00 640.15,365.00 642.86,365.00 645.57,365.00 648.28,365.00 650.99,365.00 653.70,365.00 656.40,365.00 659.11,365.00 661.82,365.00 664.53,365.00 667.24,365.00 669.95,365.00 672.66,365.00 675.37,365.00 678.08,365.00 680.79,365.00 683.49,365.00 686.20,365.00 688.91,365.00 691.62,365.00 694.33,365.00 697.04,365.00 699.75,365.00 702.46,365.00 705.17,365.00 707.88,365.00 710.59,365.00 713.29,365.00 716.00,365.00 718.71,365.00 721.42,365.00 724.13,365.00 726.84,365.00 729.55,365.00 732.26,365.00 734.97,365.00 737.68,365.00 740.38,365.00 743.09,365.00 745.80,365.00 748.51,365.00 751.22,365.00 753.93,365.00 756.64,365.00 759.35,365.00 762.06,365.00 764.77,365.00 767.47,365.00 770.18,365.00 772.89,365.00 775.60,365.00 778.31,365.00 781.02,365.00 783.73,365.00 786.44,365.00 789.15,365.00 791.86,365.00 794.57,365.00 797.27,365.00 799.98,365.00 802.69,365.00 805.40,365.00 808.11,365.00 810.82,365.00 813.53,365.00 816.24,365.00 818.95,365.00 821.66,365.00 824.36,365.00 827.07,365.00 829.78,365.00 832.49,365.00 835.20,365.00 837.91,365.00 840.62,365.00 843.33,365.00 846.04,365.00 848.75,365.00 851.45,365.00 854.16,365.00 856.87,365.00 859.58,365.00 862.29,365.00 865.00,365.00" fill="none" stroke="#009688" stroke-width="2.2" stroke-dasharray="6,4"/>
<text x="620" y="73" font-size="12" font-family="Consolas, monospace" fill="#009688">normal</text>
<polyline points="55.00,365.00 57.71,365.00 60.42,365.00 63.13,365.00 65.84,365.00 68.55,365.00 71.25,365.00 73.96,365.00 76.67,365.00 79.38,365.00 82.09,365.00 84.80,365.00 87.51,365.00 90.22,365.00 92.93,365.00 95.64,365.00 98.34,365.00 101.05,365.00 103.76,365.00 106.47,365.00 109.18,365.00 111.89,365.00 114.60,365.00 117.31,365.00 120.02,365.00 122.73,365.00 125.43,365.00 128.14,365.00 130.85,365.00 133.56,365.00 136.27,365.00 138.98,365.00 141.69,365.00 144.40,365.00 147.11,365.00 149.82,365.00 152.53,365.00 155.23,365.00 157.94,365.00 160.65,365.00 163.36,365.00 166.07,365.00 168.78,365.00 171.49,365.00 174.20,365.00 176.91,365.00 179.62,365.00 182.32,365.00 185.03,365.00 187.74,365.00 190.45,365.00 193.16,365.00 195.87,365.00 198.58,365.00 201.29,365.00 204.00,365.00 206.71,365.00 209.41,365.00 212.12,365.00 214.83,365.00 217.54,365.00 220.25,365.00 222.96,365.00 225.67,365.00 228.38,365.00 231.09,365.00 233.80,365.00 236.51,365.00 239.21,365.00 241.92,365.00 244.63,365.00 247.34,365.00 250.05,365.00 252.76,365.00 255.47,365.00 258.18,365.00 260.89,365.00 263.60,365.00 266.30,365.00 269.01,365.00 271.72,365.00 274.43,365.00 277.14,365.00 279.85,365.00 282.56,365.00 285.27,365.00 287.98,365.00 290.69,365.00 293.39,365.00 296.10,365.00 298.81,365.00 301.52,365.00 304.23,365.00 306.94,365.00 309.65,365.00 312.36,365.00 315.07,365.00 317.78,365.00 320.48,365.00 323.19,365.00 325.90,365.00 328.61,365.00 331.32,365.00 334.03,365.00 336.74,365.00 339.45,365.00 342.16,365.00 344.87,365.00 347.58,365.00 350.28,365.00 352.99,365.00 355.70,365.00 358.41,365.00 361.12,365.00 363.83,365.00 366.54,365.00 369.25,365.00 371.96,365.00 374.67,365.00 377.37,365.00 380.08,365.00 382.79,365.00 385.50,365.00 388.21,365.00 390.92,365.00 393.63,365.00 396.34,365.00 399.05,365.00 401.76,365.00 404.46,365.00 407.17,365.00 409.88,365.00 412.59,365.00 415.30,365.00 418.01,365.00 420.72,365.00 423.43,365.00 426.14,365.00 428.85,365.00 431.56,365.00 434.26,365.00 436.97,365.00 439.68,365.00 442.39,365.00 445.10,365.00 447.81,365.00 450.52,365.00 453.23,365.00 455.94,365.00 458.65,365.00 461.35,365.00 464.06,365.00 466.77,365.00 469.48,365.00 472.19,365.00 474.90,365.00 477.61,365.00 480.32,365.00 483.03,365.00 485.74,365.00 488.44,365.00 491.15,365.00 493.86,365.00 496.57,365.00 499.28,365.00 501.99,365.00 504.70,365.00 507.41,365.00 510.12,365.00 512.83,365.00 515.54,365.00 518.24,361.89 520.95,340.12 523.66,318.34 526.37,296.57 529.08,274.80 531.79,253.03 534.50,231.25 537.21,209.48 539.92,187.71 542.63,165.94 545.33,144.16 548.04,122.39 550.75,100.62 553.46,78.85 556.17,57.07 558.88,55.00 561.59,55.00 564.30,55.00 567.01,55.00 569.72,55.00 572.42,55.00 575.13,55.00 577.84,55.00 580.55,55.00 583.26,55.00 585.97,55.00 588.68,55.00 591.39,55.00 594.10,55.00 596.81,55.00 599.52,55.00 602.22,55.00 604.93,55.00 607.64,55.00 610.35,55.00 613.06,55.00 615.77,55.00 618.48,56.93 621.19,72.48 623.90,88.03 626.61,103.58 629.31,119.13 632.02,134.68 634.73,150.24 637.44,165.79 640.15,181.34 642.86,196.89 645.57,212.44 648.28,228.00 650.99,243.55 653.70,259.10 656.40,274.65 659.11,290.20 661.82,305.75 664.53,321.31 667.24,336.86 669.95,352.41 672.66,365.00 675.37,365.00 678.08,365.00 680.79,365.00 683.49,365.00 686.20,365.00 688.91,365.00 691.62,365.00 694.33,365.00 697.04,365.00 699.75,365.00 702.46,365.00 705.17,365.00 707.88,365.00 710.59,365.00 713.29,365.00 716.00,365.00 718.71,365.00 721.42,365.00 724.13,365.00 726.84,365.00 729.55,365.00 732.26,365.00 734.97,365.00 737.68,365.00 740.38,365.00 743.09,365.00 745.80,365.00 748.51,365.00 751.22,365.00 753.93,365.00 756.64,365.00 759.35,365.00 762.06,365.00 764.77,365.00 767.47,365.00 770.18,365.00 772.89,365.00 775.60,365.00 778.31,365.00 781.02,365.00 783.73,365.00 786.44,365.00 789.15,365.00 791.86,365.00 794.57,365.00 797.27,365.00 799.98,365.00 802.69,365.00 805.40,365.00 808.11,365.00 810.82,365.00 813.53,365.00 816.24,365.00 818.95,365.00 821.66,365.00 824.36,365.00 827.07,365.00 829.78,365.00 832.49,365.00 835.20,365.00 837.91,365.00 840.62,365.00 843.33,365.00 846.04,365.00 848.75,365.00 851.45,365.00 854.16,365.00 856.87,365.00 859.58,365.00 862.29,365.00 865.00,365.00" fill="none" stroke="#ef6c00" stroke-width="2.2"/>
<polyline points="55.00,365.00 57.71,365.00 60.42,365.00 63.13,365.00 65.84,365.00 68.55,365.00 71.25,365.00 73.96,365.00 76.67,365.00 79.38,365.00 82.09,365.00 84.80,365.00 87.51,365.00 90.22,365.00 92.93,365.00 95.64,365.00 98.34,365.00 101.05,365.00 103.76,365.00 106.47,365.00 109.18,365.00 111.89,365.00 114.60,365.00 117.31,365.00 120.02,365.00 122.73,365.00 125.43,365.00 128.14,365.00 130.85,365.00 133.56,365.00 136.27,365.00 138.98,365.00 141.69,365.00 144.40,365.00 147.11,365.00 149.82,365.00 152.53,365.00 155.23,365.00 157.94,365.00 160.65,365.00 163.36,365.00 166.07,365.00 168.78,365.00 171.49,365.00 174.20,365.00 176.91,365.00 179.62,365.00 182.32,365.00 185.03,365.00 187.74,365.00 190.45,365.00 193.16,365.00 195.87,365.00 198.58,365.00 201.29,365.00 204.00,365.00 206.71,365.00 209.41,365.00 212.12,365.00 214.83,365.00 217.54,365.00 220.25,365.00 222.96,365.00 225.67,365.00 228.38,365.00 231.09,365.00 233.80,365.00 236.51,365.00 239.21,365.00 241.92,365.00 244.63,365.00 247.34,365.00 250.05,365.00 252.76,365.00 255.47,365.00 258.18,365.00 260.89,365.00 263.60,365.00 266.30,365.00 269.01,365.00 271.72,365.00 274.43,365.00 277.14,365.00 279.85,365.00 282.56,365.00 285.27,365.00 287.98,365.00 290.69,365.00 293.39,365.00 296.10,365.00 298.81,365.00 301.52,365.00 304.23,365.00 306.94,365.00 309.65,365.00 312.36,365.00 315.07,365.00 317.78,365.00 320.48,365.00 323.19,365.00 325.90,365.00 328.61,365.00 331.32,365.00 334.03,365.00 336.74,365.00 339.45,365.00 342.16,365.00 344.87,365.00 347.58,365.00 350.28,365.00 352.99,365.00 355.70,365.00 358.41,365.00 361.12,365.00 363.83,365.00 366.54,365.00 369.25,365.00 371.96,365.00 374.67,365.00 377.37,365.00 380.08,365.00 382.79,365.00 385.50,365.00 388.21,365.00 390.92,365.00 393.63,365.00 396.34,365.00 399.05,365.00 401.76,365.00 404.46,365.00 407.17,365.00 409.88,365.00 412.59,365.00 415.30,365.00 418.01,365.00 420.72,365.00 423.43,365.00 426.14,365.00 428.85,365.00 431.56,365.00 434.26,365.00 436.97,365.00 439.68,365.00 442.39,365.00 445.10,365.00 447.81,365.00 450.52,365.00 453.23,365.00 455.94,365.00 458.65,365.00 461.35,365.00 464.06,365.00 466.77,365.00 469.48,365.00 472.19,365.00 474.90,365.00 477.61,365.00 480.32,365.00 483.03,365.00 485.74,365.00 488.44,365.00 491.15,365.00 493.86,365.00 496.57,365.00 499.28,365.00 501.99,365.00 504.70,365.00 507.41,365.00 510.12,365.00 512.83,365.00 515.54,365.00 518.24,363.23 520.95,342.31 523.66,321.38 526.37,300.45 529.08,279.52 531.79,258.59 534.50,237.66 537.21,216.73 539.92,195.80 542.63,174.87 545.33,153.94 548.04,133.01 550.75,112.08 553.46,91.15 556.17,70.23 558.88,55.00 561.59,55.00 564.30,55.00 567.01,55.00 569.72,55.00 572.42,55.00 575.13,55.00 577.84,55.00 580.55,55.00 583.26,55.00 585.97,55.00 588.68,55.00 591.39,55.00 594.10,55.00 596.81,55.00 599.52,55.00 602.22,55.00 604.93,55.00 607.64,55.00 610.35,55.00 613.06,86.54 615.77,118.29 618.48,150.05 621.19,181.81 623.90,213.57 626.61,245.32 629.31,277.08 632.02,308.84 634.73,340.60 637.44,365.00 640.15,365.00 642.86,365.00 645.57,365.00 648.28,365.00 650.99,365.00 653.70,365.00 656.40,365.00 659.11,365.00 661.82,365.00 664.53,365.00 667.24,365.00 669.95,365.00 672.66,365.00 675.37,365.00 678.08,365.00 680.79,365.00 683.49,365.00 686.20,365.00 688.91,365.00 691.62,365.00 694.33,365.00 697.04,365.00 699.75,365.00 702.46,365.00 705.17,365.00 707.88,365.00 710.59,365.00 713.29,365.00 716.00,365.00 718.71,365.00 721.42,365.00 724.13,365.00 726.84,365.00 729.55,365.00 732.26,365.00 734.97,365.00 737.68,365.00 740.38,365.00 743.09,365.00 745.80,365.00 748.51,365.00 751.22,365.00 753.93,365.00 756.64,365.00 759.35,365.00 762.06,365.00 764.77,365.00 767.47,365.00 770.18,365.00 772.89,365.00 775.60,365.00 778.31,365.00 781.02,365.00 783.73,365.00 786.44,365.00 789.15,365.00 791.86,365.00 794.57,365.00 797.27,365.00 799.98,365.00 802.69,365.00 805.40,365.00 808.11,365.00 810.82,365.00 813.53,365.00 816.24,365.00 818.95,365.00 821.66,365.00 824.36,365.00 827.07,365.00 829.78,365.00 832.49,365.00 835.20,365.00 837.91,365.00 840.62,365.00 843.33,365.00 846.04,365.00 848.75,365.00 851.45,365.00 854.16,365.00 856.87,365.00 859.58,365.00 862.29,365.00 865.00,365.00" fill="none" stroke="#ef6c00" stroke-width="2.2" stroke-dasharray="6,4"/>
<text x="620" y="91" font-size="12" font-family="Consolas, monospace" fill="#ef6c00">limitrofe</text>
<polyline points="55.00,365.00 57.71,365.00 60.42,365.00 63.13,365.00 65.84,365.00 68.55,365.00 71.25,365.00 73.96,365.00 76.67,365.00 79.38,365.00 82.09,365.00 84.80,365.00 87.51,365.00 90.22,365.00 92.93,365.00 95.64,365.00 98.34,365.00 101.05,365.00 103.76,365.00 106.47,365.00 109.18,365.00 111.89,365.00 114.60,365.00 117.31,365.00 120.02,365.00 122.73,365.00 125.43,365.00 128.14,365.00 130.85,365.00 133.56,365.00 136.27,365.00 138.98,365.00 141.69,365.00 144.40,365.00 147.11,365.00 149.82,365.00 152.53,365.00 155.23,365.00 157.94,365.00 160.65,365.00 163.36,365.00 166.07,365.00 168.78,365.00 171.49,365.00 174.20,365.00 176.91,365.00 179.62,365.00 182.32,365.00 185.03,365.00 187.74,365.00 190.45,365.00 193.16,365.00 195.87,365.00 198.58,365.00 201.29,365.00 204.00,365.00 206.71,365.00 209.41,365.00 212.12,365.00 214.83,365.00 217.54,365.00 220.25,365.00 222.96,365.00 225.67,365.00 228.38,365.00 231.09,365.00 233.80,365.00 236.51,365.00 239.21,365.00 241.92,365.00 244.63,365.00 247.34,365.00 250.05,365.00 252.76,365.00 255.47,365.00 258.18,365.00 260.89,365.00 263.60,365.00 266.30,365.00 269.01,365.00 271.72,365.00 274.43,365.00 277.14,365.00 279.85,365.00 282.56,365.00 285.27,365.00 287.98,365.00 290.69,365.00 293.39,365.00 296.10,365.00 298.81,365.00 301.52,365.00 304.23,365.00 306.94,365.00 309.65,365.00 312.36,365.00 315.07,365.00 317.78,365.00 320.48,365.00 323.19,365.00 325.90,365.00 328.61,365.00 331.32,365.00 334.03,365.00 336.74,365.00 339.45,365.00 342.16,365.00 344.87,365.00 347.58,365.00 350.28,365.00 352.99,365.00 355.70,365.00 358.41,365.00 361.12,365.00 363.83,365.00 366.54,365.00 369.25,365.00 371.96,365.00 374.67,365.00 377.37,365.00 380.08,365.00 382.79,365.00 385.50,365.00 388.21,365.00 390.92,365.00 393.63,365.00 396.34,365.00 399.05,365.00 401.76,365.00 404.46,365.00 407.17,365.00 409.88,365.00 412.59,365.00 415.30,365.00 418.01,365.00 420.72,365.00 423.43,365.00 426.14,365.00 428.85,365.00 431.56,365.00 434.26,365.00 436.97,365.00 439.68,365.00 442.39,365.00 445.10,365.00 447.81,365.00 450.52,365.00 453.23,365.00 455.94,365.00 458.65,365.00 461.35,365.00 464.06,365.00 466.77,365.00 469.48,365.00 472.19,365.00 474.90,365.00 477.61,365.00 480.32,365.00 483.03,365.00 485.74,365.00 488.44,365.00 491.15,365.00 493.86,365.00 496.57,365.00 499.28,365.00 501.99,365.00 504.70,365.00 507.41,365.00 510.12,365.00 512.83,365.00 515.54,365.00 518.24,365.00 520.95,365.00 523.66,365.00 526.37,365.00 529.08,365.00 531.79,365.00 534.50,365.00 537.21,365.00 539.92,365.00 542.63,365.00 545.33,365.00 548.04,365.00 550.75,365.00 553.46,365.00 556.17,365.00 558.88,365.00 561.59,365.00 564.30,365.00 567.01,365.00 569.72,365.00 572.42,365.00 575.13,365.00 577.84,365.00 580.55,365.00 583.26,365.00 585.97,365.00 588.68,365.00 591.39,365.00 594.10,365.00 596.81,365.00 599.52,365.00 602.22,365.00 604.93,365.00 607.64,365.00 610.35,365.00 613.06,365.00 615.77,365.00 618.48,365.00 621.19,365.00 623.90,365.00 626.61,365.00 629.31,365.00 632.02,365.00 634.73,355.67 637.44,333.90 640.15,312.12 642.86,290.35 645.57,268.58 648.28,246.81 650.99,225.03 653.70,203.26 656.40,181.49 659.11,159.72 661.82,137.94 664.53,116.17 667.24,94.40 669.95,72.63 672.66,55.00 675.37,55.00 678.08,55.00 680.79,55.00 683.49,55.00 686.20,55.00 688.91,55.00 691.62,55.00 694.33,55.00 697.04,55.00 699.75,55.00 702.46,55.00 705.17,55.00 707.88,55.00 710.59,55.00 713.29,55.00 716.00,55.00 718.71,55.00 721.42,55.00 724.13,55.00 726.84,55.00 729.55,55.00 732.26,55.00 734.97,55.00 737.68,55.00 740.38,55.00 743.09,55.00 745.80,55.00 748.51,55.00 751.22,62.78 753.93,73.66 756.64,84.55 759.35,95.43 762.06,106.32 764.77,117.21 767.47,128.09 770.18,138.98 772.89,149.87 775.60,160.75 778.31,171.64 781.02,182.53 783.73,193.41 786.44,204.30 789.15,215.18 791.86,226.07 794.57,236.96 797.27,247.84 799.98,258.73 802.69,269.62 805.40,280.50 808.11,291.39 810.82,302.27 813.53,313.16 816.24,324.05 818.95,334.93 821.66,345.82 824.36,356.71 827.07,365.00 829.78,365.00 832.49,365.00 835.20,365.00 837.91,365.00 840.62,365.00 843.33,365.00 846.04,365.00 848.75,365.00 851.45,365.00 854.16,365.00 856.87,365.00 859.58,365.00 862.29,365.00 865.00,365.00" fill="none" stroke="#c62828" stroke-width="2.2"/>
<polyline points="55.00,365.00 57.71,365.00 60.42,365.00 63.13,365.00 65.84,365.00 68.55,365.00 71.25,365.00 73.96,365.00 76.67,365.00 79.38,365.00 82.09,365.00 84.80,365.00 87.51,365.00 90.22,365.00 92.93,365.00 95.64,365.00 98.34,365.00 101.05,365.00 103.76,365.00 106.47,365.00 109.18,365.00 111.89,365.00 114.60,365.00 117.31,365.00 120.02,365.00 122.73,365.00 125.43,365.00 128.14,365.00 130.85,365.00 133.56,365.00 136.27,365.00 138.98,365.00 141.69,365.00 144.40,365.00 147.11,365.00 149.82,365.00 152.53,365.00 155.23,365.00 157.94,365.00 160.65,365.00 163.36,365.00 166.07,365.00 168.78,365.00 171.49,365.00 174.20,365.00 176.91,365.00 179.62,365.00 182.32,365.00 185.03,365.00 187.74,365.00 190.45,365.00 193.16,365.00 195.87,365.00 198.58,365.00 201.29,365.00 204.00,365.00 206.71,365.00 209.41,365.00 212.12,365.00 214.83,365.00 217.54,365.00 220.25,365.00 222.96,365.00 225.67,365.00 228.38,365.00 231.09,365.00 233.80,365.00 236.51,365.00 239.21,365.00 241.92,365.00 244.63,365.00 247.34,365.00 250.05,365.00 252.76,365.00 255.47,365.00 258.18,365.00 260.89,365.00 263.60,365.00 266.30,365.00 269.01,365.00 271.72,365.00 274.43,365.00 277.14,365.00 279.85,365.00 282.56,365.00 285.27,365.00 287.98,365.00 290.69,365.00 293.39,365.00 296.10,365.00 298.81,365.00 301.52,365.00 304.23,365.00 306.94,365.00 309.65,365.00 312.36,365.00 315.07,365.00 317.78,365.00 320.48,365.00 323.19,365.00 325.90,365.00 328.61,365.00 331.32,365.00 334.03,365.00 336.74,365.00 339.45,365.00 342.16,365.00 344.87,365.00 347.58,365.00 350.28,365.00 352.99,365.00 355.70,365.00 358.41,365.00 361.12,365.00 363.83,365.00 366.54,365.00 369.25,365.00 371.96,365.00 374.67,365.00 377.37,365.00 380.08,365.00 382.79,365.00 385.50,365.00 388.21,365.00 390.92,365.00 393.63,365.00 396.34,365.00 399.05,365.00 401.76,365.00 404.46,365.00 407.17,365.00 409.88,365.00 412.59,365.00 415.30,365.00 418.01,365.00 420.72,365.00 423.43,365.00 426.14,365.00 428.85,365.00 431.56,365.00 434.26,365.00 436.97,365.00 439.68,365.00 442.39,365.00 445.10,365.00 447.81,365.00 450.52,365.00 453.23,365.00 455.94,365.00 458.65,365.00 461.35,365.00 464.06,365.00 466.77,365.00 469.48,365.00 472.19,365.00 474.90,365.00 477.61,365.00 480.32,365.00 483.03,365.00 485.74,365.00 488.44,365.00 491.15,365.00 493.86,365.00 496.57,365.00 499.28,365.00 501.99,365.00 504.70,365.00 507.41,365.00 510.12,365.00 512.83,365.00 515.54,365.00 518.24,365.00 520.95,365.00 523.66,365.00 526.37,365.00 529.08,365.00 531.79,365.00 534.50,365.00 537.21,365.00 539.92,365.00 542.63,365.00 545.33,365.00 548.04,365.00 550.75,365.00 553.46,365.00 556.17,365.00 558.88,365.00 561.59,365.00 564.30,365.00 567.01,365.00 569.72,365.00 572.42,365.00 575.13,365.00 577.84,365.00 580.55,365.00 583.26,365.00 585.97,365.00 588.68,365.00 591.39,365.00 594.10,365.00 596.81,365.00 599.52,365.00 602.22,365.00 604.93,365.00 607.64,365.00 610.35,365.00 613.06,365.00 615.77,365.00 618.48,356.96 621.19,341.84 623.90,326.72 626.61,311.60 629.31,296.48 632.02,281.36 634.73,266.24 637.44,251.12 640.15,236.00 642.86,220.88 645.57,205.76 648.28,190.64 650.99,175.52 653.70,160.39 656.40,145.27 659.11,130.15 661.82,115.03 664.53,99.91 667.24,84.79 669.95,69.67 672.66,55.00 675.37,55.00 678.08,55.00 680.79,55.00 683.49,55.00 686.20,55.00 688.91,55.00 691.62,55.00 694.33,55.00 697.04,55.00 699.75,55.00 702.46,55.00 705.17,55.00 707.88,55.00 710.59,55.00 713.29,55.00 716.00,55.00 718.71,55.00 721.42,55.00 724.13,55.00 726.84,55.00 729.55,55.00 732.26,55.00 734.97,55.00 737.68,55.00 740.38,55.00 743.09,55.00 745.80,55.00 748.51,55.24 751.22,70.21 753.93,85.19 756.64,100.17 759.35,115.15 762.06,130.12 764.77,145.10 767.47,160.08 770.18,175.06 772.89,190.04 775.60,205.01 778.31,219.99 781.02,234.97 783.73,249.95 786.44,264.92 789.15,279.90 791.86,294.88 794.57,309.86 797.27,324.84 799.98,339.81 802.69,354.79 805.40,365.00 808.11,365.00 810.82,365.00 813.53,365.00 816.24,365.00 818.95,365.00 821.66,365.00 824.36,365.00 827.07,365.00 829.78,365.00 832.49,365.00 835.20,365.00 837.91,365.00 840.62,365.00 843.33,365.00 846.04,365.00 848.75,365.00 851.45,365.00 854.16,365.00 856.87,365.00 859.58,365.00 862.29,365.00 865.00,365.00" fill="none" stroke="#c62828" stroke-width="2.2" stroke-dasharray="6,4"/>
<text x="620" y="109" font-size="12" font-family="Consolas, monospace" fill="#c62828">alta</text>
<polyline points="55.00,365.00 57.71,365.00 60.42,365.00 63.13,365.00 65.84,365.00 68.55,365.00 71.25,365.00 73.96,365.00 76.67,365.00 79.38,365.00 82.09,365.00 84.80,365.00 87.51,365.00 90.22,365.00 92.93,365.00 95.64,365.00 98.34,365.00 101.05,365.00 103.76,365.00 106.47,365.00 109.18,365.00 111.89,365.00 114.60,365.00 117.31,365.00 120.02,365.00 122.73,365.00 125.43,365.00 128.14,365.00 130.85,365.00 133.56,365.00 136.27,365.00 138.98,365.00 141.69,365.00 144.40,365.00 147.11,365.00 149.82,365.00 152.53,365.00 155.23,365.00 157.94,365.00 160.65,365.00 163.36,365.00 166.07,365.00 168.78,365.00 171.49,365.00 174.20,365.00 176.91,365.00 179.62,365.00 182.32,365.00 185.03,365.00 187.74,365.00 190.45,365.00 193.16,365.00 195.87,365.00 198.58,365.00 201.29,365.00 204.00,365.00 206.71,365.00 209.41,365.00 212.12,365.00 214.83,365.00 217.54,365.00 220.25,365.00 222.96,365.00 225.67,365.00 228.38,365.00 231.09,365.00 233.80,365.00 236.51,365.00 239.21,365.00 241.92,365.00 244.63,365.00 247.34,365.00 250.05,365.00 252.76,365.00 255.47,365.00 258.18,365.00 260.89,365.00 263.60,365.00 266.30,365.00 269.01,365.00 271.72,365.00 274.43,365.00 277.14,365.00 279.85,365.00 282.56,365.00 285.27,365.00 287.98,365.00 290.69,365.00 293.39,365.00 296.10,365.00 298.81,365.00 301.52,365.00 304.23,365.00 306.94,365.00 309.65,365.00 312.36,365.00 315.07,365.00 317.78,365.00 320.48,365.00 323.19,365.00 325.90,365.00 328.61,365.00 331.32,365.00 334.03,365.00 336.74,365.00 339.45,365.00 342.16,365.00 344.87,365.00 347.58,365.00 350.28,365.00 352.99,365.00 355.70,365.00 358.41,365.00 361.12,365.00 363.83,365.00 366.54,365.00 369.25,365.00 371.96,365.00 374.67,365.00 377.37,365.00 380.08,365.00 382.79,365.00 385.50,365.00 388.21,365.00 390.92,365.00 393.63,365.00 396.34,365.00 399.05,365.00 401.76,365.00 404.46,365.00 407.17,365.00 409.88,365.00 412.59,365.00 415.30,365.00 418.01,365.00 420.72,365.00 423.43,365.00 426.14,365.00 428.85,365.00 431.56,365.00 434.26,365.00 436.97,365.00 439.68,365.00 442.39,365.00 445.10,365.00 447.81,365.00 450.52,365.00 453.23,365.00 455.94,365.00 458.65,365.00 461.35,365.00 464.06,365.00 466.77,365.00 469.48,365.00 472.19,365.00 474.90,365.00 477.61,365.00 480.32,365.00 483.03,365.00 485.74,365.00 488.44,365.00 491.15,365.00 493.86,365.00 496.57,365.00 499.28,365.00 501.99,365.00 504.70,365.00 507.41,365.00 510.12,365.00 512.83,365.00 515.54,365.00 518.24,365.00 520.95,365.00 523.66,365.00 526.37,365.00 529.08,365.00 531.79,365.00 534.50,365.00 537.21,365.00 539.92,365.00 542.63,365.00 545.33,365.00 548.04,365.00 550.75,365.00 553.46,365.00 556.17,365.00 558.88,365.00 561.59,365.00 564.30,365.00 567.01,365.00 569.72,365.00 572.42,365.00 575.13,365.00 577.84,365.00 580.55,365.00 583.26,365.00 585.97,365.00 588.68,365.00 591.39,365.00 594.10,365.00 596.81,365.00 599.52,365.00 602.22,365.00 604.93,365.00 607.64,365.00 610.35,365.00 613.06,365.00 615.77,365.00 618.48,365.00 621.19,365.00 623.90,365.00 626.61,365.00 629.31,365.00 632.02,365.00 634.73,365.00 637.44,365.00 640.15,365.00 642.86,365.00 645.57,365.00 648.28,365.00 650.99,365.00 653.70,365.00 656.40,365.00 659.11,365.00 661.82,365.00 664.53,365.00 667.24,365.00 669.95,365.00 672.66,365.00 675.37,365.00 678.08,365.00 680.79,365.00 683.49,365.00 686.20,365.00 688.91,365.00 691.62,365.00 694.33,365.00 697.04,365.00 699.75,365.00 702.46,365.00 705.17,365.00 707.88,365.00 710.59,365.00 713.29,365.00 716.00,365.00 718.71,365.00 721.42,365.00 724.13,365.00 726.84,365.00 729.55,365.00 732.26,365.00 734.97,365.00 737.68,365.00 740.38,365.00 743.09,365.00 745.80,365.00 748.51,365.00 751.22,365.00 753.93,365.00 756.64,365.00 759.35,365.00 762.06,365.00 764.77,365.00 767.47,365.00 770.18,365.00 772.89,355.67 775.60,301.24 778.31,246.81 781.02,192.37 783.73,137.94 786.44,83.51 789.15,55.00 791.86,55.00 794.57,55.00 797.27,55.00 799.98,55.00 802.69,55.00 805.40,55.00 808.11,55.00 810.82,55.00 813.53,55.00 816.24,55.00 818.95,55.00 821.66,55.00 824.36,55.00 827.07,55.00 829.78,55.00 832.49,55.00 835.20,55.00 837.91,55.00 840.62,55.00 843.33,55.00 846.04,55.00 848.75,55.00 851.45,55.00 854.16,55.00 856.87,55.00 859.58,55.00 862.29,55.00 865.00,55.00" fill="none" stroke="#6a1b9a" stroke-width="2.2"/>
<polyline points="55.00,365.00 57.71,365.00 60.42,365.00 63.13,365.00 65.84,365.00 68.55,365.00 71.25,365.00 73.96,365.00 76.67,365.00 79.38,365.00 82.09,365.00 84.80,365.00 87.51,365.00 90.22,365.00 92.93,365.00 95.64,365.00 98.34,365.00 101.05,365.00 103.76,365.00 106.47,365.00 109.18,365.00 111.89,365.00 114.60,365.00 117.31,365.00 120.02,365.00 122.73,365.00 125.43,365.00 128.14,365.00 130.85,365.00 133.56,365.00 136.27,365.00 138.98,365.00 141.69,365.00 144.40,365.00 147.11,365.00 149.82,365.00 152.53,365.00 155.23,365.00 157.94,365.00 160.65,365.00 163.36,365.00 166.07,365.00 168.78,365.00 171.49,365.00 174.20,365.00 176.91,365.00 179.62,365.00 182.32,365.00 185.03,365.00 187.74,365.00 190.45,365.00 193.16,365.00 195.87,365.00 198.58,365.00 201.29,365.00 204.00,365.00 206.71,365.00 209.41,365.00 212.12,365.00 214.83,365.00 217.54,365.00 220.25,365.00 222.96,365.00 225.67,365.00 228.38,365.00 231.09,365.00 233.80,365.00 236.51,365.00 239.21,365.00 241.92,365.00 244.63,365.00 247.34,365.00 250.05,365.00 252.76,365.00 255.47,365.00 258.18,365.00 260.89,365.00 263.60,365.00 266.30,365.00 269.01,365.00 271.72,365.00 274.43,365.00 277.14,365.00 279.85,365.00 282.56,365.00 285.27,365.00 287.98,365.00 290.69,365.00 293.39,365.00 296.10,365.00 298.81,365.00 301.52,365.00 304.23,365.00 306.94,365.00 309.65,365.00 312.36,365.00 315.07,365.00 317.78,365.00 320.48,365.00 323.19,365.00 325.90,365.00 328.61,365.00 331.32,365.00 334.03,365.00 336.74,365.00 339.45,365.00 342.16,365.00 344.87,365.00 347.58,365.00 350.28,365.00 352.99,365.00 355.70,365.00 358.41,365.00 361.12,365.00 363.83,365.00 366.54,365.00 369.25,365.00 371.96,365.00 374.67,365.00 377.37,365.00 380.08,365.00 382.79,365.00 385.50,365.00 388.21,365.00 390.92,365.00 393.63,365.00 396.34,365.00 399.05,365.00 401.76,365.00 404.46,365.00 407.17,365.00 409.88,365.00 412.59,365.00 415.30,365.00 418.01,365.00 420.72,365.00 423.43,365.00 426.14,365.00 428.85,365.00 431.56,365.00 434.26,365.00 436.97,365.00 439.68,365.00 442.39,365.00 445.10,365.00 447.81,365.00 450.52,365.00 453.23,365.00 455.94,365.00 458.65,365.00 461.35,365.00 464.06,365.00 466.77,365.00 469.48,365.00 472.19,365.00 474.90,365.00 477.61,365.00 480.32,365.00 483.03,365.00 485.74,365.00 488.44,365.00 491.15,365.00 493.86,365.00 496.57,365.00 499.28,365.00 501.99,365.00 504.70,365.00 507.41,365.00 510.12,365.00 512.83,365.00 515.54,365.00 518.24,365.00 520.95,365.00 523.66,365.00 526.37,365.00 529.08,365.00 531.79,365.00 534.50,365.00 537.21,365.00 539.92,365.00 542.63,365.00 545.33,365.00 548.04,365.00 550.75,365.00 553.46,365.00 556.17,365.00 558.88,365.00 561.59,365.00 564.30,365.00 567.01,365.00 569.72,365.00 572.42,365.00 575.13,365.00 577.84,365.00 580.55,365.00 583.26,365.00 585.97,365.00 588.68,365.00 591.39,365.00 594.10,365.00 596.81,365.00 599.52,365.00 602.22,365.00 604.93,365.00 607.64,365.00 610.35,365.00 613.06,365.00 615.77,365.00 618.48,365.00 621.19,365.00 623.90,365.00 626.61,365.00 629.31,365.00 632.02,365.00 634.73,365.00 637.44,365.00 640.15,365.00 642.86,365.00 645.57,365.00 648.28,365.00 650.99,365.00 653.70,365.00 656.40,365.00 659.11,365.00 661.82,365.00 664.53,365.00 667.24,365.00 669.95,365.00 672.66,365.00 675.37,365.00 678.08,365.00 680.79,365.00 683.49,365.00 686.20,365.00 688.91,365.00 691.62,365.00 694.33,365.00 697.04,365.00 699.75,365.00 702.46,365.00 705.17,365.00 707.88,365.00 710.59,365.00 713.29,365.00 716.00,365.00 718.71,365.00 721.42,365.00 724.13,365.00 726.84,365.00 729.55,365.00 732.26,365.00 734.97,365.00 737.68,365.00 740.38,365.00 743.09,365.00 745.80,365.00 748.51,365.00 751.22,365.00 753.93,365.00 756.64,365.00 759.35,365.00 762.06,365.00 764.77,365.00 767.47,365.00 770.18,365.00 772.89,365.00 775.60,365.00 778.31,365.00 781.02,365.00 783.73,365.00 786.44,339.29 789.15,238.92 791.86,138.55 794.57,55.00 797.27,55.00 799.98,55.00 802.69,55.00 805.40,55.00 808.11,55.00 810.82,55.00 813.53,55.00 816.24,55.00 818.95,55.00 821.66,55.00 824.36,55.00 827.07,55.00 829.78,55.00 832.49,55.00 835.20,55.00 837.91,55.00 840.62,55.00 843.33,55.00 846.04,55.00 848.75,55.00 851.45,55.00 854.16,55.00 856.87,55.00 859.58,55.00 862.29,55.00 865.00,365.00" fill="none" stroke="#6a1b9a" stroke-width="2.2" stroke-dasharray="6,4"/>
<text x="620" y="127" font-size="12" font-family="Consolas, monospace" fill="#6a1b9a">severa</text>
<line x1="55.00" y1="365" x2="55.00" y2="371" stroke="#333" stroke-width="1"/>
<text x="43.00" y="387" font-size="12" font-family="Consolas, monospace">65.0</text>
<line x1="170.71" y1="365" x2="170.71" y2="371" stroke="#333" stroke-width="1"/>
<text x="158.71" y="387" font-size="12" font-family="Consolas, monospace">80.0</text>
<line x1="286.43" y1="365" x2="286.43" y2="371" stroke="#333" stroke-width="1"/>
<text x="274.43" y="387" font-size="12" font-family="Consolas, monospace">95.0</text>
<line x1="402.14" y1="365" x2="402.14" y2="371" stroke="#333" stroke-width="1"/>
<text x="390.14" y="387" font-size="12" font-family="Consolas, monospace">110.0</text>
<line x1="517.86" y1="365" x2="517.86" y2="371" stroke="#333" stroke-width="1"/>
<text x="505.86" y="387" font-size="12" font-family="Consolas, monospace">125.0</text>
<line x1="633.57" y1="365" x2="633.57" y2="371" stroke="#333" stroke-width="1"/>
<text x="621.57" y="387" font-size="12" font-family="Consolas, monospace">140.0</text>
<line x1="749.29" y1="365" x2="749.29" y2="371" stroke="#333" stroke-width="1"/>
<text x="737.29" y="387" font-size="12" font-family="Consolas, monospace">155.0</text>
<line x1="865.00" y1="365" x2="865.00" y2="371" stroke="#333" stroke-width="1"/>
<text x="853.00" y="387" font-size="12" font-family="Consolas, monospace">170.0</text>
</svg>